<svg width="113" height="34" viewBox="0 0 113 34" fill="none" xmlns="http://www.w3.org/2000/svg">
<path d="M112.101 29.467C112.101 31.1941 110.666 32.5931 108.891 32.5931H3.84023C2.06607 32.5931 0.625977 31.1941 0.625977 29.467V4.53718C0.625977 2.81088 2.06607 1.40698 3.84023 1.40698H108.89C110.666 1.40698 112.1 2.81088 112.1 4.53718L112.101 29.467Z" fill="white"/>
<path d="M108.552 1.44469C110.485 1.44469 112.058 2.97096 112.058 4.84663V29.1535C112.058 31.0291 110.485 32.5554 108.552 32.5554H4.17508C2.24202 32.5554 0.669057 31.0291 0.669057 29.1535V4.84663C0.669057 2.97096 2.24202 1.44469 4.17508 1.44469H108.552ZM108.552 0.795498H4.17508C1.87983 0.795498 0 2.61952 0 4.84663V29.1535C0 31.3806 1.87983 33.2046 4.17508 33.2046H108.552C110.847 33.2046 112.727 31.3806 112.727 29.1535V4.84663C112.727 2.61952 110.847 0.795498 108.552 0.795498Z" fill="#A6A6A6"/>
<path d="M25.1576 16.8249C25.1334 14.2135 27.3612 12.9431 27.4631 12.8839C26.2013 11.099 24.2457 10.8551 23.5585 10.8357C21.916 10.668 20.3228 11.7893 19.4861 11.7893C18.6328 11.7893 17.3443 10.8519 15.9557 10.8794C14.1688 10.9062 12.497 11.91 11.5802 13.4689C9.68805 16.6474 11.0992 21.3184 12.9121 23.8876C13.8189 25.1459 14.8785 26.5508 16.2655 26.5014C17.6224 26.4471 18.1292 25.662 19.7667 25.662C21.3891 25.662 21.8651 26.5014 23.2796 26.4698C24.7359 26.4471 25.6527 25.2059 26.5278 23.9362C27.5758 22.494 27.9966 21.0737 28.0133 21.0008C27.9791 20.9894 25.1851 19.9548 25.1576 16.8249Z" fill="black"/>
<path d="M22.4855 9.14554C23.2153 8.25996 23.7147 7.05515 23.5761 5.83252C22.5198 5.87789 21.1988 6.54147 20.4381 7.4076C19.765 8.17084 19.1638 9.42183 19.3191 10.5983C20.5057 10.6842 21.724 10.0173 22.4855 9.14554Z" fill="black"/>
<path d="M40.9576 8.90503C40.9576 9.85867 40.6628 10.5765 40.0742 11.0586C39.5289 11.5034 38.754 11.7262 37.7503 11.7262C37.2526 11.7262 36.8268 11.7052 36.4702 11.663V6.45248C36.9353 6.37956 37.4363 6.34229 37.9774 6.34229C38.9335 6.34229 39.6541 6.54403 40.1401 6.94752C40.6845 7.40368 40.9576 8.05592 40.9576 8.90503ZM40.0349 8.92853C40.0349 8.31033 39.8662 7.83634 39.5289 7.50577C39.1915 7.17601 38.6989 7.01072 38.0501 7.01072C37.7745 7.01072 37.5399 7.02855 37.3453 7.06582V11.027C37.453 11.0432 37.6501 11.0505 37.9365 11.0505C38.6062 11.0505 39.1231 10.8698 39.4871 10.5085C39.8512 10.1471 40.0349 9.62046 40.0349 8.92853Z" fill="black"/>
<path d="M45.8499 9.73787C45.8499 10.3253 45.6771 10.8066 45.3314 11.1841C44.969 11.5722 44.4888 11.7659 43.8893 11.7659C43.3115 11.7659 42.8514 11.5803 42.5082 11.2076C42.1658 10.8357 41.9946 10.3666 41.9946 9.80107C41.9946 9.2096 42.1708 8.72428 42.5249 8.34752C42.8789 7.97077 43.3549 7.78198 43.9544 7.78198C44.5322 7.78198 44.9965 7.96752 45.3481 8.33942C45.6821 8.70078 45.8499 9.16747 45.8499 9.73787ZM44.9422 9.76542C44.9422 9.41297 44.8637 9.11075 44.7076 8.85877C44.5239 8.55413 44.2625 8.40181 43.9227 8.40181C43.5711 8.40181 43.3039 8.55413 43.1202 8.85877C42.9632 9.11075 42.8856 9.41783 42.8856 9.78081C42.8856 10.1333 42.9641 10.4355 43.1202 10.6875C43.3098 10.9921 43.5736 11.1444 43.9143 11.1444C44.2483 11.1444 44.5105 10.9897 44.6992 10.6794C44.8612 10.4225 44.9422 10.1179 44.9422 9.76542Z" fill="black"/>
<path d="M52.4097 7.85986L51.1781 11.6793H50.3764L49.8662 10.0207C49.7368 9.60671 49.6316 9.19512 49.5498 8.78676H49.5339C49.4579 9.20646 49.3527 9.61725 49.2174 10.0207L48.6755 11.6793H47.8647L46.7065 7.85986H47.6059L48.0509 9.67558C48.1586 10.105 48.2471 10.5142 48.3181 10.9015H48.334C48.3991 10.5822 48.5068 10.1755 48.6588 9.68369L49.2174 7.86067H49.9305L50.4658 9.64479C50.5952 10.0799 50.7004 10.4988 50.7814 10.9023H50.8056C50.8649 10.5093 50.9543 10.0904 51.0728 9.64479L51.5505 7.86067H52.4097V7.85986Z" fill="black"/>
<path d="M56.9464 11.6792H56.0713V9.49155C56.0713 8.81744 55.8074 8.48039 55.278 8.48039C55.0183 8.48039 54.8087 8.57275 54.6459 8.7583C54.4848 8.94384 54.4029 9.1626 54.4029 9.41296V11.6784H53.5278V8.95113C53.5278 8.6157 53.517 8.2519 53.4961 7.85813H54.2651L54.3061 8.45527H54.3303C54.4321 8.26973 54.5841 8.1166 54.7837 7.99425C55.0208 7.85165 55.2864 7.77954 55.5769 7.77954C55.9444 7.77954 56.25 7.89459 56.493 8.12551C56.7952 8.40828 56.9464 8.83041 56.9464 9.39108V11.6792Z" fill="black"/>
<path d="M59.3596 11.6791H58.4854V6.10718H59.3596V11.6791Z" fill="black"/>
<path d="M64.512 9.73787C64.512 10.3253 64.3392 10.8066 63.9935 11.1841C63.6311 11.5722 63.1501 11.7659 62.5514 11.7659C61.9727 11.7659 61.5126 11.5803 61.1703 11.2076C60.8279 10.8357 60.6567 10.3666 60.6567 9.80107C60.6567 9.2096 60.8329 8.72428 61.187 8.34752C61.541 7.97077 62.017 7.78198 62.6157 7.78198C63.1944 7.78198 63.6578 7.96752 64.0102 8.33942C64.3442 8.70078 64.512 9.16747 64.512 9.73787ZM63.6035 9.76542C63.6035 9.41297 63.525 9.11075 63.3689 8.85877C63.186 8.55413 62.9238 8.40181 62.5848 8.40181C62.2324 8.40181 61.9652 8.55413 61.7823 8.85877C61.6254 9.11075 61.5477 9.41783 61.5477 9.78081C61.5477 10.1333 61.6262 10.4355 61.7823 10.6875C61.9719 10.9921 62.2358 11.1444 62.5764 11.1444C62.9104 11.1444 63.1718 10.9897 63.3605 10.6794C63.5233 10.4225 63.6035 10.1179 63.6035 9.76542Z" fill="black"/>
<path d="M68.7471 11.6792H67.9614L67.8963 11.2392H67.872C67.6032 11.59 67.2199 11.7659 66.7222 11.7659C66.3506 11.7659 66.05 11.65 65.8237 11.4199C65.6183 11.2109 65.5156 10.9508 65.5156 10.6421C65.5156 10.1754 65.716 9.8197 66.1193 9.57339C66.5218 9.32709 67.088 9.20636 67.8169 9.21203V9.14073C67.8169 8.63758 67.5447 8.38641 66.9995 8.38641C66.6112 8.38641 66.2688 8.48121 65.9732 8.66918L65.7954 8.11174C66.1611 7.89217 66.6128 7.78198 67.1456 7.78198C68.1743 7.78198 68.6904 8.30863 68.6904 9.36193V10.7685C68.6904 11.1501 68.7096 11.4539 68.7471 11.6792ZM67.8386 10.3666V9.77757C66.8734 9.76137 66.3907 10.0182 66.3907 10.5473C66.3907 10.7466 66.4458 10.8957 66.5586 10.9953C66.6713 11.095 66.8149 11.1444 66.9861 11.1444C67.1781 11.1444 67.3577 11.0853 67.5213 10.9678C67.6858 10.8495 67.7869 10.6996 67.8244 10.5157C67.8336 10.4744 67.8386 10.4241 67.8386 10.3666Z" fill="black"/>
<path d="M73.7195 11.6791H72.9429L72.902 11.0658H72.8778C72.6298 11.5325 72.2073 11.7658 71.6136 11.7658C71.1393 11.7658 70.7443 11.5851 70.4312 11.2238C70.1181 10.8624 69.9619 10.3933 69.9619 9.81721C69.9619 9.199 70.1314 8.69828 70.4721 8.31586C70.8019 7.95936 71.2061 7.78111 71.6871 7.78111C72.2156 7.78111 72.5855 7.95369 72.796 8.29965H72.8127V6.10718H73.6886V10.6501C73.6886 11.022 73.6986 11.3647 73.7195 11.6791ZM72.8127 10.0684V9.43154C72.8127 9.32135 72.8043 9.23222 72.7884 9.16417C72.7392 8.95999 72.6331 8.78822 72.472 8.64967C72.3091 8.51112 72.1129 8.44144 71.8866 8.44144C71.5601 8.44144 71.3046 8.56703 71.1167 8.81901C70.9305 9.07099 70.8362 9.39265 70.8362 9.78561C70.8362 10.1632 70.9255 10.4694 71.105 10.7052C71.2946 10.9564 71.5501 11.082 71.8699 11.082C72.1572 11.082 72.3868 10.9775 72.5613 10.7676C72.73 10.574 72.8127 10.3406 72.8127 10.0684Z" fill="black"/>
<path d="M81.2039 9.73787C81.2039 10.3253 81.0311 10.8066 80.6854 11.1841C80.323 11.5722 79.8437 11.7659 79.2433 11.7659C78.6663 11.7659 78.2062 11.5803 77.8622 11.2076C77.5198 10.8357 77.3486 10.3666 77.3486 9.80107C77.3486 9.2096 77.5248 8.72428 77.8789 8.34752C78.2329 7.97077 78.7089 7.78198 79.3092 7.78198C79.8862 7.78198 80.3514 7.96752 80.7021 8.33942C81.0361 8.70078 81.2039 9.16747 81.2039 9.73787ZM80.2971 9.76542C80.2971 9.41297 80.2186 9.11075 80.0624 8.85877C79.8779 8.55413 79.6174 8.40181 79.2767 8.40181C78.926 8.40181 78.6588 8.55413 78.4742 8.85877C78.3172 9.11075 78.2396 9.41783 78.2396 9.78081C78.2396 10.1333 78.3181 10.4355 78.4742 10.6875C78.6638 10.9921 78.9276 11.1444 79.2683 11.1444C79.6023 11.1444 79.8654 10.9897 80.0541 10.6794C80.2152 10.4225 80.2971 10.1179 80.2971 9.76542Z" fill="black"/>
<path d="M85.9089 11.6792H85.0347V9.49155C85.0347 8.81744 84.7708 8.48039 84.2406 8.48039C83.9809 8.48039 83.7713 8.57275 83.6093 8.7583C83.4473 8.94384 83.3663 9.1626 83.3663 9.41296V11.6784H82.4904V8.95113C82.4904 8.6157 82.4803 8.2519 82.4595 7.85813H83.2277L83.2686 8.45527H83.2928C83.3955 8.26973 83.5475 8.1166 83.7462 7.99425C83.9842 7.85165 84.2489 7.77954 84.5403 7.77954C84.9069 7.77954 85.2125 7.89459 85.4555 8.12551C85.7586 8.40828 85.9089 8.83041 85.9089 9.39108V11.6792Z" fill="black"/>
<path d="M91.7987 8.49568H90.8351V10.3511C90.8351 10.8227 91.0063 11.0584 91.3453 11.0584C91.5023 11.0584 91.6325 11.0455 91.7352 11.0187L91.7578 11.6629C91.5849 11.7261 91.3578 11.7577 91.0781 11.7577C90.7324 11.7577 90.4635 11.6556 90.2689 11.4514C90.0735 11.2472 89.9767 10.9037 89.9767 10.4216V8.49568H89.4014V7.85965H89.9767V7.15962L90.8342 6.90845V7.85884H91.7979V8.49568H91.7987Z" fill="black"/>
<path d="M96.4313 11.6791H95.5553V9.5077C95.5553 8.82306 95.2915 8.48033 94.7629 8.48033C94.3571 8.48033 94.0799 8.67884 93.9279 9.07585C93.902 9.1593 93.887 9.26139 93.887 9.38131V11.6783H93.0127V6.10718H93.887V8.40903H93.9037C94.1792 7.99015 94.5742 7.78111 95.0861 7.78111C95.4485 7.78111 95.7482 7.89616 95.9862 8.12707C96.2826 8.4147 96.4313 8.84251 96.4313 9.40804V11.6791Z" fill="black"/>
<path d="M101.21 9.58851C101.21 9.74084 101.198 9.86885 101.177 9.97337H98.553C98.5647 10.3509 98.6899 10.6386 98.9329 10.8379C99.155 11.0161 99.4414 11.1053 99.7922 11.1053C100.18 11.1053 100.534 11.0453 100.853 10.9246L100.99 11.5144C100.617 11.6716 100.178 11.7502 99.6694 11.7502C99.0598 11.7502 98.5797 11.576 98.2323 11.2276C97.8833 10.8792 97.7104 10.4117 97.7104 9.8251C97.7104 9.24903 97.8716 8.76937 98.1964 8.38695C98.5354 7.97859 98.9939 7.77441 99.5725 7.77441C100.139 7.77441 100.569 7.97859 100.859 8.38695C101.094 8.71104 101.21 9.1121 101.21 9.58851ZM100.375 9.36894C100.382 9.11696 100.324 8.89982 100.205 8.71671C100.054 8.48093 99.8222 8.36264 99.5091 8.36264C99.2235 8.36264 98.9905 8.47769 98.8127 8.70861C98.6674 8.89253 98.5814 9.1121 98.553 9.36894H100.375Z" fill="black"/>
<path d="M44.7945 26.3208H42.8982L41.8594 23.1537H38.2488L37.2593 26.3208H35.4131L38.9903 15.5383H41.1998L44.7945 26.3208ZM41.5463 21.8249L40.6069 19.0093C40.5075 18.7217 40.3213 18.0444 40.0466 16.9781H40.0132C39.9038 17.4367 39.7276 18.114 39.4855 19.0093L38.5628 21.8249H41.5463Z" fill="black"/>
<path d="M53.9937 22.338C53.9937 23.6602 53.6255 24.7054 52.889 25.4727C52.2293 26.1557 51.4102 26.4969 50.4324 26.4969C49.3769 26.4969 48.6187 26.129 48.157 25.3933H48.1236V29.489H46.3433V21.1056C46.3433 20.2743 46.3208 19.4211 46.2773 18.5461H47.843L47.9424 19.7784H47.9758C48.5695 18.8499 49.4704 18.3865 50.6796 18.3865C51.6248 18.3865 52.4139 18.7486 53.0452 19.4738C53.6781 20.1998 53.9937 21.1542 53.9937 22.338ZM52.1801 22.4012C52.1801 21.6444 52.0047 21.0205 51.6523 20.5295C51.2674 20.0175 50.7505 19.7614 50.1026 19.7614C49.6633 19.7614 49.2642 19.904 48.9076 20.1852C48.5503 20.4688 48.3165 20.839 48.2071 21.2976C48.152 21.5115 48.1244 21.6865 48.1244 21.8243V23.1206C48.1244 23.6862 48.3031 24.1634 48.6605 24.5531C49.0179 24.9428 49.4821 25.1373 50.0533 25.1373C50.7238 25.1373 51.2457 24.8861 51.6189 24.3854C51.993 23.8839 52.1801 23.2227 52.1801 22.4012Z" fill="black"/>
<path d="M63.2097 22.338C63.2097 23.6602 62.8415 24.7054 62.1041 25.4727C61.4453 26.1557 60.6262 26.4969 59.6483 26.4969C58.5929 26.4969 57.8347 26.129 57.3738 25.3933H57.3404V29.489H55.5601V21.1056C55.5601 20.2743 55.5376 19.4211 55.4941 18.5461H57.0598L57.1592 19.7784H57.1926C57.7854 18.8499 58.6864 18.3865 59.8964 18.3865C60.8408 18.3865 61.6298 18.7486 62.2628 19.4738C62.8932 20.1998 63.2097 21.1542 63.2097 22.338ZM61.396 22.4012C61.396 21.6444 61.2199 21.0205 60.8675 20.5295C60.4825 20.0175 59.9673 19.7614 59.3185 19.7614C58.8785 19.7614 58.4802 19.904 58.1228 20.1852C57.7654 20.4688 57.5324 20.839 57.423 21.2976C57.3688 21.5115 57.3404 21.6865 57.3404 21.8243V23.1206C57.3404 23.6862 57.5191 24.1634 57.8748 24.5531C58.2322 24.942 58.6964 25.1373 59.2693 25.1373C59.9398 25.1373 60.4617 24.8861 60.8349 24.3854C61.209 23.8839 61.396 23.2227 61.396 22.4012Z" fill="black"/>
<path d="M73.514 23.2971C73.514 24.2143 73.1859 24.9605 72.527 25.5366C71.8031 26.1661 70.7952 26.4805 69.5001 26.4805C68.3043 26.4805 67.3457 26.2569 66.6201 25.8088L67.0326 24.369C67.8142 24.8276 68.6718 25.0577 69.6061 25.0577C70.2767 25.0577 70.7985 24.9103 71.1735 24.617C71.5467 24.3237 71.7329 23.9299 71.7329 23.4389C71.7329 23.0014 71.5793 22.6327 71.2712 22.3337C70.9647 22.0348 70.4528 21.7569 69.7381 21.5C67.7925 20.7959 66.8205 19.7645 66.8205 18.4082C66.8205 17.5218 67.1612 16.795 67.8434 16.2295C68.5231 15.6631 69.4299 15.3804 70.5639 15.3804C71.5751 15.3804 72.4151 15.5513 73.0857 15.8924L72.6406 17.3006C72.0143 16.97 71.3062 16.8048 70.5138 16.8048C69.8875 16.8048 69.3982 16.9546 69.0475 17.2528C68.7511 17.5194 68.6024 17.8443 68.6024 18.2291C68.6024 18.6553 68.772 19.0078 69.1126 19.2849C69.4091 19.5409 69.9477 19.818 70.7292 20.117C71.6853 20.4905 72.3876 20.9272 72.8393 21.4279C73.2894 21.927 73.514 22.5517 73.514 23.2971Z" fill="black"/>
<path d="M79.3999 19.8423H77.4376V23.6171C77.4376 24.5772 77.7833 25.0569 78.4763 25.0569C78.7945 25.0569 79.0583 25.0301 79.2671 24.9767L79.3164 26.2884C78.9657 26.4156 78.5039 26.4796 77.9319 26.4796C77.2288 26.4796 76.6794 26.2714 76.2827 25.8558C75.8878 25.4393 75.689 24.7409 75.689 23.7597V19.8406H74.52V18.5443H75.689V17.1207L77.4376 16.6086V18.5443H79.3999V19.8423Z" fill="black"/>
<path d="M88.2541 22.3692C88.2541 23.5643 87.9017 24.5455 87.1986 25.3128C86.4613 26.1028 85.4827 26.4965 84.2627 26.4965C83.087 26.4965 82.1509 26.1181 81.4529 25.3614C80.7548 24.6046 80.4058 23.6494 80.4058 22.4981C80.4058 21.2932 80.7648 20.3064 81.4854 19.5391C82.2044 18.771 83.1747 18.387 84.3946 18.387C85.5703 18.387 86.5164 18.7653 87.2303 19.5229C87.9134 20.2578 88.2541 21.2066 88.2541 22.3692ZM86.407 22.4251C86.407 21.7081 86.2492 21.0931 85.9294 20.5802C85.5561 19.9596 85.0226 19.6501 84.3312 19.6501C83.6156 19.6501 83.072 19.9604 82.6987 20.5802C82.3789 21.0939 82.2211 21.7186 82.2211 22.4575C82.2211 23.1746 82.3789 23.7896 82.6987 24.3016C83.0837 24.9223 83.6214 25.2318 84.3153 25.2318C84.995 25.2318 85.5286 24.9158 85.9135 24.2854C86.2417 23.7628 86.407 23.1414 86.407 22.4251Z" fill="black"/>
<path d="M94.0404 20.0653C93.8642 20.0337 93.6763 20.0175 93.4793 20.0175C92.853 20.0175 92.3687 20.2468 92.028 20.7062C91.7316 21.1113 91.583 21.6233 91.583 22.2415V26.321H89.8035L89.8202 20.9946C89.8202 20.0985 89.7977 19.2826 89.7534 18.5469H91.3041L91.3692 20.0345H91.4185C91.6063 19.5232 91.9028 19.1116 92.3086 18.8029C92.7052 18.525 93.1336 18.3865 93.5954 18.3865C93.7598 18.3865 93.9085 18.3978 94.0404 18.4181V20.0653Z" fill="black"/>
<path d="M102.002 22.0657C102.002 22.3752 101.981 22.6361 101.937 22.8491H96.596C96.6169 23.6172 96.8749 24.2047 97.3709 24.6098C97.8209 24.9719 98.403 25.1534 99.1177 25.1534C99.9085 25.1534 100.63 25.0311 101.279 24.7856L101.558 25.9847C100.799 26.3056 99.9043 26.4652 98.8714 26.4652C97.6289 26.4652 96.6536 26.1103 95.9438 25.4014C95.2357 24.6924 94.8809 23.7404 94.8809 22.5461C94.8809 21.3737 95.2107 20.3974 95.8712 19.6188C96.5626 18.7875 97.497 18.3718 98.6727 18.3718C99.8275 18.3718 100.702 18.7875 101.295 19.6188C101.766 20.2791 102.002 21.0958 102.002 22.0657ZM100.304 21.6176C100.316 21.1055 100.2 20.6631 99.9586 20.2896C99.6505 19.8092 99.177 19.5693 98.5399 19.5693C97.9579 19.5693 97.4844 19.8035 97.1229 20.2734C96.8264 20.6469 96.6503 21.095 96.596 21.6168H100.304V21.6176Z" fill="black"/>
</svg>
