<svg width="18" height="17" viewBox="0 0 18 17" fill="none" xmlns="http://www.w3.org/2000/svg">
<path d="M0.646484 8.5502C0.646954 10.5486 1.35581 12.4812 2.64565 14.0008C3.93549 15.5204 5.72173 16.5273 7.6833 16.8405V10.9754H5.56734V8.5502H7.6858V6.70399C7.63903 6.27189 7.68738 5.83472 7.82744 5.42353C7.9675 5.01235 8.19582 4.63724 8.49619 4.32484C8.79656 4.01244 9.16162 3.77043 9.56542 3.61597C9.96922 3.46152 10.4019 3.39843 10.8326 3.43117C11.4582 3.44124 12.0837 3.49746 12.7009 3.599V5.66256H11.6467C11.4675 5.63895 11.2853 5.65615 11.1137 5.7129C10.942 5.76964 10.7852 5.86448 10.6548 5.9904C10.5244 6.11633 10.4239 6.27011 10.3605 6.4404C10.2972 6.61068 10.2727 6.79312 10.2889 6.97421V8.5502H12.6L12.2305 10.9763H10.2889V16.8405C11.8632 16.5902 13.3333 15.8912 14.5251 14.8263C15.7169 13.7614 16.5804 12.3752 17.0135 10.8318C17.4466 9.28841 17.4311 7.65248 16.9689 6.11768C16.5066 4.58289 15.6169 3.21351 14.4052 2.17167C13.1934 1.12983 11.7103 0.459163 10.1315 0.239074C8.55271 0.0189847 6.94427 0.258689 5.49665 0.929807C4.04903 1.60093 2.82285 2.67535 1.96327 4.02588C1.1037 5.37641 0.646737 6.94648 0.646484 8.5502V8.5502Z" fill="black"/>
</svg>
