<svg width="113" height="34" viewBox="0 0 113 34" fill="none" xmlns="http://www.w3.org/2000/svg">
<path d="M108.825 33.2046H4.44754C2.15229 33.2046 0.272461 31.3806 0.272461 29.1535V4.84663C0.272461 2.61952 2.15229 0.795493 4.44754 0.795493H108.825C111.12 0.795493 113 2.61952 113 4.84663V29.1535C113 31.3806 111.12 33.2046 108.825 33.2046Z" fill="white"/>
<path d="M108.825 1.44469C110.758 1.44469 112.331 2.97095 112.331 4.84663V29.1535C112.331 31.0291 110.758 32.5554 108.825 32.5554H4.44754C2.51448 32.5554 0.941518 31.0291 0.941518 29.1535V4.84663C0.941518 2.97095 2.51448 1.44469 4.44754 1.44469H108.825ZM108.825 0.795493H4.44754C2.15229 0.795493 0.272461 2.61952 0.272461 4.84663V29.1535C0.272461 31.3806 2.15229 33.2046 4.44754 33.2046H108.825C111.12 33.2046 113 31.3806 113 29.1535V4.84663C113 2.61952 111.12 0.795493 108.825 0.795493Z" fill="#A6A6A6"/>
<path d="M8.98538 6.90364C8.7401 7.15278 8.59814 7.54068 8.59814 8.04302V25.9612C8.59814 26.4635 8.7401 26.8514 8.98538 27.1006L9.04592 27.1553L19.3939 17.1186V16.8816L9.04592 6.8449L8.98538 6.90364Z" fill="url(#paint0_linear_1114_4229)"/>
<path d="M22.839 20.4658L19.3936 17.1186V16.8816L22.8432 13.5343L22.9205 13.5779L27.0058 15.8333C28.1717 16.4734 28.1717 17.5267 27.0058 18.1709L22.9205 20.4223L22.839 20.4658Z" fill="url(#paint1_linear_1114_4229)"/>
<path d="M22.9207 20.4222L19.3938 17L8.98535 27.1005C9.37259 27.4955 10.0041 27.5431 10.7222 27.1481L22.9207 20.4222Z" fill="url(#paint2_linear_1114_4229)"/>
<path d="M22.9207 13.5778L10.7222 6.8519C10.0041 6.46097 9.37259 6.50857 8.98535 6.90355L19.3938 17L22.9207 13.5778Z" fill="url(#paint3_linear_1114_4229)"/>
<path d="M39.8666 9.09522C39.8666 9.77176 39.6579 10.3136 39.2466 10.7177C38.7738 11.1967 38.158 11.4378 37.4033 11.4378C36.6821 11.4378 36.0662 11.1927 35.5611 10.7096C35.0548 10.2194 34.8022 9.61782 34.8022 8.89773C34.8022 8.17764 35.0548 7.57605 35.5611 7.08991C36.0662 6.60276 36.6821 6.35767 37.4033 6.35767C37.7624 6.35767 38.1047 6.42957 38.4314 6.56326C38.7571 6.69796 39.0222 6.88026 39.2143 7.1051L38.778 7.5325C38.4429 7.14865 37.9868 6.95926 37.4033 6.95926C36.8773 6.95926 36.4211 7.13751 36.0339 7.49705C35.6508 7.8576 35.4588 8.32449 35.4588 8.89773C35.4588 9.47096 35.6508 9.94191 36.0339 10.3025C36.4211 10.6579 36.8773 10.8402 37.4033 10.8402C37.9617 10.8402 38.4314 10.6579 38.802 10.2984C39.0462 10.0604 39.185 9.73226 39.2216 9.31297H37.4033V8.72758H39.829C39.8583 8.85418 39.8666 8.97673 39.8666 9.09522Z" fill="black" stroke="black" stroke-width="0.0893379" stroke-miterlimit="10"/>
<path d="M43.7146 7.06552H41.4361V8.60496H43.4902V9.19034H41.4361V10.7298H43.7146V11.3263H40.791V6.46899H43.7146V7.06552Z" fill="black" stroke="black" stroke-width="0.0893379" stroke-miterlimit="10"/>
<path d="M46.4308 11.3263H45.7858V7.06552H44.3882V6.46899H47.8295V7.06552H46.4308V11.3263Z" fill="black" stroke="black" stroke-width="0.0893379" stroke-miterlimit="10"/>
<path d="M50.3203 11.3263V6.46899H50.9643V11.3263H50.3203Z" fill="black" stroke="black" stroke-width="0.0893379" stroke-miterlimit="10"/>
<path d="M53.8185 11.3263H53.1787V7.06552H51.7759V6.46899H55.2214V7.06552H53.8185V11.3263Z" fill="black" stroke="black" stroke-width="0.0893379" stroke-miterlimit="10"/>
<path d="M61.7367 10.7015C61.243 11.1927 60.6314 11.4378 59.9018 11.4378C59.168 11.4378 58.5564 11.1927 58.0627 10.7015C57.57 10.2113 57.3247 9.60972 57.3247 8.89773C57.3247 8.18574 57.57 7.58415 58.0627 7.09396C58.5564 6.60276 59.168 6.35767 59.9018 6.35767C60.6272 6.35767 61.2388 6.60276 61.7326 7.09801C62.2294 7.59225 62.4747 8.18979 62.4747 8.89773C62.4747 9.60972 62.2294 10.2113 61.7367 10.7015ZM58.5397 10.2944C58.9112 10.6579 59.3632 10.8402 59.9018 10.8402C60.4362 10.8402 60.8923 10.6579 61.2597 10.2944C61.6303 9.93077 61.8181 9.46388 61.8181 8.89773C61.8181 8.33158 61.6303 7.86469 61.2597 7.5011C60.8923 7.13751 60.4362 6.95521 59.9018 6.95521C59.3632 6.95521 58.9112 7.13751 58.5397 7.5011C58.1691 7.86469 57.9812 8.33158 57.9812 8.89773C57.9812 9.46388 58.1691 9.93077 58.5397 10.2944Z" fill="black" stroke="black" stroke-width="0.0893379" stroke-miterlimit="10"/>
<path d="M63.3794 11.3263V6.46899H64.1622L66.5963 10.2467H66.6245L66.5963 9.31289V6.46899H67.2403V11.3263H66.5681L64.0192 7.36227H63.991L64.0192 8.30011V11.3263H63.3794Z" fill="black" stroke="black" stroke-width="0.0893379" stroke-miterlimit="10"/>
<path d="M57.1663 18.42C55.205 18.42 53.6028 19.8682 53.6028 21.8665C53.6028 23.8485 55.205 25.312 57.1663 25.312C59.1317 25.312 60.7339 23.8485 60.7339 21.8665C60.7339 19.8682 59.1317 18.42 57.1663 18.42ZM57.1663 23.9548C56.0901 23.9548 55.1643 23.0929 55.1643 21.8665C55.1643 20.6238 56.0901 19.7771 57.1663 19.7771C58.2424 19.7771 59.1724 20.6238 59.1724 21.8665C59.1724 23.0929 58.2424 23.9548 57.1663 23.9548ZM49.3912 18.42C47.4258 18.42 45.8278 19.8682 45.8278 21.8665C45.8278 23.8485 47.4258 25.312 49.3912 25.312C51.3556 25.312 52.9547 23.8485 52.9547 21.8665C52.9547 19.8682 51.3556 18.42 49.3912 18.42ZM49.3912 23.9548C48.3141 23.9548 47.3851 23.0929 47.3851 21.8665C47.3851 20.6238 48.3141 19.7771 49.3912 19.7771C50.4674 19.7771 51.3932 20.6238 51.3932 21.8665C51.3932 23.0929 50.4674 23.9548 49.3912 23.9548ZM40.1392 19.4763V20.9408H43.7434C43.638 21.7591 43.3561 22.3607 42.924 22.78C42.398 23.2864 41.5786 23.8485 40.1392 23.8485C37.9212 23.8485 36.1844 22.1116 36.1844 19.9594C36.1844 17.8072 37.9212 16.0703 40.1392 16.0703C41.3385 16.0703 42.2111 16.525 42.8551 17.1145L43.9187 16.0825C43.018 15.2479 41.8197 14.6068 40.1392 14.6068C37.0977 14.6068 34.5415 17.0081 34.5415 19.9594C34.5415 22.9106 37.0977 25.312 40.1392 25.312C41.7832 25.312 43.018 24.7894 43.9887 23.809C44.9834 22.8438 45.2934 21.4867 45.2934 20.3908C45.2934 20.0505 45.2642 19.7376 45.212 19.4763H40.1392ZM77.9718 20.6116C77.6785 19.8409 76.7735 18.42 74.9302 18.42C73.1036 18.42 71.5828 19.8166 71.5828 21.8665C71.5828 23.7968 73.088 25.312 75.1056 25.312C76.737 25.312 77.6785 24.3468 78.0657 23.7847L76.8549 23.0018C76.451 23.575 75.9009 23.9548 75.1056 23.9548C74.3154 23.9548 73.7487 23.6034 73.3854 22.9106L78.1356 21.0036L77.9718 20.6116ZM73.1287 21.7591C73.088 20.4303 74.1923 19.7497 74.9834 19.7497C75.6034 19.7497 76.1295 20.0505 76.3049 20.481L73.1287 21.7591ZM69.2678 25.1023H70.8292V14.9745H69.2678V25.1023ZM66.7105 19.1876H66.6583C66.3076 18.7846 65.6386 18.42 64.791 18.42C63.0124 18.42 61.3862 19.9351 61.3862 21.8776C61.3862 23.809 63.0124 25.312 64.791 25.312C65.6386 25.312 66.3076 24.9443 66.6583 24.5291H66.7105V25.0233C66.7105 26.3409 65.9851 27.0489 64.815 27.0489C63.861 27.0489 63.2692 26.3804 63.025 25.8183L61.667 26.3683C62.0584 27.2818 63.0949 28.406 64.815 28.406C66.6458 28.406 68.1906 27.3608 68.1906 24.8177V18.6296H66.7105V19.1876ZM64.9246 23.9548C63.8485 23.9548 62.9477 23.0808 62.9477 21.8776C62.9477 20.6633 63.8485 19.7771 64.9246 19.7771C65.9851 19.7771 66.8212 20.6633 66.8212 21.8776C66.8212 23.0808 65.9851 23.9548 64.9246 23.9548ZM85.2823 14.9745H81.5477V25.1023H83.105V21.2649H85.2823C87.0119 21.2649 88.708 20.0505 88.708 18.1192C88.708 16.1888 87.0077 14.9745 85.2823 14.9745ZM85.323 19.8561H83.105V16.3832H85.323C86.4858 16.3832 87.1496 17.3201 87.1496 18.1192C87.1496 18.9031 86.4858 19.8561 85.323 19.8561ZM94.9497 18.4007C93.8245 18.4007 92.6545 18.8828 92.1733 19.9513L93.5553 20.5134C93.8527 19.9513 94.3997 19.769 94.9779 19.769C95.7858 19.769 96.6052 20.2399 96.6177 21.0714V21.1778C96.3359 21.0198 95.7326 20.7858 94.9904 20.7858C93.502 20.7858 91.9854 21.5809 91.9854 23.0646C91.9854 24.4217 93.2045 25.2957 94.575 25.2957C95.623 25.2957 96.2012 24.837 96.5644 24.3032H96.6177V25.0861H98.1218V21.2011C98.1218 19.4054 96.7398 18.4007 94.9497 18.4007ZM94.7619 23.9508C94.2525 23.9508 93.5427 23.7057 93.5427 23.0929C93.5427 22.309 94.4279 22.0082 95.194 22.0082C95.8797 22.0082 96.2012 22.1551 96.6177 22.3485C96.4956 23.2864 95.6637 23.9508 94.7619 23.9508ZM103.602 18.6225L101.811 23.0129H101.758L99.9076 18.6225H98.2282L101.009 24.758L99.4223 28.1721H101.05L105.334 18.6225H103.602ZM89.5639 25.1023H91.1254V14.9745H89.5639V25.1023Z" fill="black"/>
<defs>
<linearGradient id="paint0_linear_1114_4229" x1="18.4751" y1="26.1478" x2="4.88371" y2="12.1406" gradientUnits="userSpaceOnUse">
<stop stop-color="#00A0FF"/>
<stop offset="0.0066" stop-color="#00A1FF"/>
<stop offset="0.2601" stop-color="#00BEFF"/>
<stop offset="0.5122" stop-color="#00D2FF"/>
<stop offset="0.7604" stop-color="#00DFFF"/>
<stop offset="1" stop-color="#00E3FF"/>
</linearGradient>
<linearGradient id="paint1_linear_1114_4229" x1="28.524" y1="16.9989" x2="8.31915" y2="16.9989" gradientUnits="userSpaceOnUse">
<stop stop-color="#FFE000"/>
<stop offset="0.4087" stop-color="#FFBD00"/>
<stop offset="0.7754" stop-color="#FFA500"/>
<stop offset="1" stop-color="#FF9C00"/>
</linearGradient>
<linearGradient id="paint2_linear_1114_4229" x1="21.0029" y1="15.1397" x2="2.57189" y2="-3.85527" gradientUnits="userSpaceOnUse">
<stop stop-color="#FF3A44"/>
<stop offset="1" stop-color="#C31162"/>
</linearGradient>
<linearGradient id="paint3_linear_1114_4229" x1="6.36532" y1="33.0618" x2="14.5956" y2="24.5798" gradientUnits="userSpaceOnUse">
<stop stop-color="#32A071"/>
<stop offset="0.0685" stop-color="#2DA771"/>
<stop offset="0.4762" stop-color="#15CF74"/>
<stop offset="0.8009" stop-color="#06E775"/>
<stop offset="1" stop-color="#00F076"/>
</linearGradient>
</defs>
</svg>
