<svg width="133" height="120" viewBox="0 0 133 120" fill="none" xmlns="http://www.w3.org/2000/svg">
<path opacity="0.07" d="M44.6991 18.2914C44.3334 18.5005 44.0026 19.006 43.9503 19.4592L35.8185 86.7944C35.7488 87.3696 36.0971 87.6311 36.5672 87.3696L80.8135 61.7986C81.2662 61.5372 81.6319 60.8574 81.5623 60.3693L73.413 2.44677C73.3608 2.04586 73.0473 1.92385 72.6642 2.13302L44.6991 18.2914Z" fill="url(#paint0_linear_1114_4159)"/>
<path opacity="0.4" d="M56.1393 19.2501C56.1393 12.1732 60.2836 4.03299 65.3856 1.06976C70.4876 -1.87605 74.6318 1.47067 74.6318 8.54757L72.6293 9.698V9.68057C72.6293 4.12015 69.3731 1.4881 65.3682 3.80639C61.3632 6.12469 58.107 12.5218 58.107 18.0822V18.0996L56.1393 19.2501Z" fill="url(#paint1_linear_1114_4159)"/>
<path opacity="0.4" d="M50.6542 23.172C50.7065 22.7188 51.0199 22.2133 51.403 22.0041L79.3856 5.82833C79.7513 5.61916 80.0821 5.74118 80.1343 6.14209L88.2836 64.0646C88.3532 64.5527 88.005 65.2325 87.5348 65.4939L43.2712 91.0649C42.8184 91.3263 42.4528 91.0649 42.5224 90.4897L50.6542 23.172Z" fill="url(#paint2_linear_1114_4159)"/>
<path opacity="0.3" d="M75.6591 32.0269L127.48 2.08081L127.463 29.116L80.2213 56.4126L75.6417 63.1932L75.6591 32.0269Z" fill="url(#paint3_linear_1114_4159)"/>
<path d="M133 12.6264V5.28809L113.445 16.5832V23.9216L133 12.6264Z" fill="#F2994A"/>
<path opacity="0.15" d="M88.9803 30.9112L100.333 24.3572V26.7278L88.9803 33.2817V30.9112Z" fill="white"/>
<path opacity="0.15" d="M88.9801 35.6525L110.868 23.0151V25.3857L88.9801 38.0405V35.6525Z" fill="white"/>
<path opacity="0.15" d="M88.9801 40.411L115.5 25.0894V27.4599L88.9801 42.7816V40.411Z" fill="white"/>
<path d="M86.1943 34.99C86.1943 37.2211 84.871 39.7834 83.2516 40.7247C81.6322 41.666 80.3088 40.6201 80.3088 38.389C80.3088 36.1578 81.6322 33.5955 83.2516 32.6542C84.871 31.713 86.1943 32.7588 86.1943 34.99Z" fill="#F2994A"/>
<path opacity="0.3" d="M69.6167 63.0361L17.8132 92.9648L17.7958 120L65.0371 92.7033L69.5993 94.2024L69.6167 63.0361Z" fill="url(#paint4_linear_1114_4159)"/>
<path d="M32.8755 97.741V90.4026L13.3208 101.698V109.036L32.8755 97.741Z" fill="#F2C94C"/>
<path opacity="0.15" d="M56.2959 77.312L44.9427 83.866V86.2366L56.2959 79.6826V77.312Z" fill="white"/>
<path opacity="0.15" d="M56.2959 82.0706L35.8008 93.9061V96.2766L56.2959 84.4411V82.0706Z" fill="white"/>
<path opacity="0.15" d="M56.2959 86.8118L29.776 102.133V104.504L56.2959 89.1823V86.8118Z" fill="white"/>
<path d="M59.0998 78.1661C59.0998 80.3972 60.4232 81.4431 62.0426 80.5018C63.662 79.5605 64.9854 76.9982 64.9854 74.7671C64.9854 72.5359 63.662 71.4901 62.0426 72.4313C60.4057 73.3726 59.0998 75.9524 59.0998 78.1661Z" fill="#F2C94C"/>
<path opacity="0.2" d="M123.945 55.9592L88.4577 76.4578V57.7371L123.945 37.2385V55.9592Z" fill="url(#paint5_linear_1114_4159)"/>
<path d="M95.6841 59.3757C95.6841 57.8244 94.7786 57.1097 93.6642 57.7372C92.5498 58.3822 91.6443 60.1601 91.6443 61.694C91.6443 63.2453 92.5498 63.96 93.6642 63.3325C94.7786 62.6876 95.6841 60.927 95.6841 59.3757Z" fill="#F2994A"/>
<path opacity="0.15" d="M97.4952 64.3434L120.306 51.1658V48.7952L97.4952 61.9728V64.3434Z" fill="white"/>
<path opacity="0.15" d="M97.5648 59.4803L107.943 53.4841V51.1135L97.5648 57.1097V59.4803Z" fill="white"/>
<path opacity="0.2" d="M0.0176315 80.9202L35.4878 60.4216V79.1423L0.000221252 99.6409L0.0176315 80.9202Z" fill="url(#paint6_linear_1114_4159)"/>
<path opacity="0.15" d="M26.4678 70.27L17.7613 75.3075V77.6781L26.4678 72.6406V70.27Z" fill="white"/>
<path opacity="0.15" d="M26.3979 74.959L7.67904 85.7835V88.1541L26.3979 77.3296V74.959Z" fill="white"/>
<path d="M28.2786 70.6012C28.2786 72.1526 29.184 72.8672 30.2985 72.2397C31.4129 71.5948 32.3184 69.8169 32.3184 68.2829C32.3184 66.7316 31.4129 66.0169 30.2985 66.6444C29.184 67.272 28.2786 69.0499 28.2786 70.6012Z" fill="#F2C94C"/>
<path opacity="0.2" d="M90.5647 102.255C102.336 87.1255 93.8209 81.6871 90.5647 90.542C87.291 85.4696 78.7761 100.739 90.5647 102.255Z" fill="url(#paint7_linear_1114_4159)"/>
<path opacity="0.2" d="M24.9006 31.8524C23.8558 32.4451 23.02 33.9093 23.02 35.112V40.4284L19.5026 42.4504C18.4578 43.043 17.622 44.5072 17.622 45.7273C17.622 46.9301 18.4578 47.4181 19.5026 46.8255L23.02 44.8035V50.1199C23.02 51.3226 23.8558 51.8107 24.9006 51.218C25.9454 50.6254 26.7812 49.1612 26.7812 47.941V42.6247L30.2986 40.5853C31.3434 39.9926 32.1792 38.5284 32.1792 37.3257C32.1792 36.123 31.3434 35.6349 30.2986 36.2276L26.7812 38.2495V32.9331C26.7812 31.7304 25.9454 31.2424 24.9006 31.8524Z" fill="url(#paint8_linear_1114_4159)"/>
<defs>
<linearGradient id="paint0_linear_1114_4159" x1="33.9655" y1="36.3353" x2="79.8631" y2="55.0021" gradientUnits="userSpaceOnUse">
<stop stop-color="white"/>
<stop offset="1" stop-color="#00AFEF"/>
</linearGradient>
<linearGradient id="paint1_linear_1114_4159" x1="60.9763" y1="7.37416" x2="90.7263" y2="34.3032" gradientUnits="userSpaceOnUse">
<stop stop-color="white"/>
<stop offset="1" stop-color="#00AFEF"/>
</linearGradient>
<linearGradient id="paint2_linear_1114_4159" x1="40.7199" y1="29.7525" x2="70.4698" y2="56.6815" gradientUnits="userSpaceOnUse">
<stop stop-color="white"/>
<stop offset="1" stop-color="#03BCFF"/>
</linearGradient>
<linearGradient id="paint3_linear_1114_4159" x1="86.9621" y1="21.1948" x2="113.738" y2="42.1381" gradientUnits="userSpaceOnUse">
<stop stop-color="white"/>
<stop offset="1" stop-color="#00AFEF"/>
</linearGradient>
<linearGradient id="paint4_linear_1114_4159" x1="47.3614" y1="63.9071" x2="40.6489" y2="118.295" gradientUnits="userSpaceOnUse">
<stop stop-color="white"/>
<stop offset="1" stop-color="#00AFEF"/>
</linearGradient>
<linearGradient id="paint5_linear_1114_4159" x1="110.251" y1="63.8715" x2="102.139" y2="49.832" gradientUnits="userSpaceOnUse">
<stop stop-color="white"/>
<stop offset="1" stop-color="#00AFEF"/>
</linearGradient>
<linearGradient id="paint6_linear_1114_4159" x1="13.6968" y1="73.0123" x2="21.8062" y2="87.0474" gradientUnits="userSpaceOnUse">
<stop stop-color="white"/>
<stop offset="1" stop-color="#00AFEF"/>
</linearGradient>
<linearGradient id="paint7_linear_1114_4159" x1="88.0852" y1="91.115" x2="96.771" y2="98.6276" gradientUnits="userSpaceOnUse">
<stop stop-color="white"/>
<stop offset="1" stop-color="#00AFEF"/>
</linearGradient>
<linearGradient id="paint8_linear_1114_4159" x1="21.257" y1="38.6488" x2="30.3811" y2="45.8421" gradientUnits="userSpaceOnUse">
<stop stop-color="white"/>
<stop offset="1" stop-color="#00AFEF"/>
</linearGradient>
</defs>
</svg>
