<svg width="18" height="17" viewBox="0 0 18 17" fill="none" xmlns="http://www.w3.org/2000/svg">
<path d="M8.77178 5.71866C7.2403 5.71866 5.9905 6.96846 5.9905 8.49994C5.9905 10.0314 7.2403 11.2812 8.77178 11.2812C10.3033 11.2812 11.5531 10.0314 11.5531 8.49994C11.5531 6.96846 10.3033 5.71866 8.77178 5.71866ZM17.1135 8.49994C17.1135 7.3482 17.1239 6.2069 17.0593 5.05725C16.9946 3.72191 16.69 2.53679 15.7135 1.56031C14.7349 0.581757 13.5519 0.279218 12.2166 0.214537C11.0648 0.149856 9.92351 0.160289 8.77386 0.160289C7.62213 0.160289 6.48083 0.149856 5.33118 0.214537C3.99583 0.279218 2.81071 0.583843 1.83424 1.56031C0.855683 2.53887 0.553144 3.72191 0.488463 5.05725C0.423782 6.20899 0.434214 7.35029 0.434214 8.49994C0.434214 9.64959 0.423782 10.793 0.488463 11.9426C0.553144 13.278 0.857769 14.4631 1.83424 15.4396C2.8128 16.4181 3.99583 16.7207 5.33118 16.7853C6.48291 16.85 7.62421 16.8396 8.77386 16.8396C9.9256 16.8396 11.0669 16.85 12.2166 16.7853C13.5519 16.7207 14.737 16.416 15.7135 15.4396C16.692 14.461 16.9946 13.278 17.0593 11.9426C17.126 10.793 17.1135 9.65168 17.1135 8.49994ZM8.77178 12.7793C6.40363 12.7793 4.49241 10.8681 4.49241 8.49994C4.49241 6.13179 6.40363 4.22057 8.77178 4.22057C11.1399 4.22057 13.0511 6.13179 13.0511 8.49994C13.0511 10.8681 11.1399 12.7793 8.77178 12.7793ZM13.2264 5.04473C12.6735 5.04473 12.227 4.59823 12.227 4.04531C12.227 3.49239 12.6735 3.04589 13.2264 3.04589C13.7793 3.04589 14.2258 3.49239 14.2258 4.04531C14.226 4.1766 14.2003 4.30664 14.1501 4.42797C14.0999 4.5493 14.0263 4.65954 13.9335 4.75238C13.8406 4.84521 13.7304 4.91882 13.6091 4.96899C13.4877 5.01916 13.3577 5.0449 13.2264 5.04473Z" fill="black"/>
</svg>
