<svg width="16" height="17" viewBox="0 0 16 17" fill="none" xmlns="http://www.w3.org/2000/svg">
<path fill-rule="evenodd" clip-rule="evenodd" d="M0.447754 2.13221C0.447754 1.79341 0.582345 1.46847 0.821918 1.2289C1.06149 0.989329 1.38642 0.854738 1.72523 0.854738H14.4597C14.6276 0.854464 14.7939 0.887309 14.9491 0.951394C15.1043 1.01548 15.2453 1.10954 15.3641 1.22821C15.4829 1.34687 15.5771 1.48779 15.6413 1.64292C15.7056 1.79804 15.7386 1.96431 15.7385 2.13221V14.8667C15.7387 15.0346 15.7058 15.2009 15.6416 15.3561C15.5775 15.5113 15.4833 15.6523 15.3646 15.7711C15.2459 15.8899 15.1049 15.9841 14.9498 16.0483C14.7946 16.1126 14.6283 16.1456 14.4604 16.1455H1.72523C1.55741 16.1455 1.39124 16.1125 1.2362 16.0482C1.08116 15.984 0.940306 15.8898 0.821672 15.7711C0.703038 15.6524 0.608955 15.5115 0.544797 15.3564C0.480638 15.2014 0.447663 15.0352 0.447754 14.8673V2.13221ZM6.50012 6.6847H8.57063V7.72447C8.8695 7.12674 9.63404 6.58878 10.7829 6.58878C12.9855 6.58878 13.5075 7.77938 13.5075 9.96387V14.0104H11.2785V10.4615C11.2785 9.2174 10.9796 8.51542 10.2206 8.51542C9.16767 8.51542 8.7298 9.27231 8.7298 10.4615V14.0104H6.50012V6.6847ZM2.67743 13.9151H4.9071V6.58878H2.67743V13.9145V13.9151ZM5.22612 4.19925C5.23033 4.39016 5.19636 4.57998 5.1262 4.75758C5.05605 4.93518 4.95113 5.09698 4.8176 5.23348C4.68407 5.36999 4.52462 5.47844 4.34861 5.55249C4.1726 5.62653 3.98357 5.66467 3.79261 5.66467C3.60166 5.66467 3.41263 5.62653 3.23662 5.55249C3.0606 5.47844 2.90115 5.36999 2.76762 5.23348C2.63409 5.09698 2.52917 4.93518 2.45902 4.75758C2.38887 4.57998 2.3549 4.39016 2.3591 4.19925C2.36735 3.82452 2.52201 3.46793 2.78994 3.20582C3.05788 2.94372 3.4178 2.79696 3.79261 2.79696C4.16743 2.79696 4.52734 2.94372 4.79528 3.20582C5.06322 3.46793 5.21787 3.82452 5.22612 4.19925Z" fill="black"/>
</svg>
