<svg width="75" height="20" viewBox="0 0 75 20" fill="none" xmlns="http://www.w3.org/2000/svg">
<path d="M70.6573 10.8037C70.6573 9.82226 70.3145 8.97568 69.6291 8.27148C68.9435 7.56722 68.0981 7.2151 67.0927 7.2151C66.0949 7.2151 65.2495 7.56722 64.5639 8.27148C63.8785 8.97568 63.5357 9.82226 63.5357 10.8037C63.5357 11.7776 63.8785 12.6167 64.5715 13.3209C65.2647 14.0177 66.1025 14.3698 67.0927 14.3698H70.6573V10.8037ZM15.1393 15.2688C14.53 14.6695 13.7987 14.3698 12.9457 14.3698H11.6509C10.6607 14.3698 9.81519 14.0177 9.12211 13.3209C8.4214 12.6167 8.07862 11.7776 8.07862 10.8037V7.2076H15.185C15.185 6.09881 14.8879 5.23725 14.2786 4.64539C13.6693 4.04604 12.9457 3.74637 12.085 3.74637H10.5617H8.49755H8.07862V3.70142C8.07862 2.82487 7.75872 2.07568 7.11891 1.44637C6.47911 0.817052 5.57273 0.502394 4.40737 0.502394V3.74637H0.766602C0.766602 4.86266 1.07127 5.71673 1.67298 6.31608C2.28232 6.91542 3.01352 7.2076 3.8666 7.2076H4.40737V10.8037C4.40737 12.7516 5.11573 14.4073 6.53243 15.7783C7.95675 17.1493 9.6629 17.831 11.6509 17.831H16.0457C16.0457 16.7147 15.741 15.8607 15.1393 15.2688ZM27.1431 6.31608C26.5338 6.91542 25.8027 7.2151 24.9496 7.2151H23.6547C22.6646 7.2151 21.8191 7.55973 21.126 8.26399C20.4252 8.96819 20.0825 9.79979 20.0825 10.7737V14.632C20.0825 15.5086 19.7626 16.2578 19.1228 16.8871C18.483 17.5164 17.5766 17.831 16.4112 17.831V10.7737C16.4112 8.83337 17.1196 7.17015 18.5364 5.79914C19.9607 4.43562 21.6667 3.74637 23.6547 3.74637H28.0496C28.0496 4.86266 27.7449 5.71673 27.1431 6.31608ZM40.1144 20.206C39.4746 19.5766 39.1547 18.82 39.1547 17.951V17.831H35.5901C33.6021 17.831 31.896 17.1493 30.4717 15.7858C29.0473 14.4222 28.339 12.7665 28.339 10.8037V3.74637C29.5044 3.74637 30.4107 4.06102 31.0505 4.69035C31.6903 5.31966 32.0102 6.07633 32.0102 6.94539V10.8037C32.0102 11.7776 32.3606 12.6167 33.0537 13.3209C33.7544 14.0177 34.5999 14.3698 35.5901 14.3698H39.1547V6.94539C39.1547 6.07633 39.4746 5.31966 40.1144 4.69035C40.7542 4.06102 41.6606 3.74637 42.8259 3.74637V21.15C41.6606 21.15 40.7618 20.8353 40.1144 20.206ZM51.4252 7.2151H47.8605V10.7737C47.8605 11.7552 48.2033 12.6018 48.8964 13.3134C49.5819 14.0177 50.4274 14.3698 51.4252 14.3698C52.4306 14.3698 53.276 14.0177 53.9616 13.3134C54.647 12.6018 54.9898 11.7552 54.9898 10.7737C54.9898 9.79979 54.647 8.96819 53.9539 8.26399C53.2608 7.55973 52.4153 7.2151 51.4252 7.2151ZM51.4328 17.831C49.4448 17.831 47.7463 17.1418 46.322 15.7633C44.8977 14.3848 44.1893 12.7216 44.1893 10.7737V0.449951C45.3623 0.449951 46.2611 0.764609 46.9009 1.39392C47.5406 2.02324 47.8605 2.77243 47.8605 3.64898V3.74637H51.4328C53.4208 3.74637 55.1269 4.42813 56.5588 5.79164C57.9831 7.15516 58.6991 8.81839 58.6991 10.7737C58.6991 12.7216 57.9831 14.3848 56.5588 15.7633C55.1269 17.1418 53.4208 17.831 51.4328 17.831ZM67.1003 17.831C65.1123 17.831 63.4138 17.1493 61.9895 15.7783C60.5728 14.4073 59.8568 12.7516 59.8568 10.8037C59.8568 8.86333 60.5728 7.20011 61.9895 5.82161C63.4138 4.43562 65.1123 3.74637 67.1003 3.74637C69.0883 3.74637 70.802 4.43562 72.2263 5.82161C73.6507 7.20011 74.3666 8.86333 74.3666 10.8037V17.831H67.1003Z" fill="#00AFEF"/>
</svg>
