<svg width="96" height="26" viewBox="0 0 96 26" fill="none" xmlns="http://www.w3.org/2000/svg">
<path d="M91.1617 14.0049C91.1617 12.7247 90.7147 11.6205 89.8206 10.702C88.9264 9.78339 87.8237 9.32411 86.5123 9.32411C85.2109 9.32411 84.1081 9.78339 83.2139 10.702C82.3198 11.6205 81.8728 12.7247 81.8728 14.0049C81.8728 15.2752 82.3198 16.3697 83.2238 17.2882C84.128 18.1971 85.2208 18.6563 86.5123 18.6563H91.1617V14.0049ZM18.747 19.829C17.9522 19.0472 16.9984 18.6563 15.8857 18.6563H14.1969C12.9053 18.6563 11.8025 18.1971 10.8985 17.2882C9.98452 16.3697 9.53742 15.2752 9.53742 14.0049V9.31433H18.8066C18.8066 7.86808 18.4191 6.7443 17.6244 5.97231C16.8296 5.19056 15.8857 4.79967 14.7631 4.79967H12.7762H10.0838H9.53742V4.74105C9.53742 3.59772 9.12016 2.62052 8.28562 1.79967C7.4511 0.978827 6.26887 0.568404 4.74883 0.568404V4.79967H0C0 6.2557 0.397392 7.36971 1.18224 8.15147C1.97703 8.93322 2.93077 9.31433 4.04347 9.31433H4.74883V14.0049C4.74883 16.5456 5.67278 18.7052 7.52065 20.4935C9.37845 22.2818 11.6039 23.171 14.1969 23.171H19.9292C19.9292 21.7149 19.5318 20.6009 18.747 19.829ZM34.4042 8.15147C33.6094 8.93322 32.6557 9.32411 31.543 9.32411H29.8541C28.5626 9.32411 27.4598 9.77362 26.5558 10.6922C25.6417 11.6107 25.1947 12.6954 25.1947 13.9658V18.9984C25.1947 20.1417 24.7774 21.1189 23.9429 21.9397C23.1083 22.7606 21.9261 23.171 20.4061 23.171V13.9658C20.4061 11.4349 21.3301 9.26547 23.1779 7.4772C25.0358 5.6987 27.2611 4.79967 29.8541 4.79967H35.5865C35.5865 6.2557 35.1891 7.36971 34.4042 8.15147ZM51.3232 26.2688C50.4887 25.4478 50.0714 24.4609 50.0714 23.3274V23.171H45.4219C42.829 23.171 40.6036 22.2818 38.7457 20.5032C36.8879 18.7247 35.964 16.5651 35.964 14.0049V4.79967C37.4841 4.79967 38.6663 5.21009 39.5008 6.03095C40.3353 6.85179 40.7525 7.83876 40.7525 8.97231V14.0049C40.7525 15.2752 41.2096 16.3697 42.1136 17.2882C43.0276 18.1971 44.1304 18.6563 45.4219 18.6563H50.0714V8.97231C50.0714 7.83876 50.4887 6.85179 51.3232 6.03095C52.1578 5.21009 53.34 4.79967 54.86 4.79967V27.5C53.34 27.5 52.1677 27.0896 51.3232 26.2688ZM66.0764 9.32411H61.4269V13.9658C61.4269 15.2459 61.874 16.3502 62.778 17.2785C63.6721 18.1971 64.7749 18.6563 66.0764 18.6563C67.3878 18.6563 68.4905 18.1971 69.3847 17.2785C70.2788 16.3502 70.7259 15.2459 70.7259 13.9658C70.7259 12.6954 70.2788 11.6107 69.3747 10.6922C68.4707 9.77362 67.3679 9.32411 66.0764 9.32411ZM66.0863 23.171C63.4934 23.171 61.2779 22.272 59.4201 20.4739C57.5623 18.6759 56.6384 16.5065 56.6384 13.9658V0.5C58.1683 0.5 59.3406 0.910423 60.1751 1.73127C61.0096 2.55211 61.4269 3.52932 61.4269 4.67264V4.79967H66.0863C68.6793 4.79967 70.9047 5.68892 72.7725 7.46742C74.6302 9.24592 75.5641 11.4154 75.5641 13.9658C75.5641 16.5065 74.6302 18.6759 72.7725 20.4739C70.9047 22.272 68.6793 23.171 66.0863 23.171ZM86.5222 23.171C83.9292 23.171 81.7137 22.2818 79.8559 20.4935C78.008 18.7052 77.0742 16.5456 77.0742 14.0049C77.0742 11.474 78.008 9.30456 79.8559 7.50651C81.7137 5.6987 83.9292 4.79967 86.5222 4.79967C89.1152 4.79967 91.3505 5.6987 93.2084 7.50651C95.0662 9.30456 96 11.474 96 14.0049V23.171H86.5222Z" fill="white"/>
</svg>
