<svg width="18" height="17" viewBox="0 0 18 17" fill="none" xmlns="http://www.w3.org/2000/svg">
<path d="M8.88046 0.159668C4.27461 0.159668 0.540039 3.89424 0.540039 8.50009C0.540039 13.1059 4.27461 16.8405 8.88046 16.8405C13.4863 16.8405 17.2209 13.1059 17.2209 8.50009C17.2209 3.89424 13.4863 0.159668 8.88046 0.159668ZM12.8887 6.44664C12.8943 6.53414 12.8943 6.62536 12.8943 6.71472C12.8943 9.4477 10.8129 12.5958 7.00945 12.5958C5.83658 12.5958 4.74935 12.2551 3.83339 11.6687C4.00094 11.6873 4.16105 11.6948 4.33233 11.6948C5.30041 11.6948 6.19031 11.3671 6.89961 10.8123C5.9911 10.7937 5.2278 10.198 4.96717 9.37882C5.28552 9.42536 5.57222 9.42536 5.89988 9.34158C5.43208 9.24654 5.01161 8.99248 4.70991 8.62256C4.4082 8.25264 4.24387 7.78968 4.24483 7.31233V7.28626C4.5185 7.44078 4.84057 7.53573 5.17754 7.54876C4.89427 7.35998 4.66196 7.10421 4.5012 6.80414C4.34045 6.50407 4.25623 6.16897 4.256 5.82855C4.256 5.44318 4.35653 5.09132 4.53711 4.786C5.05635 5.42519 5.70427 5.94796 6.43878 6.32035C7.17328 6.69273 7.97793 6.90639 8.80041 6.94743C8.50812 5.54185 9.55812 4.40435 10.8204 4.40435C11.4161 4.40435 11.9523 4.65382 12.3302 5.05594C12.7975 4.96844 13.2443 4.79344 13.6427 4.55887C13.4882 5.03733 13.1642 5.44132 12.7342 5.69637C13.1512 5.65169 13.5533 5.53626 13.9257 5.3743C13.6446 5.78759 13.2927 6.15435 12.8887 6.44664Z" fill="black"/>
</svg>
