<svg width="181" height="53" viewBox="0 0 181 53" fill="none" xmlns="http://www.w3.org/2000/svg">
<path d="M179.5 46.7814C179.5 49.5526 177.209 51.7973 174.374 51.7973H6.63243C3.7995 51.7973 1.5 49.5526 1.5 46.7814V6.78189C1.5 4.01206 3.7995 1.75952 6.63243 1.75952H174.373C177.209 1.75952 179.499 4.01206 179.499 6.78189L179.5 46.7814Z" fill="black"/>
<path d="M173.833 1.81995C176.92 1.81995 179.432 4.26882 179.432 7.27832V46.2783C179.432 49.2878 176.92 51.7367 173.833 51.7367H7.16667C4.08 51.7367 1.56833 49.2878 1.56833 46.2783V7.27832C1.56833 4.26882 4.08 1.81995 7.16667 1.81995H173.833ZM173.833 0.778323H7.16667C3.50167 0.778323 0.5 3.70495 0.5 7.27832V46.2783C0.5 49.8517 3.50167 52.7783 7.16667 52.7783H173.833C177.498 52.7783 180.5 49.8517 180.5 46.2783V7.27832C180.5 3.70495 177.498 0.778323 173.833 0.778323Z" fill="#A6A6A6"/>
<path d="M40.6707 26.4974C40.632 22.3075 44.1894 20.2691 44.352 20.1742C42.3374 17.3103 39.2147 16.9191 38.1174 16.8879C35.4947 16.6188 32.9507 18.418 31.6147 18.418C30.252 18.418 28.1947 16.9139 25.9774 16.9581C23.124 17.001 20.4547 18.6116 18.9907 21.1128C15.9694 26.2127 18.2227 33.7072 21.1174 37.8295C22.5654 39.8484 24.2574 42.1026 26.472 42.0233C28.6387 41.9362 29.448 40.6765 32.0627 40.6765C34.6534 40.6765 35.4134 42.0233 37.672 41.9726C39.9974 41.9362 41.4614 39.9446 42.8587 37.9075C44.532 35.5935 45.204 33.3146 45.2307 33.1976C45.176 33.1794 40.7147 31.5193 40.6707 26.4974Z" fill="white"/>
<path d="M36.404 14.1761C37.5694 12.7552 38.3667 10.8221 38.1454 8.86035C36.4587 8.93315 34.3494 9.99785 33.1347 11.3876C32.06 12.6122 31.1 14.6194 31.348 16.507C33.2427 16.6448 35.188 15.5749 36.404 14.1761Z" fill="white"/>
<path d="M65.9 13.7899C65.9 15.32 65.4293 16.4718 64.4893 17.2453C63.6186 17.959 62.3813 18.3165 60.7786 18.3165C59.984 18.3165 59.304 18.2827 58.7346 18.2151V9.85478C59.4773 9.73778 60.2773 9.67798 61.1413 9.67798C62.668 9.67798 63.8186 10.0017 64.5946 10.6491C65.464 11.381 65.9 12.4275 65.9 13.7899ZM64.4266 13.8276C64.4266 12.8357 64.1573 12.0752 63.6186 11.5448C63.08 11.0157 62.2933 10.7505 61.2573 10.7505C60.8173 10.7505 60.4426 10.7791 60.132 10.8389V17.1946C60.304 17.2206 60.6186 17.2323 61.076 17.2323C62.1453 17.2323 62.9706 16.9424 63.552 16.3626C64.1333 15.7828 64.4266 14.9378 64.4266 13.8276Z" fill="white"/>
<path d="M73.7119 15.1262C73.7119 16.0687 73.4359 16.8409 72.8839 17.4467C72.3052 18.0694 71.5386 18.3801 70.5812 18.3801C69.6586 18.3801 68.9239 18.0824 68.3759 17.4844C67.8292 16.8877 67.5559 16.135 67.5559 15.2276C67.5559 14.2786 67.8372 13.4999 68.4026 12.8954C68.9679 12.2909 69.7279 11.988 70.6852 11.988C71.6079 11.988 72.3492 12.2857 72.9106 12.8824C73.4439 13.4622 73.7119 14.211 73.7119 15.1262ZM72.2626 15.1704C72.2626 14.6049 72.1372 14.12 71.8879 13.7157C71.5946 13.2269 71.1772 12.9825 70.6346 12.9825C70.0732 12.9825 69.6466 13.2269 69.3532 13.7157C69.1026 14.12 68.9786 14.6127 68.9786 15.1951C68.9786 15.7606 69.1039 16.2455 69.3532 16.6498C69.6559 17.1386 70.0772 17.383 70.6212 17.383C71.1546 17.383 71.5732 17.1347 71.8746 16.6368C72.1332 16.2247 72.2626 15.7359 72.2626 15.1704Z" fill="white"/>
<path d="M84.1867 12.113L82.2201 18.2412H80.9401L80.1254 15.5801C79.9187 14.9158 79.7507 14.2554 79.6201 13.6002H79.5947C79.4734 14.2736 79.3054 14.9327 79.0894 15.5801L78.2241 18.2412H76.9294L75.0801 12.113H76.5161L77.2267 15.0263C77.3987 15.7153 77.5401 16.3718 77.6534 16.9932H77.6787C77.7827 16.481 77.9547 15.8284 78.1974 15.0393L79.0894 12.1143H80.2281L81.0827 14.9769C81.2894 15.675 81.4574 16.3471 81.5867 16.9945H81.6254C81.7201 16.364 81.8627 15.6919 82.0521 14.9769L82.8147 12.1143H84.1867V12.113Z" fill="white"/>
<path d="M91.4307 18.241H90.0334V14.731C90.0334 13.6494 89.612 13.1086 88.7667 13.1086C88.352 13.1086 88.0174 13.2568 87.7574 13.5545C87.5 13.8522 87.3694 14.2032 87.3694 14.6049V18.2397H85.972V13.8639C85.972 13.3257 85.9547 12.742 85.9214 12.1102H87.1494L87.2147 13.0683H87.2534C87.4161 12.7706 87.6587 12.5249 87.9774 12.3286C88.356 12.0998 88.78 11.9841 89.244 11.9841C89.8307 11.9841 90.3187 12.1687 90.7067 12.5392C91.1894 12.9929 91.4307 13.6702 91.4307 14.5698V18.241V18.241Z" fill="white"/>
<path d="M95.2839 18.2411H93.8879V9.30103H95.2839V18.2411Z" fill="white"/>
<path d="M103.511 15.1262C103.511 16.0687 103.235 16.8409 102.683 17.4467C102.104 18.0694 101.336 18.3801 100.38 18.3801C99.4561 18.3801 98.7214 18.0824 98.1747 17.4844C97.6281 16.8877 97.3547 16.135 97.3547 15.2276C97.3547 14.2786 97.6361 13.4999 98.2014 12.8954C98.7667 12.2909 99.5267 11.988 100.483 11.988C101.407 11.988 102.147 12.2857 102.709 12.8824C103.243 13.4622 103.511 14.211 103.511 15.1262ZM102.06 15.1704C102.06 14.6049 101.935 14.12 101.685 13.7157C101.393 13.2269 100.975 12.9825 100.433 12.9825C99.8707 12.9825 99.4441 13.2269 99.1521 13.7157C98.9014 14.12 98.7774 14.6127 98.7774 15.1951C98.7774 15.7606 98.9027 16.2455 99.1521 16.6498C99.4547 17.1386 99.8761 17.383 100.42 17.383C100.953 17.383 101.371 17.1347 101.672 16.6368C101.932 16.2247 102.06 15.7359 102.06 15.1704Z" fill="white"/>
<path d="M110.273 18.241H109.019L108.915 17.5351H108.876C108.447 18.098 107.835 18.3801 107.04 18.3801C106.447 18.3801 105.967 18.1942 105.605 17.825C105.277 17.4896 105.113 17.0723 105.113 16.577C105.113 15.8282 105.433 15.2575 106.077 14.8623C106.72 14.4671 107.624 14.2734 108.788 14.2825V14.1681C108.788 13.3608 108.353 12.9578 107.483 12.9578C106.863 12.9578 106.316 13.1099 105.844 13.4115L105.56 12.5171C106.144 12.1648 106.865 11.988 107.716 11.988C109.359 11.988 110.183 12.833 110.183 14.523V16.7798C110.183 17.3921 110.213 17.8796 110.273 18.241ZM108.823 16.135V15.1899C107.281 15.1639 106.511 15.576 106.511 16.4249C106.511 16.7447 106.599 16.9839 106.779 17.1438C106.959 17.3037 107.188 17.383 107.461 17.383C107.768 17.383 108.055 17.2881 108.316 17.0996C108.579 16.9098 108.74 16.6693 108.8 16.3742C108.815 16.3079 108.823 16.2273 108.823 16.135Z" fill="white"/>
<path d="M118.213 18.2411H116.973L116.908 17.257H116.869C116.473 18.0058 115.799 18.3802 114.851 18.3802C114.093 18.3802 113.463 18.0903 112.963 17.5105C112.463 16.9307 112.213 16.178 112.213 15.2537C112.213 14.2618 112.484 13.4584 113.028 12.8448C113.555 12.2728 114.2 11.9868 114.968 11.9868C115.812 11.9868 116.403 12.2637 116.739 12.8188H116.765V9.30103H118.164V16.5901C118.164 17.1868 118.18 17.7367 118.213 18.2411ZM116.765 15.6567V14.6349C116.765 14.4581 116.752 14.3151 116.727 14.2059C116.648 13.8783 116.479 13.6027 116.221 13.3804C115.961 13.1581 115.648 13.0463 115.287 13.0463C114.765 13.0463 114.357 13.2478 114.057 13.6521C113.76 14.0564 113.609 14.5725 113.609 15.203C113.609 15.8088 113.752 16.3002 114.039 16.6785C114.341 17.0815 114.749 17.283 115.26 17.283C115.719 17.283 116.085 17.1153 116.364 16.7786C116.633 16.4679 116.765 16.0935 116.765 15.6567Z" fill="white"/>
<path d="M130.164 15.1262C130.164 16.0687 129.888 16.8409 129.336 17.4467C128.757 18.0694 127.992 18.3801 127.033 18.3801C126.112 18.3801 125.377 18.0824 124.828 17.4844C124.281 16.8877 124.008 16.135 124.008 15.2276C124.008 14.2786 124.289 13.4999 124.855 12.8954C125.42 12.2909 126.18 11.988 127.139 11.988C128.06 11.988 128.803 12.2857 129.363 12.8824C129.896 13.4622 130.164 14.211 130.164 15.1262ZM128.716 15.1704C128.716 14.6049 128.591 14.12 128.341 13.7157C128.047 13.2269 127.631 12.9825 127.087 12.9825C126.527 12.9825 126.1 13.2269 125.805 13.7157C125.555 14.12 125.431 14.6127 125.431 15.1951C125.431 15.7606 125.556 16.2455 125.805 16.6498C126.108 17.1386 126.529 17.383 127.073 17.383C127.607 17.383 128.027 17.1347 128.328 16.6368C128.585 16.2247 128.716 15.7359 128.716 15.1704Z" fill="white"/>
<path d="M137.677 18.241H136.281V14.731C136.281 13.6494 135.86 13.1086 135.013 13.1086C134.599 13.1086 134.264 13.2568 134.005 13.5545C133.747 13.8522 133.617 14.2032 133.617 14.6049V18.2397H132.219V13.8639C132.219 13.3257 132.203 12.742 132.169 12.1102H133.396L133.461 13.0683H133.5C133.664 12.7706 133.907 12.5249 134.224 12.3286C134.604 12.0998 135.027 11.9841 135.492 11.9841C136.077 11.9841 136.565 12.1687 136.953 12.5392C137.437 12.9929 137.677 13.6702 137.677 14.5698V18.241V18.241Z" fill="white"/>
<path d="M147.081 13.1334H145.543V16.1104C145.543 16.867 145.816 17.2453 146.357 17.2453C146.608 17.2453 146.816 17.2245 146.98 17.1816L147.016 18.2151C146.74 18.3165 146.377 18.3672 145.931 18.3672C145.379 18.3672 144.949 18.2034 144.639 17.8758C144.327 17.5482 144.172 16.997 144.172 16.2235V13.1334H143.253V12.1129H144.172V10.9897L145.541 10.5867V12.1116H147.08V13.1334H147.081Z" fill="white"/>
<path d="M154.479 18.2411H153.08V14.7571C153.08 13.6586 152.659 13.1087 151.815 13.1087C151.167 13.1087 150.724 13.4272 150.481 14.0642C150.44 14.1981 150.416 14.3619 150.416 14.5543V18.2398H149.02V9.30103H150.416V12.9943H150.443C150.883 12.3222 151.513 11.9868 152.331 11.9868C152.909 11.9868 153.388 12.1714 153.768 12.5419C154.241 13.0034 154.479 13.6898 154.479 14.5972V18.2411V18.2411Z" fill="white"/>
<path d="M162.109 14.887C162.109 15.1314 162.091 15.3368 162.057 15.5045H157.867C157.885 16.1103 158.085 16.5718 158.473 16.8916C158.828 17.1776 159.285 17.3206 159.845 17.3206C160.465 17.3206 161.031 17.2244 161.54 17.0307L161.759 17.9771C161.163 18.2293 160.461 18.3554 159.649 18.3554C158.676 18.3554 157.909 18.0759 157.355 17.5169C156.797 16.9579 156.521 16.2078 156.521 15.2666C156.521 14.3423 156.779 13.5727 157.297 12.9591C157.839 12.3039 158.571 11.9763 159.495 11.9763C160.399 11.9763 161.085 12.3039 161.549 12.9591C161.924 13.4791 162.109 14.1226 162.109 14.887ZM160.776 14.5347C160.787 14.1304 160.695 13.782 160.505 13.4882C160.263 13.1099 159.893 12.9201 159.393 12.9201C158.937 12.9201 158.565 13.1047 158.281 13.4752C158.049 13.7703 157.912 14.1226 157.867 14.5347H160.776Z" fill="white"/>
<path d="M72.0266 41.7335H68.9986L67.34 36.6518H61.5746L59.9946 41.7335H57.0466L62.7586 24.4331H66.2866L72.0266 41.7335ZM66.84 34.5198L65.34 30.0023C65.1813 29.5408 64.884 28.454 64.4453 26.7432H64.392C64.2173 27.479 63.936 28.5658 63.5493 30.0023L62.076 34.5198H66.84V34.5198Z" fill="white"/>
<path d="M86.7159 35.3428C86.7159 37.4644 86.1279 39.1414 84.9519 40.3725C83.8985 41.4684 82.5905 42.0157 81.0292 42.0157C79.3439 42.0157 78.1332 41.4255 77.3959 40.2451H77.3425V46.8166H74.4999V33.3655C74.4999 32.0317 74.4639 30.6628 74.3945 29.2588H76.8945L77.0532 31.2361H77.1065C78.0545 29.7463 79.4932 29.0027 81.4239 29.0027C82.9332 29.0027 84.1932 29.5838 85.2012 30.7473C86.2119 31.9121 86.7159 33.4435 86.7159 35.3428ZM83.8199 35.4442C83.8199 34.23 83.5399 33.229 82.9772 32.4412C82.3625 31.6196 81.5372 31.2088 80.5025 31.2088C79.8012 31.2088 79.1639 31.4376 78.5945 31.8887C78.0239 32.3437 77.6505 32.9378 77.4759 33.6736C77.3879 34.0168 77.3439 34.2976 77.3439 34.5186V36.5986C77.3439 37.506 77.6292 38.2717 78.1999 38.897C78.7705 39.5223 79.5119 39.8343 80.4239 39.8343C81.4945 39.8343 82.3279 39.4313 82.9239 38.6279C83.5212 37.8232 83.8199 36.7624 83.8199 35.4442Z" fill="white"/>
<path d="M101.432 35.3428C101.432 37.4644 100.844 39.1414 99.6667 40.3725C98.6147 41.4684 97.3067 42.0157 95.7454 42.0157C94.0601 42.0157 92.8494 41.4255 92.1134 40.2451H92.0601V46.8166H89.2174V33.3655C89.2174 32.0317 89.1814 30.6628 89.1121 29.2588H91.6121L91.7707 31.2361H91.8241C92.7707 29.7463 94.2094 29.0027 96.1414 29.0027C97.6494 29.0027 98.9094 29.5838 99.9201 30.7473C100.927 31.9121 101.432 33.4435 101.432 35.3428ZM98.5361 35.4442C98.5361 34.23 98.2547 33.229 97.6921 32.4412C97.0774 31.6196 96.2547 31.2088 95.2187 31.2088C94.5161 31.2088 93.8801 31.4376 93.3094 31.8887C92.7387 32.3437 92.3667 32.9378 92.1921 33.6736C92.1054 34.0168 92.0601 34.2976 92.0601 34.5186V36.5986C92.0601 37.506 92.3454 38.2717 92.9134 38.897C93.4841 39.521 94.2254 39.8343 95.1401 39.8343C96.2107 39.8343 97.0441 39.4313 97.6401 38.6279C98.2374 37.8232 98.5361 36.7624 98.5361 35.4442Z" fill="white"/>
<path d="M117.885 36.882C117.885 38.3536 117.361 39.5509 116.309 40.4752C115.153 41.4853 113.544 41.9897 111.476 41.9897C109.567 41.9897 108.036 41.6309 106.877 40.912L107.536 38.6019C108.784 39.3377 110.153 39.7069 111.645 39.7069C112.716 39.7069 113.549 39.4703 114.148 38.9997C114.744 38.5291 115.041 37.8973 115.041 37.1095C115.041 36.4075 114.796 35.816 114.304 35.3363C113.815 34.8566 112.997 34.4107 111.856 33.9986C108.749 32.8689 107.197 31.214 107.197 29.0378C107.197 27.6156 107.741 26.4495 108.831 25.5421C109.916 24.6334 111.364 24.1797 113.175 24.1797C114.789 24.1797 116.131 24.454 117.201 25.0013L116.491 27.2607C115.491 26.7303 114.36 26.4651 113.095 26.4651C112.095 26.4651 111.313 26.7056 110.753 27.184C110.28 27.6117 110.043 28.133 110.043 28.7505C110.043 29.4343 110.313 29.9998 110.857 30.4444C111.331 30.8552 112.191 31.2998 113.439 31.7795C114.965 32.3788 116.087 33.0795 116.808 33.8829C117.527 34.6837 117.885 35.686 117.885 36.882Z" fill="white"/>
<path d="M127.284 31.3387H124.151V37.3954C124.151 38.9359 124.703 39.7055 125.809 39.7055C126.317 39.7055 126.739 39.6626 127.072 39.5768L127.151 41.6815C126.591 41.8856 125.853 41.9883 124.94 41.9883C123.817 41.9883 122.94 41.6542 122.307 40.9873C121.676 40.3191 121.359 39.1985 121.359 37.6242V31.3361H119.492V29.2561H121.359V26.972L124.151 26.1504V29.2561H127.284V31.3387Z" fill="white"/>
<path d="M141.421 35.3934C141.421 37.3109 140.858 38.8852 139.736 40.1163C138.558 41.3838 136.996 42.0156 135.048 42.0156C133.17 42.0156 131.676 41.4085 130.561 40.1943C129.446 38.9801 128.889 37.4474 128.889 35.6001C128.889 33.667 129.462 32.0836 130.613 30.8525C131.761 29.6201 133.31 29.0039 135.258 29.0039C137.136 29.0039 138.646 29.611 139.786 30.8265C140.877 32.0056 141.421 33.5279 141.421 35.3934ZM138.472 35.4831C138.472 34.3326 138.22 33.3459 137.709 32.523C137.113 31.5272 136.261 31.0306 135.157 31.0306C134.014 31.0306 133.146 31.5285 132.55 32.523C132.04 33.3472 131.788 34.3495 131.788 35.5351C131.788 36.6856 132.04 37.6723 132.55 38.4939C133.165 39.4897 134.024 39.9863 135.132 39.9863C136.217 39.9863 137.069 39.4793 137.684 38.4679C138.208 37.6294 138.472 36.6323 138.472 35.4831Z" fill="white"/>
<path d="M150.661 31.6963C150.38 31.6456 150.08 31.6196 149.765 31.6196C148.765 31.6196 147.992 31.9875 147.448 32.7246C146.975 33.3746 146.737 34.1962 146.737 35.1881V41.7336H143.896L143.923 33.1874C143.923 31.7496 143.887 30.4405 143.816 29.2601H146.292L146.396 31.6469H146.475C146.775 30.8266 147.248 30.1662 147.896 29.6709C148.529 29.225 149.213 29.0027 149.951 29.0027C150.213 29.0027 150.451 29.0209 150.661 29.0534V31.6963Z" fill="white"/>
<path d="M163.375 34.9059C163.375 35.4025 163.341 35.8211 163.271 36.163H154.743C154.776 37.3954 155.188 38.3379 155.98 38.9879C156.699 39.569 157.628 39.8602 158.769 39.8602C160.032 39.8602 161.184 39.6639 162.22 39.27L162.665 41.194C161.455 41.7088 160.025 41.9649 158.376 41.9649C156.392 41.9649 154.835 41.3955 153.701 40.258C152.571 39.1205 152.004 37.593 152.004 35.6768C152.004 33.7957 152.531 32.2292 153.585 30.9799C154.689 29.6461 156.181 28.9792 158.059 28.9792C159.903 28.9792 161.299 29.6461 162.247 30.9799C162.997 32.0394 163.375 33.3498 163.375 34.9059ZM160.664 34.187C160.683 33.3654 160.497 32.6556 160.112 32.0563C159.62 31.2854 158.864 30.9006 157.847 30.9006C156.917 30.9006 156.161 31.2763 155.584 32.0303C155.111 32.6296 154.829 33.3485 154.743 34.1857H160.664V34.187Z" fill="white"/>
</svg>
