<svg width="160" height="47" viewBox="0 0 160 47" fill="none" xmlns="http://www.w3.org/2000/svg">
<path d="M159.111 40.7337C159.111 43.1851 157.074 45.1708 154.555 45.1708H5.45083C2.93267 45.1708 0.888672 43.1851 0.888672 40.7337V5.34948C0.888672 2.89924 2.93267 0.906616 5.45083 0.906616H154.553C157.074 0.906616 159.11 2.89924 159.11 5.34948L159.111 40.7337Z" fill="white"/>
<path d="M154.074 0.960007C156.818 0.960007 159.05 3.12632 159.05 5.78857V40.2886C159.05 42.9508 156.818 45.1171 154.074 45.1171H5.92593C3.18222 45.1171 0.949629 42.9508 0.949629 40.2886V5.78857C0.949629 3.12632 3.18222 0.960007 5.92593 0.960007H154.074ZM154.074 0.0385719H5.92593C2.66815 0.0385719 0 2.62751 0 5.78857V40.2886C0 43.4496 2.66815 46.0386 5.92593 46.0386H154.074C157.332 46.0386 160 43.4496 160 40.2886V5.78857C160 2.62751 157.332 0.0385719 154.074 0.0385719Z" fill="#A6A6A6"/>
<path d="M35.7071 22.7902C35.6728 19.0837 38.8348 17.2805 38.9794 17.1966C37.1886 14.6631 34.4129 14.317 33.4375 14.2894C31.1062 14.0513 28.8449 15.6429 27.6574 15.6429C26.4461 15.6429 24.6174 14.3124 22.6464 14.3515C20.1101 14.3894 17.7374 15.8143 16.436 18.0269C13.7504 22.5383 15.7534 29.1681 18.3264 32.8147C19.6135 34.6007 21.1175 36.5948 23.0861 36.5246C25.012 36.4476 25.7314 35.3332 28.0556 35.3332C30.3584 35.3332 31.0339 36.5246 33.0416 36.4798C35.1086 36.4476 36.4099 34.6858 37.652 32.8837C39.1394 30.8367 39.7368 28.8208 39.7605 28.7173C39.7119 28.7012 35.7462 27.2326 35.7071 22.7902Z" fill="black"/>
<path d="M31.9145 11.8905C32.9504 10.6335 33.6591 8.92346 33.4624 7.18811C31.9631 7.25251 30.0882 8.19436 29.0085 9.42371C28.0532 10.507 27.1999 12.2826 27.4203 13.9524C29.1045 14.0743 30.8336 13.1279 31.9145 11.8905Z" fill="black"/>
<path d="M58.1334 11.5488C58.1334 12.9024 57.715 13.9213 56.8794 14.6055C56.1055 15.2369 55.0056 15.5531 53.5811 15.5531C52.8747 15.5531 52.2702 15.5232 51.7642 15.4634V8.06778C52.4243 7.96428 53.1354 7.91138 53.9034 7.91138C55.2605 7.91138 56.2833 8.19773 56.9731 8.77043C57.7458 9.41788 58.1334 10.3436 58.1334 11.5488ZM56.8237 11.5822C56.8237 10.7047 56.5843 10.032 56.1055 9.56278C55.6267 9.09473 54.9274 8.86013 54.0065 8.86013C53.6154 8.86013 53.2824 8.88543 53.0062 8.93833V14.5607C53.1591 14.5837 53.4388 14.594 53.8453 14.594C54.7959 14.594 55.5295 14.3376 56.0462 13.8247C56.563 13.3118 56.8237 12.5643 56.8237 11.5822Z" fill="black"/>
<path d="M65.0775 12.7309C65.0775 13.5647 64.8321 14.2478 64.3415 14.7837C63.8271 15.3345 63.1456 15.6094 62.2947 15.6094C61.4745 15.6094 60.8215 15.346 60.3344 14.817C59.8484 14.2892 59.6055 13.6233 59.6055 12.8206C59.6055 11.9811 59.8555 11.2923 60.3581 10.7575C60.8606 10.2228 61.5361 9.95483 62.3871 9.95483C63.2072 9.95483 63.8662 10.2182 64.3652 10.746C64.8392 11.2589 65.0775 11.9213 65.0775 12.7309ZM63.7892 12.77C63.7892 12.2698 63.6778 11.8408 63.4561 11.4832C63.1954 11.0508 62.8244 10.8346 62.3421 10.8346C61.8431 10.8346 61.4638 11.0508 61.2031 11.4832C60.9803 11.8408 60.8701 12.2767 60.8701 12.7919C60.8701 13.2921 60.9815 13.7211 61.2031 14.0787C61.4721 14.5111 61.8467 14.7273 62.3302 14.7273C62.8043 14.7273 63.1764 14.5077 63.4443 14.0672C63.6742 13.7027 63.7892 13.2703 63.7892 12.77Z" fill="black"/>
<path d="M74.3883 10.0654L72.6401 15.4865H71.5023L70.7782 13.1325C70.5945 12.5448 70.4452 11.9606 70.329 11.381H70.3065C70.1986 11.9767 70.0493 12.5598 69.8573 13.1325L69.0881 15.4865H67.9373L66.2935 10.0654H67.5699L68.2016 12.6426C68.3545 13.2521 68.4801 13.8328 68.5809 14.3825H68.6034C68.6958 13.9294 68.8487 13.3521 69.0644 12.6541L69.8573 10.0666H70.8695L71.6292 12.5989C71.8129 13.2164 71.9622 13.811 72.0772 14.3837H72.1115C72.1957 13.8259 72.3225 13.2314 72.4908 12.5989L73.1687 10.0666H74.3883V10.0654Z" fill="black"/>
<path d="M80.8273 15.4864H79.5853V12.3814C79.5853 11.4246 79.2108 10.9462 78.4594 10.9462C78.0908 10.9462 77.7933 11.0773 77.5622 11.3406C77.3334 11.604 77.2173 11.9145 77.2173 12.2698V15.4852H75.9752V11.6143C75.9752 11.1382 75.9598 10.6219 75.9302 10.063H77.0217L77.0798 10.9105H77.1142C77.2588 10.6472 77.4745 10.4298 77.7577 10.2562C78.0943 10.0538 78.4712 9.95142 78.8836 9.95142C79.4051 9.95142 79.8389 10.1147 80.1838 10.4425C80.6128 10.8438 80.8273 11.443 80.8273 12.2388V15.4864Z" fill="black"/>
<path d="M84.2526 15.4864H83.0117V7.57788H84.2526V15.4864Z" fill="black"/>
<path d="M91.5653 12.7309C91.5653 13.5647 91.3199 14.2478 90.8293 14.7837C90.3149 15.3345 89.6322 15.6094 88.7825 15.6094C87.9611 15.6094 87.3081 15.346 86.8221 14.817C86.3362 14.2892 86.0933 13.6233 86.0933 12.8206C86.0933 11.9811 86.3433 11.2923 86.8459 10.7575C87.3484 10.2228 88.0239 9.95483 88.8737 9.95483C89.695 9.95483 90.3528 10.2182 90.853 10.746C91.327 11.2589 91.5653 11.9213 91.5653 12.7309ZM90.2758 12.77C90.2758 12.2698 90.1644 11.8408 89.9427 11.4832C89.6832 11.0508 89.311 10.8346 88.8298 10.8346C88.3297 10.8346 87.9504 11.0508 87.6909 11.4832C87.4681 11.8408 87.3579 12.2767 87.3579 12.7919C87.3579 13.2921 87.4693 13.7211 87.6909 14.0787C87.9599 14.5111 88.3344 14.7273 88.818 14.7273C89.2921 14.7273 89.663 14.5077 89.9309 14.0672C90.162 13.7027 90.2758 13.2703 90.2758 12.77Z" fill="black"/>
<path d="M97.5764 15.4863H96.4612L96.3687 14.8619H96.3343C95.9527 15.3598 95.4087 15.6094 94.7023 15.6094C94.1749 15.6094 93.7483 15.4449 93.4271 15.1183C93.1355 14.8216 92.9897 14.4525 92.9897 14.0143C92.9897 13.3519 93.2742 12.8471 93.8466 12.4975C94.4179 12.1479 95.2215 11.9765 96.2561 11.9846V11.8834C96.2561 11.1692 95.8698 10.8127 95.0958 10.8127C94.5447 10.8127 94.0588 10.9473 93.6392 11.2141L93.3868 10.4229C93.9059 10.1112 94.5471 9.95483 95.3032 9.95483C96.7634 9.95483 97.4958 10.7023 97.4958 12.1973V14.1937C97.4958 14.7354 97.5231 15.1666 97.5764 15.4863ZM96.2869 13.6233V12.7873C94.9169 12.7643 94.2318 13.1288 94.2318 13.8798C94.2318 14.1627 94.31 14.3743 94.47 14.5157C94.63 14.6572 94.8339 14.7273 95.0769 14.7273C95.3495 14.7273 95.6043 14.6434 95.8366 14.4766C96.07 14.3087 96.2135 14.096 96.2668 13.8349C96.2798 13.7763 96.2869 13.705 96.2869 13.6233Z" fill="black"/>
<path d="M104.634 15.4864H103.532L103.474 14.6159H103.439C103.087 15.2783 102.488 15.6095 101.645 15.6095C100.972 15.6095 100.411 15.353 99.9669 14.8401C99.5224 14.3272 99.3008 13.6614 99.3008 12.8437C99.3008 11.9663 99.5414 11.2556 100.025 10.7128C100.493 10.2068 101.067 9.95378 101.749 9.95378C102.5 9.95378 103.025 10.1987 103.323 10.6898H103.347V7.57788H104.59V14.0259C104.59 14.5538 104.604 15.0402 104.634 15.4864ZM103.347 13.2002V12.2963C103.347 12.1399 103.335 12.0134 103.313 11.9168C103.243 11.627 103.092 11.3832 102.863 11.1866C102.632 10.9899 102.354 10.891 102.033 10.891C101.569 10.891 101.207 11.0693 100.94 11.4269C100.676 11.7846 100.542 12.2411 100.542 12.7989C100.542 13.3348 100.668 13.7695 100.923 14.1041C101.192 14.4606 101.555 14.6389 102.009 14.6389C102.417 14.6389 102.743 14.4905 102.99 14.1927C103.23 13.9178 103.347 13.5866 103.347 13.2002Z" fill="black"/>
<path d="M115.257 12.7309C115.257 13.5647 115.012 14.2478 114.521 14.7837C114.007 15.3345 113.326 15.6094 112.474 15.6094C111.655 15.6094 111.002 15.346 110.514 14.817C110.028 14.2892 109.785 13.6233 109.785 12.8206C109.785 11.9811 110.035 11.2923 110.538 10.7575C111.04 10.2228 111.716 9.95483 112.568 9.95483C113.387 9.95483 114.047 10.2182 114.545 10.746C115.019 11.2589 115.257 11.9213 115.257 12.7309ZM113.97 12.77C113.97 12.2698 113.859 11.8408 113.637 11.4832C113.375 11.0508 113.005 10.8346 112.522 10.8346C112.024 10.8346 111.645 11.0508 111.383 11.4832C111.16 11.8408 111.05 12.2767 111.05 12.7919C111.05 13.2921 111.161 13.7211 111.383 14.0787C111.652 14.5111 112.026 14.7273 112.51 14.7273C112.984 14.7273 113.357 14.5077 113.625 14.0672C113.854 13.7027 113.97 13.2703 113.97 12.77Z" fill="black"/>
<path d="M121.936 15.4864H120.695V12.3814C120.695 11.4246 120.32 10.9462 119.568 10.9462C119.199 10.9462 118.901 11.0773 118.672 11.3406C118.442 11.604 118.327 11.9145 118.327 12.2698V15.4852H117.083V11.6143C117.083 11.1382 117.069 10.6219 117.04 10.063H118.13L118.188 10.9105H118.222C118.368 10.6472 118.584 10.4298 118.866 10.2562C119.204 10.0538 119.579 9.95142 119.993 9.95142C120.513 9.95142 120.947 10.1147 121.292 10.4425C121.722 10.8438 121.936 11.443 121.936 12.2388V15.4864Z" fill="black"/>
<path d="M130.295 10.9679H128.927V13.6014C128.927 14.2707 129.17 14.6054 129.651 14.6054C129.874 14.6054 130.059 14.587 130.205 14.549L130.237 15.4633C129.991 15.553 129.669 15.5978 129.272 15.5978C128.781 15.5978 128.4 15.4529 128.123 15.1631C127.846 14.8733 127.709 14.3857 127.709 13.7015V10.9679H126.892V10.0652H127.709V9.07159L128.926 8.71509V10.064H130.294V10.9679H130.295Z" fill="black"/>
<path d="M136.87 15.4864H135.627V12.4044C135.627 11.4327 135.252 10.9462 134.502 10.9462C133.926 10.9462 133.533 11.228 133.317 11.7915C133.28 11.9099 133.259 12.0548 133.259 12.225V15.4853H132.018V7.57788H133.259V10.845H133.283C133.674 10.2505 134.234 9.95378 134.961 9.95378C135.475 9.95378 135.901 10.1171 136.239 10.4448C136.659 10.8531 136.87 11.4603 136.87 12.263V15.4864Z" fill="black"/>
<path d="M143.653 12.5193C143.653 12.7355 143.636 12.9172 143.606 13.0656H139.881C139.898 13.6015 140.076 14.0097 140.421 14.2926C140.736 14.5456 141.142 14.6721 141.64 14.6721C142.191 14.6721 142.694 14.587 143.147 14.4157L143.341 15.2529C142.811 15.476 142.188 15.5875 141.466 15.5875C140.601 15.5875 139.919 15.3403 139.426 14.8458C138.931 14.3513 138.686 13.6877 138.686 12.8551C138.686 12.0375 138.914 11.3567 139.375 10.8139C139.857 10.2343 140.507 9.94446 141.329 9.94446C142.132 9.94446 142.742 10.2343 143.155 10.8139C143.488 11.2739 143.653 11.8431 143.653 12.5193ZM142.467 12.2077C142.477 11.85 142.395 11.5418 142.227 11.2819C142.011 10.9473 141.683 10.7794 141.238 10.7794C140.833 10.7794 140.502 10.9427 140.25 11.2704C140.044 11.5315 139.922 11.8431 139.881 12.2077H142.467Z" fill="black"/>
<path d="M63.5792 36.2681H60.8877L59.4133 31.7727H54.2886L52.8841 36.2681H50.2637L55.341 20.9639H58.477L63.5792 36.2681ZM58.9689 29.8867L57.6355 25.8905C57.4945 25.4822 57.2302 24.5208 56.8403 23.0074H56.7929C56.6376 23.6583 56.3875 24.6197 56.0438 25.8905L54.7342 29.8867H58.9689Z" fill="black"/>
<path d="M76.6364 30.6148C76.6364 32.4916 76.1137 33.9751 75.0684 35.0641C74.1321 36.0336 72.9694 36.5177 71.5816 36.5177C70.0835 36.5177 69.0073 35.9956 68.3519 34.9514H68.3045V40.7647H65.7777V28.8656C65.7777 27.6857 65.7457 26.4748 65.6841 25.2328H67.9063L68.0473 26.9819H68.0947C68.9374 25.664 70.2162 25.0062 71.9324 25.0062C73.274 25.0062 74.394 25.5203 75.29 26.5495C76.1884 27.5799 76.6364 28.9346 76.6364 30.6148ZM74.0622 30.7045C74.0622 29.6304 73.8133 28.7449 73.3131 28.048C72.7667 27.3212 72.0331 26.9578 71.1134 26.9578C70.49 26.9578 69.9235 27.1602 69.4174 27.5592C68.9102 27.9617 68.5783 28.4873 68.423 29.1382C68.3448 29.4418 68.3057 29.6902 68.3057 29.8857V31.7257C68.3057 32.5284 68.5593 33.2057 69.0666 33.7589C69.5739 34.312 70.2328 34.588 71.0435 34.588C71.9952 34.588 72.7359 34.2315 73.2657 33.5208C73.7967 32.809 74.0622 31.8706 74.0622 30.7045Z" fill="black"/>
<path d="M89.7172 30.6148C89.7172 32.4916 89.1946 33.9751 88.148 35.0641C87.2129 36.0336 86.0503 36.5177 84.6624 36.5177C83.1643 36.5177 82.0882 35.9956 81.434 34.9514H81.3866V40.7647H78.8597V28.8656C78.8597 27.6857 78.8277 26.4748 78.7661 25.2328H80.9883L81.1294 26.9819H81.1768C82.0183 25.664 83.2971 25.0062 85.0144 25.0062C86.3549 25.0062 87.4749 25.5203 88.3732 26.5495C89.268 27.5799 89.7172 28.9346 89.7172 30.6148ZM87.143 30.7045C87.143 29.6304 86.8929 28.7449 86.3928 28.048C85.8464 27.3212 85.1152 26.9578 84.1943 26.9578C83.5697 26.9578 83.0043 27.1602 82.4971 27.5592C81.9898 27.9617 81.6591 28.4873 81.5039 29.1382C81.4269 29.4418 81.3866 29.6902 81.3866 29.8857V31.7257C81.3866 32.5284 81.6402 33.2057 82.1451 33.7589C82.6523 34.3109 83.3113 34.588 84.1243 34.588C85.076 34.588 85.8168 34.2315 86.3466 33.5208C86.8775 32.809 87.143 31.8706 87.143 30.7045Z" fill="black"/>
<path d="M104.343 31.9764C104.343 33.2782 103.877 34.3373 102.942 35.155C101.914 36.0485 100.484 36.4947 98.6453 36.4947C96.9481 36.4947 95.5875 36.1773 94.5576 35.5414L95.1431 33.4978C96.2524 34.1487 97.4696 34.4753 98.7958 34.4753C99.7475 34.4753 100.488 34.266 101.02 33.8497C101.55 33.4334 101.815 32.8745 101.815 32.1776C101.815 31.5566 101.596 31.0334 101.159 30.609C100.724 30.1847 99.9976 29.7902 98.9831 29.4257C96.2216 28.4263 94.8421 26.9624 94.8421 25.0373C94.8421 23.7792 95.3256 22.7476 96.2939 21.9449C97.2587 21.1411 98.5458 20.7397 100.155 20.7397C101.591 20.7397 102.783 20.9824 103.735 21.4665L103.103 23.4652C102.214 22.996 101.209 22.7614 100.084 22.7614C99.1952 22.7614 98.5007 22.9742 98.003 23.3974C97.5822 23.7757 97.3712 24.2369 97.3712 24.7831C97.3712 25.388 97.6118 25.8883 98.0954 26.2816C98.5161 26.645 99.2806 27.0383 100.39 27.4626C101.747 27.9928 102.744 28.6126 103.385 29.3233C104.024 30.0317 104.343 30.9184 104.343 31.9764Z" fill="black"/>
<path d="M112.697 27.0727H109.912V32.4305C109.912 33.7933 110.402 34.4741 111.386 34.4741C111.837 34.4741 112.212 34.4361 112.508 34.3602L112.578 36.2221C112.08 36.4026 111.425 36.4935 110.613 36.4935C109.615 36.4935 108.835 36.1979 108.272 35.608C107.712 35.0169 107.43 34.0256 107.43 32.6329V27.0704H105.771V25.2304H107.43V23.2098L109.912 22.483V25.2304H112.697V27.0727Z" fill="black"/>
<path d="M125.264 30.6596C125.264 32.3558 124.763 33.7485 123.766 34.8375C122.719 35.9588 121.33 36.5177 119.598 36.5177C117.93 36.5177 116.601 35.9806 115.61 34.9065C114.619 33.8324 114.124 32.4766 114.124 30.8424C114.124 29.1324 114.634 27.7317 115.656 26.6426C116.677 25.5524 118.054 25.0073 119.786 25.0073C121.454 25.0073 122.797 25.5444 123.811 26.6196C124.78 27.6627 125.264 29.0093 125.264 30.6596ZM122.642 30.7389C122.642 29.7212 122.418 28.8483 121.964 28.1204C121.434 27.2395 120.677 26.8002 119.696 26.8002C118.68 26.8002 117.908 27.2406 117.379 28.1204C116.925 28.8495 116.701 29.7361 116.701 30.7849C116.701 31.8027 116.925 32.6755 117.379 33.4023C117.925 34.2832 118.688 34.7225 119.673 34.7225C120.638 34.7225 121.395 34.274 121.941 33.3793C122.407 32.6376 122.642 31.7555 122.642 30.7389Z" fill="black"/>
<path d="M133.477 27.389C133.227 27.3442 132.96 27.3212 132.68 27.3212C131.792 27.3212 131.104 27.6466 130.621 28.2987C130.2 28.8737 129.989 29.6005 129.989 30.4779V36.2682H127.463L127.487 28.7081C127.487 27.4362 127.455 26.2781 127.392 25.2339H129.593L129.685 27.3453H129.755C130.022 26.6197 130.443 26.0355 131.019 25.5973C131.582 25.2029 132.19 25.0062 132.845 25.0062C133.079 25.0062 133.29 25.0223 133.477 25.0511V27.389Z" fill="black"/>
<path d="M144.777 30.2283C144.777 30.6676 144.748 31.0379 144.685 31.3404H137.104C137.134 32.4306 137.5 33.2643 138.204 33.8393C138.843 34.3534 139.669 34.611 140.684 34.611C141.806 34.611 142.83 34.4373 143.751 34.0889L144.147 35.7909C143.071 36.2463 141.8 36.4728 140.334 36.4728C138.57 36.4728 137.186 35.9691 136.179 34.9629C135.174 33.9566 134.67 32.6054 134.67 30.9103C134.67 29.2462 135.138 27.8605 136.076 26.7553C137.057 25.5754 138.383 24.9855 140.052 24.9855C141.691 24.9855 142.932 25.5754 143.774 26.7553C144.442 27.6926 144.777 28.8518 144.777 30.2283ZM142.368 29.5924C142.384 28.8656 142.22 28.2377 141.877 27.7075C141.44 27.0256 140.768 26.6852 139.863 26.6852C139.037 26.6852 138.365 27.0175 137.852 27.6845C137.431 28.2147 137.181 28.8506 137.104 29.5912H142.368V29.5924Z" fill="black"/>
</svg>
