<svg width="160" height="47" viewBox="0 0 160 47" fill="none" xmlns="http://www.w3.org/2000/svg">
<path d="M154.074 46.0386H5.92593C2.66815 46.0386 0 43.4496 0 40.2886V5.78857C0 2.62751 2.66815 0.0385672 5.92593 0.0385672H154.074C157.332 0.0385672 160 2.62751 160 5.78857V40.2886C160 43.4496 157.332 46.0386 154.074 46.0386Z" fill="white"/>
<path d="M154.074 0.960002C156.818 0.960002 159.05 3.12632 159.05 5.78857V40.2886C159.05 42.9508 156.818 45.1171 154.074 45.1171H5.92593C3.18222 45.1171 0.949629 42.9508 0.949629 40.2886V5.78857C0.949629 3.12632 3.18222 0.960002 5.92593 0.960002H154.074ZM154.074 0.0385672H5.92593C2.66815 0.0385672 0 2.62751 0 5.78857V40.2886C0 43.4496 2.66815 46.0386 5.92593 46.0386H154.074C157.332 46.0386 160 43.4496 160 40.2886V5.78857C160 2.62751 157.332 0.0385672 154.074 0.0385672Z" fill="#A6A6A6"/>
<path d="M12.367 8.70801C12.0189 9.06164 11.8174 9.6122 11.8174 10.3252V35.7575C11.8174 36.4705 12.0189 37.021 12.367 37.3746L12.4529 37.4523L27.1403 23.2066V22.8703L12.4529 8.62464L12.367 8.70801Z" fill="url(#paint0_linear_579_2994)"/>
<path d="M32.0305 27.9575L27.1401 23.2066V22.8702L32.0364 18.1193L32.1461 18.1811L37.9446 21.3824C39.5994 22.2909 39.5994 23.7859 37.9446 24.7001L32.1461 27.8957L32.0305 27.9575Z" fill="url(#paint1_linear_579_2994)"/>
<path d="M32.1464 27.8958L27.1405 23.0385L12.3672 37.3747C12.9168 37.9353 13.8131 38.0029 14.8324 37.4422L32.1464 27.8958Z" fill="url(#paint2_linear_579_2994)"/>
<path d="M32.1464 18.1811L14.8324 8.6347C13.8131 8.07983 12.9168 8.14739 12.3672 8.70801L27.1405 23.0385L32.1464 18.1811Z" fill="url(#paint3_linear_579_2994)"/>
<path d="M56.1984 11.819C56.1984 12.7793 55.9021 13.5483 55.3184 14.1219C54.6473 14.8018 53.7732 15.144 52.7021 15.144C51.6784 15.144 50.8043 14.7961 50.0873 14.1104C49.3688 13.4147 49.0103 12.5608 49.0103 11.5387C49.0103 10.5167 49.3688 9.66279 50.0873 8.97278C50.8043 8.28135 51.6784 7.93347 52.7021 7.93347C53.2117 7.93347 53.6977 8.03553 54.1614 8.22528C54.6236 8.41647 54.9999 8.67522 55.2725 8.99435L54.6532 9.60097C54.1777 9.05616 53.5303 8.78735 52.7021 8.78735C51.9554 8.78735 51.308 9.04035 50.7584 9.55066C50.2147 10.0624 49.9421 10.7251 49.9421 11.5387C49.9421 12.3523 50.2147 13.0208 50.7584 13.5325C51.308 14.0371 51.9554 14.2958 52.7021 14.2958C53.4947 14.2958 54.1614 14.0371 54.6873 13.5268C55.034 13.189 55.231 12.7232 55.2828 12.1281H52.7021V11.2972H56.1451C56.1865 11.4769 56.1984 11.6508 56.1984 11.819Z" fill="black" stroke="black" stroke-width="0.126802" stroke-miterlimit="10"/>
<path d="M61.6604 8.93824H58.4263V11.1232H61.3419V11.9541H58.4263V14.1391H61.6604V14.9858H57.5107V8.09155H61.6604V8.93824Z" fill="black" stroke="black" stroke-width="0.126802" stroke-miterlimit="10"/>
<path d="M65.5155 14.9858H64.5999V8.93824H62.6162V8.09155H67.5007V8.93824H65.5155V14.9858Z" fill="black" stroke="black" stroke-width="0.126802" stroke-miterlimit="10"/>
<path d="M71.0356 14.9858V8.09155H71.9497V14.9858H71.0356Z" fill="black" stroke="black" stroke-width="0.126802" stroke-miterlimit="10"/>
<path d="M76.0013 14.9858H75.0932V8.93824H73.1021V8.09155H77.9924V8.93824H76.0013V14.9858Z" fill="black" stroke="black" stroke-width="0.126802" stroke-miterlimit="10"/>
<path d="M87.2398 14.0989C86.539 14.7961 85.6709 15.144 84.6353 15.144C83.5938 15.144 82.7257 14.7961 82.0249 14.0989C81.3257 13.4032 80.9775 12.5493 80.9775 11.5387C80.9775 10.5282 81.3257 9.67428 82.0249 8.97853C82.7257 8.28135 83.5938 7.93347 84.6353 7.93347C85.6649 7.93347 86.5331 8.28135 87.2338 8.98428C87.939 9.68578 88.2872 10.5339 88.2872 11.5387C88.2872 12.5493 87.939 13.4032 87.2398 14.0989ZM82.702 13.521C83.2294 14.0371 83.8709 14.2958 84.6353 14.2958C85.3938 14.2958 86.0412 14.0371 86.5627 13.521C87.0886 13.005 87.3553 12.3423 87.3553 11.5387C87.3553 10.7352 87.0886 10.0725 86.5627 9.55641C86.0412 9.04035 85.3938 8.7816 84.6353 8.7816C83.8709 8.7816 83.2294 9.04035 82.702 9.55641C82.1761 10.0725 81.9094 10.7352 81.9094 11.5387C81.9094 12.3423 82.1761 13.005 82.702 13.521Z" fill="black" stroke="black" stroke-width="0.126802" stroke-miterlimit="10"/>
<path d="M89.5718 14.9858V8.09155H90.6829L94.1377 13.4534H94.1777L94.1377 12.1281V8.09155H95.0518V14.9858H94.0977L90.4799 9.35943H90.4399L90.4799 10.6906V14.9858H89.5718Z" fill="black" stroke="black" stroke-width="0.126802" stroke-miterlimit="10"/>
<path d="M80.7522 25.0539C77.9685 25.0539 75.6945 27.1095 75.6945 29.9457C75.6945 32.7589 77.9685 34.8361 80.7522 34.8361C83.5419 34.8361 85.8159 32.7589 85.8159 29.9457C85.8159 27.1095 83.5419 25.0539 80.7522 25.0539ZM80.7522 32.9099C79.2248 32.9099 77.9108 31.6865 77.9108 29.9457C77.9108 28.1819 79.2248 26.9802 80.7522 26.9802C82.2796 26.9802 83.5996 28.1819 83.5996 29.9457C83.5996 31.6865 82.2796 32.9099 80.7522 32.9099ZM69.7167 25.0539C66.927 25.0539 64.6589 27.1095 64.6589 29.9457C64.6589 32.7589 66.927 34.8361 69.7167 34.8361C72.5048 34.8361 74.7745 32.7589 74.7745 29.9457C74.7745 27.1095 72.5048 25.0539 69.7167 25.0539ZM69.7167 32.9099C68.1878 32.9099 66.8693 31.6865 66.8693 29.9457C66.8693 28.1819 68.1878 26.9802 69.7167 26.9802C71.2441 26.9802 72.5582 28.1819 72.5582 29.9457C72.5582 31.6865 71.2441 32.9099 69.7167 32.9099ZM56.5848 26.5532V28.6319H61.7004C61.5508 29.7934 61.1508 30.6472 60.5374 31.2424C59.7908 31.9611 58.6278 32.7589 56.5848 32.7589C53.4367 32.7589 50.9715 30.2936 50.9715 27.2389C50.9715 24.1842 53.4367 21.7189 56.5848 21.7189C58.2871 21.7189 59.5256 22.3644 60.4396 23.201L61.9493 21.7362C60.6708 20.5517 58.97 19.6417 56.5848 19.6417C52.2678 19.6417 48.6396 23.05 48.6396 27.2389C48.6396 31.4278 52.2678 34.8361 56.5848 34.8361C58.9182 34.8361 60.6708 34.0943 62.0485 32.7028C63.4604 31.3329 63.9004 29.4067 63.9004 27.8513C63.9004 27.3683 63.8589 26.9241 63.7848 26.5532H56.5848ZM110.283 28.1647C109.866 27.0707 108.582 25.0539 105.966 25.0539C103.373 25.0539 101.214 27.0362 101.214 29.9457C101.214 32.6856 103.351 34.8361 106.214 34.8361C108.53 34.8361 109.866 33.4662 110.416 32.6683L108.697 31.5572C108.124 32.3708 107.343 32.9099 106.214 32.9099C105.093 32.9099 104.289 32.411 103.773 31.4278L110.515 28.721L110.283 28.1647ZM103.409 29.7933C103.351 27.9073 104.918 26.9414 106.041 26.9414C106.921 26.9414 107.668 27.3683 107.917 27.9792L103.409 29.7933ZM97.9285 34.5385H100.145V20.1635H97.9285V34.5385ZM94.2989 26.1435H94.2248C93.727 25.5714 92.7774 25.0539 91.5745 25.0539C89.05 25.0539 86.7419 27.2044 86.7419 29.9615C86.7419 32.7028 89.05 34.8361 91.5745 34.8361C92.7774 34.8361 93.727 34.3143 94.2248 33.7249H94.2989V34.4264C94.2989 36.2966 93.2693 37.3014 91.6085 37.3014C90.2544 37.3014 89.4145 36.3527 89.0678 35.5548L87.1404 36.3354C87.6959 37.632 89.167 39.2277 91.6085 39.2277C94.207 39.2277 96.3996 37.7442 96.3996 34.1346V25.3515H94.2989V26.1435ZM91.7641 32.9099C90.2367 32.9099 88.9581 31.6693 88.9581 29.9615C88.9581 28.238 90.2367 26.9802 91.7641 26.9802C93.2693 26.9802 94.4559 28.238 94.4559 29.9615C94.4559 31.6693 93.2693 32.9099 91.7641 32.9099ZM120.659 20.1635H115.358V34.5385H117.569V29.0919H120.659C123.114 29.0919 125.521 27.3683 125.521 24.627C125.521 21.8871 123.108 20.1635 120.659 20.1635ZM120.717 27.0923H117.569V22.1631H120.717C122.367 22.1631 123.309 23.4928 123.309 24.627C123.309 25.7396 122.367 27.0923 120.717 27.0923ZM134.38 25.0266C132.783 25.0266 131.123 25.7108 130.44 27.2274L132.401 28.0252C132.823 27.2274 133.6 26.9687 134.42 26.9687C135.567 26.9687 136.73 27.6371 136.748 28.8173V28.9682C136.348 28.744 135.491 28.4119 134.438 28.4119C132.326 28.4119 130.173 29.5404 130.173 31.6463C130.173 33.5725 131.903 34.8131 133.849 34.8131C135.336 34.8131 136.157 34.1619 136.672 33.4044H136.748V34.5155H138.883V29.0013C138.883 26.4526 136.921 25.0266 134.38 25.0266ZM134.114 32.9041C133.391 32.9041 132.383 32.5562 132.383 31.6865C132.383 30.5739 133.64 30.147 134.727 30.147C135.7 30.147 136.157 30.3554 136.748 30.63C136.574 31.9611 135.394 32.9041 134.114 32.9041ZM146.66 25.3414L144.12 31.573H144.044L141.417 25.3414H139.034L142.98 34.0498L140.729 38.8956H143.038L149.12 25.3414H146.66ZM126.736 34.5385H128.952V20.1635H126.736V34.5385Z" fill="black"/>
<defs>
<linearGradient id="paint0_linear_579_2994" x1="25.8363" y1="36.0223" x2="6.54528" y2="16.1411" gradientUnits="userSpaceOnUse">
<stop stop-color="#00A0FF"/>
<stop offset="0.0066" stop-color="#00A1FF"/>
<stop offset="0.2601" stop-color="#00BEFF"/>
<stop offset="0.5122" stop-color="#00D2FF"/>
<stop offset="0.7604" stop-color="#00DFFF"/>
<stop offset="1" stop-color="#00E3FF"/>
</linearGradient>
<linearGradient id="paint1_linear_579_2994" x1="40.0994" y1="23.0368" x2="11.4216" y2="23.0368" gradientUnits="userSpaceOnUse">
<stop stop-color="#FFE000"/>
<stop offset="0.4087" stop-color="#FFBD00"/>
<stop offset="0.7754" stop-color="#FFA500"/>
<stop offset="1" stop-color="#FF9C00"/>
</linearGradient>
<linearGradient id="paint2_linear_579_2994" x1="29.4244" y1="20.398" x2="3.26421" y2="-6.56258" gradientUnits="userSpaceOnUse">
<stop stop-color="#FF3A44"/>
<stop offset="1" stop-color="#C31162"/>
</linearGradient>
<linearGradient id="paint3_linear_579_2994" x1="8.64843" y1="45.8358" x2="20.3301" y2="33.7968" gradientUnits="userSpaceOnUse">
<stop stop-color="#32A071"/>
<stop offset="0.0685" stop-color="#2DA771"/>
<stop offset="0.4762" stop-color="#15CF74"/>
<stop offset="0.8009" stop-color="#06E775"/>
<stop offset="1" stop-color="#00F076"/>
</linearGradient>
</defs>
</svg>
