<svg width="181" height="53" viewBox="0 0 181 53" fill="none" xmlns="http://www.w3.org/2000/svg">
<path d="M173.833 52.7783H7.16667C3.50167 52.7783 0.5 49.8517 0.5 46.2783V7.27832C0.5 3.70495 3.50167 0.778323 7.16667 0.778323H173.833C177.498 0.778323 180.5 3.70495 180.5 7.27832V46.2783C180.5 49.8517 177.498 52.7783 173.833 52.7783Z" fill="black"/>
<path d="M173.833 1.81995C176.92 1.81995 179.432 4.26882 179.432 7.27832V46.2783C179.432 49.2878 176.92 51.7367 173.833 51.7367H7.16667C4.08 51.7367 1.56833 49.2878 1.56833 46.2783V7.27832C1.56833 4.26882 4.08 1.81995 7.16667 1.81995H173.833ZM173.833 0.778323H7.16667C3.50167 0.778323 0.5 3.70495 0.5 7.27832V46.2783C0.5 49.8517 3.50167 52.7783 7.16667 52.7783H173.833C177.498 52.7783 180.5 49.8517 180.5 46.2783V7.27832C180.5 3.70495 177.498 0.778323 173.833 0.778323Z" fill="#A6A6A6"/>
<path d="M14.4133 10.5788C14.0216 10.9785 13.7949 11.6009 13.7949 12.4069V41.1564C13.7949 41.9624 14.0216 42.5848 14.4133 42.9845L14.5099 43.0723L31.0332 26.9685V26.5883L14.5099 10.4845L14.4133 10.5788Z" fill="url(#paint0_linear_576_2431)"/>
<path d="M36.5349 32.3391L31.0332 26.9685V26.5882L36.5415 21.2176L36.6649 21.2875L43.1882 24.9064C45.0499 25.9334 45.0499 27.6234 43.1882 28.6569L36.6649 32.2692L36.5349 32.3391Z" fill="url(#paint1_linear_576_2431)"/>
<path d="M36.665 32.2693L31.0333 26.7784L14.4133 42.9845C15.0317 43.6183 16.04 43.6947 17.1867 43.0609L36.665 32.2693Z" fill="url(#paint2_linear_576_2431)"/>
<path d="M36.665 21.2874L17.1867 10.4958C16.04 9.86858 15.0317 9.94495 14.4133 10.5787L31.0333 26.7783L36.665 21.2874Z" fill="url(#paint3_linear_576_2431)"/>
<path d="M63.7234 14.0953C63.7234 15.1808 63.3901 16.0501 62.7334 16.6985C61.9784 17.4671 60.9951 17.8539 59.7901 17.8539C58.6384 17.8539 57.655 17.4606 56.8484 16.6855C56.04 15.899 55.6367 14.9338 55.6367 13.7784C55.6367 12.623 56.04 11.6578 56.8484 10.8778C57.655 10.0961 58.6384 9.70288 59.7901 9.70288C60.3634 9.70288 60.91 9.81826 61.4317 10.0328C61.9517 10.2489 62.375 10.5414 62.6817 10.9021L61.9851 11.5879C61.45 10.972 60.7217 10.6681 59.7901 10.6681C58.9501 10.6681 58.2217 10.9541 57.6034 11.531C56.9917 12.1095 56.685 12.8586 56.685 13.7784C56.685 14.6981 56.9917 15.4538 57.6034 16.0323C58.2217 16.6026 58.9501 16.8951 59.7901 16.8951C60.6817 16.8951 61.4317 16.6026 62.0234 16.0258C62.4134 15.6439 62.6351 15.1174 62.6934 14.4446H59.7901V13.5054H63.6634C63.7101 13.7085 63.7234 13.9051 63.7234 14.0953Z" fill="white" stroke="white" stroke-width="0.16" stroke-miterlimit="10"/>
<path d="M69.8683 10.8387H66.23V13.3087H69.51V14.248H66.23V16.718H69.8683V17.6751H65.2V9.88159H69.8683V10.8387Z" fill="white" stroke="white" stroke-width="0.16" stroke-miterlimit="10"/>
<path d="M74.205 17.6751H73.175V10.8387H70.9434V9.88159H76.4384V10.8387H74.205V17.6751Z" fill="white" stroke="white" stroke-width="0.16" stroke-miterlimit="10"/>
<path d="M80.415 17.6751V9.88159H81.4434V17.6751H80.415Z" fill="white" stroke="white" stroke-width="0.16" stroke-miterlimit="10"/>
<path d="M86.0016 17.6751H84.98V10.8387H82.74V9.88159H88.2416V10.8387H86.0016V17.6751Z" fill="white" stroke="white" stroke-width="0.16" stroke-miterlimit="10"/>
<path d="M98.6451 16.6725C97.8568 17.4606 96.8801 17.8539 95.7151 17.8539C94.5434 17.8539 93.5668 17.4606 92.7784 16.6725C91.9918 15.886 91.6001 14.9208 91.6001 13.7784C91.6001 12.636 91.9918 11.6708 92.7784 10.8843C93.5668 10.0961 94.5434 9.70288 95.7151 9.70288C96.8734 9.70288 97.8501 10.0961 98.6384 10.8908C99.4318 11.6838 99.8234 12.6425 99.8234 13.7784C99.8234 14.9208 99.4318 15.886 98.6451 16.6725ZM93.5401 16.0193C94.1334 16.6026 94.8551 16.8951 95.7151 16.8951C96.5684 16.8951 97.2968 16.6026 97.8834 16.0193C98.4751 15.4359 98.7751 14.6868 98.7751 13.7784C98.7751 12.87 98.4751 12.1209 97.8834 11.5375C97.2968 10.9541 96.5684 10.6616 95.7151 10.6616C94.8551 10.6616 94.1334 10.9541 93.5401 11.5375C92.9484 12.1209 92.6484 12.87 92.6484 13.7784C92.6484 14.6868 92.9484 15.4359 93.5401 16.0193Z" fill="white" stroke="white" stroke-width="0.16" stroke-miterlimit="10"/>
<path d="M101.268 17.6751V9.88159H102.518L106.405 15.9428H106.45L106.405 14.4446V9.88159H107.433V17.6751H106.36L102.29 11.3148H102.245L102.29 12.8196V17.6751H101.268Z" fill="white" stroke="white" stroke-width="0.16" stroke-miterlimit="10"/>
<path d="M91.3466 29.0566C88.215 29.0566 85.6566 31.3804 85.6566 34.5865C85.6566 37.7666 88.215 40.1147 91.3466 40.1147C94.485 40.1147 97.0433 37.7666 97.0433 34.5865C97.0433 31.3804 94.485 29.0566 91.3466 29.0566ZM91.3466 37.9372C89.6283 37.9372 88.15 36.5544 88.15 34.5865C88.15 32.5926 89.6283 31.2341 91.3466 31.2341C93.065 31.2341 94.55 32.5926 94.55 34.5865C94.55 36.5544 93.065 37.9372 91.3466 37.9372ZM78.9316 29.0566C75.7933 29.0566 73.2416 31.3804 73.2416 34.5865C73.2416 37.7666 75.7933 40.1147 78.9316 40.1147C82.0683 40.1147 84.6216 37.7666 84.6216 34.5865C84.6216 31.3804 82.0683 29.0566 78.9316 29.0566ZM78.9316 37.9372C77.2116 37.9372 75.7283 36.5544 75.7283 34.5865C75.7283 32.5926 77.2116 31.2341 78.9316 31.2341C80.65 31.2341 82.1283 32.5926 82.1283 34.5865C82.1283 36.5544 80.65 37.9372 78.9316 37.9372ZM64.1583 30.7515V33.1012H69.9133C69.745 34.4142 69.295 35.3795 68.605 36.0522C67.765 36.8647 66.4566 37.7666 64.1583 37.7666C60.6166 37.7666 57.8433 34.9797 57.8433 31.5266C57.8433 28.0735 60.6166 25.2866 64.1583 25.2866C66.0733 25.2866 67.4666 26.0162 68.495 26.962L70.1933 25.3061C68.755 23.9671 66.8416 22.9385 64.1583 22.9385C59.3016 22.9385 55.22 26.7914 55.22 31.5266C55.22 36.2619 59.3016 40.1147 64.1583 40.1147C66.7833 40.1147 68.755 39.2762 70.305 37.7032C71.8933 36.1546 72.3883 33.9771 72.3883 32.2189C72.3883 31.6729 72.3416 31.1707 72.2583 30.7515H64.1583ZM124.568 32.5731C124.1 31.3365 122.655 29.0566 119.712 29.0566C116.795 29.0566 114.367 31.2975 114.367 34.5865C114.367 37.6837 116.77 40.1147 119.992 40.1147C122.597 40.1147 124.1 38.5661 124.718 37.6642L122.785 36.4081C122.14 37.3279 121.262 37.9372 119.992 37.9372C118.73 37.9372 117.825 37.3734 117.245 36.2619L124.83 33.202L124.568 32.5731ZM116.835 34.4142C116.77 32.2822 118.533 31.1902 119.797 31.1902C120.787 31.1902 121.627 31.6729 121.907 32.3635L116.835 34.4142ZM110.67 39.7784H113.163V23.5284H110.67V39.7784ZM106.587 30.2884H106.503C105.943 29.6416 104.875 29.0566 103.522 29.0566C100.682 29.0566 98.085 31.4876 98.085 34.6044C98.085 37.7032 100.682 40.1147 103.522 40.1147C104.875 40.1147 105.943 39.5249 106.503 38.8586H106.587V39.6516C106.587 41.7657 105.428 42.9016 103.56 42.9016C102.037 42.9016 101.092 41.8291 100.702 40.9272L98.5333 41.8096C99.1583 43.2754 100.813 45.0791 103.56 45.0791C106.483 45.0791 108.95 43.4021 108.95 39.3217V29.393H106.587V30.2884ZM103.735 37.9372C102.017 37.9372 100.578 36.5349 100.578 34.6044C100.578 32.656 102.017 31.2341 103.735 31.2341C105.428 31.2341 106.763 32.656 106.763 34.6044C106.763 36.5349 105.428 37.9372 103.735 37.9372ZM136.242 23.5284H130.278V39.7784H132.765V33.6212H136.242C139.003 33.6212 141.712 31.6729 141.712 28.574C141.712 25.4767 138.997 23.5284 136.242 23.5284ZM136.307 31.3609H132.765V25.7887H136.307C138.163 25.7887 139.223 27.2919 139.223 28.574C139.223 29.8317 138.163 31.3609 136.307 31.3609ZM151.678 29.0257C149.882 29.0257 148.013 29.7992 147.245 31.5136L149.452 32.4155C149.927 31.5136 150.8 31.2211 151.723 31.2211C153.013 31.2211 154.322 31.9767 154.342 33.3109V33.4815C153.892 33.228 152.928 32.8526 151.743 32.8526C149.367 32.8526 146.945 34.1282 146.945 36.5089C146.945 38.6864 148.892 40.0887 151.08 40.0887C152.753 40.0887 153.677 39.3526 154.257 38.4962H154.342V39.7524H156.743V33.5189C156.743 30.6377 154.537 29.0257 151.678 29.0257ZM151.378 37.9307C150.565 37.9307 149.432 37.5375 149.432 36.5544C149.432 35.2966 150.845 34.814 152.068 34.814C153.163 34.814 153.677 35.0496 154.342 35.36C154.147 36.8647 152.818 37.9307 151.378 37.9307ZM165.493 29.3816L162.635 36.426H162.55L159.595 29.3816H156.913L161.353 39.2259L158.82 44.7037H161.418L168.26 29.3816H165.493ZM143.078 39.7784H145.572V23.5284H143.078V39.7784Z" fill="white"/>
<defs>
<linearGradient id="paint0_linear_576_2431" x1="29.5662" y1="41.4558" x2="7.75605" y2="19.0864" gradientUnits="userSpaceOnUse">
<stop stop-color="#00A0FF"/>
<stop offset="0.0066" stop-color="#00A1FF"/>
<stop offset="0.2601" stop-color="#00BEFF"/>
<stop offset="0.5122" stop-color="#00D2FF"/>
<stop offset="0.7604" stop-color="#00DFFF"/>
<stop offset="1" stop-color="#00E3FF"/>
</linearGradient>
<linearGradient id="paint1_linear_576_2431" x1="45.6124" y1="26.7765" x2="13.3499" y2="26.7765" gradientUnits="userSpaceOnUse">
<stop stop-color="#FFE000"/>
<stop offset="0.4087" stop-color="#FFBD00"/>
<stop offset="0.7754" stop-color="#FFA500"/>
<stop offset="1" stop-color="#FF9C00"/>
</linearGradient>
<linearGradient id="paint2_linear_576_2431" x1="33.6027" y1="23.7935" x2="4.02635" y2="-6.54119" gradientUnits="userSpaceOnUse">
<stop stop-color="#FF3A44"/>
<stop offset="1" stop-color="#C31162"/>
</linearGradient>
<linearGradient id="paint3_linear_576_2431" x1="10.2297" y1="52.5493" x2="23.4369" y2="39.0036" gradientUnits="userSpaceOnUse">
<stop stop-color="#32A071"/>
<stop offset="0.0685" stop-color="#2DA771"/>
<stop offset="0.4762" stop-color="#15CF74"/>
<stop offset="0.8009" stop-color="#06E775"/>
<stop offset="1" stop-color="#00F076"/>
</linearGradient>
</defs>
</svg>
