<svg width="18" height="17" viewBox="0 0 18 17" fill="none" xmlns="http://www.w3.org/2000/svg">
<path d="M8.93721 5.52443C7.41526 5.52443 6.17323 6.76645 6.17323 8.2884C6.17323 9.81036 7.41526 11.0524 8.93721 11.0524C10.4592 11.0524 11.7012 9.81036 11.7012 8.2884C11.7012 6.76645 10.4592 5.52443 8.93721 5.52443ZM17.2271 8.2884C17.2271 7.14383 17.2374 6.00963 17.1732 4.86713C17.1089 3.54008 16.8062 2.36234 15.8358 1.39194C14.8633 0.419464 13.6876 0.118806 12.3606 0.0545278C11.216 -0.00975079 10.0818 0.000616751 8.93928 0.000616751C7.79471 0.000616751 6.66051 -0.00975079 5.51801 0.0545278C4.19096 0.118806 3.01321 0.421538 2.04282 1.39194C1.07034 2.36441 0.769685 3.54008 0.705407 4.86713C0.641128 6.0117 0.651496 7.14591 0.651496 8.2884C0.651496 9.4309 0.641128 10.5672 0.705407 11.7097C0.769685 13.0367 1.07242 14.2145 2.04282 15.1849C3.01529 16.1573 4.19096 16.458 5.51801 16.5223C6.66258 16.5866 7.79678 16.5762 8.93928 16.5762C10.0839 16.5762 11.2181 16.5866 12.3606 16.5223C13.6876 16.458 14.8654 16.1553 15.8358 15.1849C16.8082 14.2124 17.1089 13.0367 17.1732 11.7097C17.2395 10.5672 17.2271 9.43298 17.2271 8.2884ZM8.93721 12.5412C6.58379 12.5412 4.68446 10.6418 4.68446 8.2884C4.68446 5.93498 6.58379 4.03565 8.93721 4.03565C11.2906 4.03565 13.19 5.93498 13.19 8.2884C13.19 10.6418 11.2906 12.5412 8.93721 12.5412ZM13.3641 4.85468C12.8147 4.85468 12.3709 4.41096 12.3709 3.86148C12.3709 3.312 12.8147 2.86827 13.3641 2.86827C13.9136 2.86827 14.3573 3.312 14.3573 3.86148C14.3575 3.99195 14.3319 4.12118 14.2821 4.24176C14.2322 4.36233 14.1591 4.47189 14.0668 4.56415C13.9745 4.65641 13.865 4.72956 13.7444 4.77942C13.6238 4.82927 13.4946 4.85485 13.3641 4.85468Z" fill="white"/>
</svg>
