<svg width="17" height="17" viewBox="0 0 17 17" fill="none" xmlns="http://www.w3.org/2000/svg">
<path fill-rule="evenodd" clip-rule="evenodd" d="M0.42334 1.38492C0.42334 1.01762 0.569251 0.665357 0.828973 0.405635C1.0887 0.145912 1.44095 1.84629e-06 1.80826 1.84629e-06H15.6137C15.7957 -0.000295445 15.976 0.0353126 16.1443 0.104787C16.3125 0.174262 16.4654 0.276239 16.5942 0.40488C16.723 0.533521 16.8251 0.686299 16.8948 0.854468C16.9644 1.02264 17.0002 1.20289 17.0001 1.38492V15.1904C17.0003 15.3724 16.9646 15.5528 16.8951 15.721C16.8255 15.8893 16.7235 16.0421 16.5948 16.1709C16.4661 16.2997 16.3133 16.4018 16.145 16.4715C15.9768 16.5411 15.7965 16.5769 15.6145 16.5768H1.80826C1.62632 16.5768 1.44617 16.541 1.2781 16.4713C1.11002 16.4017 0.957318 16.2996 0.828706 16.1709C0.700095 16.0422 0.598099 15.8895 0.528544 15.7214C0.45899 15.5532 0.423241 15.3731 0.42334 15.1911V1.38492ZM6.98474 6.32029H9.22939V7.44751C9.55339 6.79951 10.3822 6.2163 11.6278 6.2163C14.0156 6.2163 14.5814 7.50704 14.5814 9.87526V14.2621H12.165V10.4148C12.165 9.06601 11.841 8.30498 11.0182 8.30498C9.87664 8.30498 9.40194 9.12553 9.40194 10.4148V14.2621H6.98474V6.32029ZM2.84054 14.1589H5.25774V6.2163H2.84054V14.1581V14.1589ZM5.60359 3.6258C5.60815 3.83276 5.57132 4.03855 5.49527 4.23109C5.41922 4.42363 5.30547 4.59904 5.16071 4.74702C5.01595 4.895 4.84309 5.01258 4.65228 5.09285C4.46146 5.17313 4.25653 5.21448 4.04952 5.21448C3.8425 5.21448 3.63757 5.17313 3.44676 5.09285C3.25594 5.01258 3.08308 4.895 2.93832 4.74702C2.79356 4.59904 2.67982 4.42363 2.60376 4.23109C2.52771 4.03855 2.49088 3.83276 2.49544 3.6258C2.50439 3.21956 2.67205 2.83297 2.96252 2.54883C3.25299 2.26468 3.64318 2.10557 4.04952 2.10557C4.45586 2.10557 4.84604 2.26468 5.13651 2.54883C5.42699 2.83297 5.59465 3.21956 5.60359 3.6258Z" fill="white"/>
</svg>
