<svg width="17" height="14" viewBox="0 0 17 14" fill="none" xmlns="http://www.w3.org/2000/svg">
<path d="M16.455 2.42588C15.8783 2.68143 15.2587 2.85411 14.6074 2.93216C15.2794 2.53003 15.7822 1.89712 16.0219 1.15153C15.3905 1.52658 14.6995 1.79057 13.9789 1.93202C13.4942 1.4146 12.8524 1.07164 12.1529 0.956392C11.4534 0.841148 10.7354 0.960065 10.1104 1.29468C9.48542 1.6293 8.98839 2.1609 8.69648 2.80694C8.40458 3.45298 8.33413 4.17732 8.49607 4.8675C7.21668 4.80326 5.96509 4.47073 4.82253 3.89148C3.67997 3.31222 2.67198 2.4992 1.86397 1.50517C1.58769 1.98176 1.42883 2.53432 1.42883 3.12279C1.42852 3.65256 1.55898 4.17421 1.80863 4.64146C2.05828 5.10871 2.4194 5.50712 2.85996 5.80133C2.34903 5.78507 1.84938 5.64701 1.40258 5.39865V5.44009C1.40253 6.18311 1.65955 6.90326 2.13002 7.47835C2.60049 8.05344 3.25544 8.44804 3.98373 8.59521C3.50976 8.72348 3.01284 8.74238 2.5305 8.65047C2.73598 9.28979 3.13624 9.84885 3.67524 10.2494C4.21424 10.6499 4.86501 10.8719 5.53642 10.8842C4.39665 11.7789 2.98904 12.2643 1.54003 12.2621C1.28335 12.2622 1.02689 12.2472 0.771973 12.2172C2.2428 13.1629 3.95495 13.6648 5.70357 13.6629C11.6229 13.6629 14.8588 8.76029 14.8588 4.50834C14.8588 4.3702 14.8554 4.23068 14.8491 4.09254C15.4786 3.63735 16.0219 3.07368 16.4536 2.42795L16.455 2.42588Z" fill="white"/>
</svg>
