<svg width="309" height="269" viewBox="0 0 309 269" fill="none" xmlns="http://www.w3.org/2000/svg">
<g clip-path="url(#clip0_889_3522)">
<path d="M277.744 139.602C277.784 172.796 264.951 204.712 241.943 228.642C240.556 230.094 239.131 231.511 237.669 232.893C235.442 235.011 233.14 237.047 230.763 239.002C208.526 257.318 180.766 267.611 151.961 268.219C151.001 268.241 150.037 268.252 149.07 268.252C126.098 268.252 97.2034 255.984 70.9819 239.002C68.8125 237.597 66.6624 236.159 64.5316 234.689C63.5356 234.008 62.5445 233.318 61.5581 232.618C51.4449 225.478 41.8454 217.638 32.8304 209.154C26.928 203.616 21.3931 197.699 16.2609 191.44C-3.88686 166.593 -8.33074 144.205 20.3933 139.602C23.7942 139.059 27.0948 138.479 30.2952 137.861C34.9311 136.97 39.3677 136.008 43.6051 134.975C49.313 133.588 54.6756 132.084 59.693 130.463C61.3807 129.92 63.0298 129.366 64.6403 128.801C88.4496 120.44 104.385 109.538 115.232 97.7079C117.072 95.7055 118.769 93.679 120.321 91.6283C122.696 88.5069 124.854 85.2258 126.779 81.8082C129.435 77.0597 131.666 72.0857 133.446 66.9442L133.544 66.6618C142.175 41.7713 139.549 18.684 149.07 10.9569C189.772 -22.0772 240.444 24.9664 264.228 80.4431C265.426 83.2385 266.554 86.0508 267.61 88.88C268.085 90.1437 268.542 91.4099 268.983 92.6784C270.142 95.9843 271.193 99.2987 272.138 102.622C272.5 103.889 272.845 105.155 273.173 106.42C273.525 107.785 273.861 109.147 274.173 110.508C276.487 120.477 277.744 130.307 277.744 139.602Z" fill="white"/>
<path d="M151.96 268.219C151.001 268.241 150.037 268.252 149.07 268.252C126.097 268.252 97.203 255.984 70.9816 239.002C68.8122 237.597 66.662 236.159 64.5312 234.689L66.4001 223.319L122.975 215.809L151.37 237.517L151.96 268.219Z" fill="#2F2E41"/>
<path d="M154.683 65.1953H146.621C146.372 65.1954 146.132 65.2946 145.956 65.4712C145.779 65.6477 145.68 65.8871 145.68 66.1367V74.2006C145.68 74.324 145.704 74.4462 145.752 74.5602C145.799 74.6741 145.869 74.7776 145.956 74.8647C146.043 74.9519 146.147 75.0209 146.261 75.0678C146.376 75.1148 146.498 75.1388 146.621 75.1385H154.683C154.932 75.1385 155.171 75.0399 155.348 74.8641C155.525 74.6883 155.624 74.4497 155.625 74.2006V66.1367C155.624 65.8872 155.525 65.6482 155.348 65.4718C155.172 65.2954 154.933 65.196 154.683 65.1953Z" fill="white"/>
<path d="M154.683 78.9369H146.621C146.372 78.937 146.132 79.0362 145.956 79.2127C145.779 79.3893 145.68 79.6287 145.68 79.8783V87.9422C145.68 88.0656 145.704 88.1878 145.752 88.3018C145.799 88.4157 145.869 88.5192 145.956 88.6063C146.043 88.6934 146.147 88.7625 146.261 88.8094C146.376 88.8564 146.498 88.8804 146.621 88.88H154.683C154.932 88.8801 155.171 88.7815 155.348 88.6057C155.525 88.4299 155.624 88.1913 155.625 87.9422V79.8783C155.624 79.6288 155.525 79.3898 155.348 79.2134C155.172 79.037 154.933 78.9376 154.683 78.9369Z" fill="#E6E6E6"/>
<path d="M154.683 92.6784H146.621C146.372 92.6785 146.132 92.7777 145.956 92.9543C145.779 93.1308 145.68 93.3702 145.68 93.6199V101.68C145.679 101.804 145.704 101.926 145.751 102.041C145.798 102.155 145.867 102.259 145.955 102.346C146.042 102.434 146.146 102.503 146.261 102.55C146.375 102.598 146.498 102.622 146.621 102.622H154.683C154.933 102.621 155.172 102.522 155.349 102.346C155.526 102.169 155.625 101.93 155.625 101.68V93.6199C155.624 93.3704 155.525 93.1313 155.348 92.9549C155.172 92.7785 154.933 92.6791 154.683 92.6784Z" fill="#E6E6E6"/>
<path d="M155.61 107.195C155.57 106.978 155.456 106.782 155.286 106.641C155.117 106.499 154.904 106.421 154.683 106.42H146.621C146.372 106.42 146.132 106.519 145.956 106.696C145.779 106.872 145.68 107.112 145.68 107.361V115.422C145.679 115.545 145.704 115.668 145.751 115.782C145.798 115.897 145.867 116 145.955 116.088C146.042 116.175 146.146 116.245 146.261 116.292C146.375 116.339 146.498 116.363 146.621 116.363H154.683C154.933 116.363 155.172 116.264 155.349 116.087C155.526 115.911 155.625 115.671 155.625 115.422V107.361C155.626 107.306 155.621 107.25 155.61 107.195Z" fill="#E6E6E6"/>
<path d="M155.05 120.234C154.934 120.186 154.81 120.161 154.684 120.162H146.622C146.499 120.161 146.376 120.185 146.262 120.233C146.147 120.28 146.043 120.349 145.956 120.437C145.868 120.524 145.799 120.628 145.752 120.742C145.705 120.857 145.68 120.979 145.681 121.103V129.163C145.68 129.287 145.704 129.41 145.751 129.524C145.798 129.639 145.868 129.743 145.955 129.83C146.043 129.918 146.147 129.987 146.261 130.034C146.376 130.081 146.498 130.105 146.622 130.105H154.684C154.934 130.105 155.173 130.005 155.35 129.829C155.527 129.652 155.626 129.413 155.626 129.163V121.103C155.626 120.918 155.571 120.737 155.468 120.582C155.366 120.428 155.221 120.307 155.05 120.234Z" fill="#E6E6E6"/>
<path d="M171.62 65.1953H163.558C163.308 65.1954 163.069 65.2946 162.892 65.4712C162.716 65.6477 162.616 65.8871 162.616 66.1367V74.2006C162.616 74.324 162.641 74.4462 162.688 74.5602C162.736 74.6741 162.805 74.7776 162.892 74.8647C162.98 74.9519 163.084 75.0209 163.198 75.0678C163.312 75.1148 163.434 75.1388 163.558 75.1385H171.62C171.869 75.1385 172.108 75.0399 172.285 74.8641C172.461 74.6883 172.561 74.4497 172.562 74.2006V66.1367C172.561 65.8872 172.461 65.6482 172.285 65.4718C172.108 65.2954 171.869 65.196 171.62 65.1953Z" fill="#E6E6E6"/>
<path d="M171.62 78.9369H163.558C163.308 78.937 163.069 79.0362 162.892 79.2127C162.716 79.3893 162.616 79.6287 162.616 79.8783V87.9422C162.616 88.0656 162.641 88.1878 162.688 88.3018C162.736 88.4157 162.805 88.5192 162.892 88.6063C162.98 88.6934 163.084 88.7625 163.198 88.8094C163.312 88.8564 163.434 88.8804 163.558 88.88H171.62C171.869 88.8801 172.108 88.7815 172.285 88.6057C172.461 88.4299 172.561 88.1913 172.562 87.9422V79.8783C172.561 79.6288 172.461 79.3898 172.285 79.2134C172.108 79.037 171.869 78.9376 171.62 78.9369Z" fill="#00AFEF"/>
<path d="M171.62 92.6784H163.558C163.308 92.6785 163.069 92.7777 162.892 92.9543C162.716 93.1308 162.616 93.3702 162.616 93.6199V101.68C162.616 101.804 162.64 101.926 162.687 102.041C162.735 102.155 162.804 102.259 162.891 102.346C162.979 102.434 163.083 102.503 163.197 102.55C163.312 102.598 163.434 102.622 163.558 102.622H171.62C171.87 102.621 172.109 102.522 172.286 102.346C172.462 102.169 172.561 101.93 172.562 101.68V93.6199C172.561 93.3704 172.461 93.1313 172.285 92.9549C172.108 92.7785 171.869 92.6791 171.62 92.6784Z" fill="#00AFEF"/>
<path d="M171.62 106.42H163.558C163.36 106.42 163.168 106.482 163.008 106.598C162.848 106.714 162.729 106.877 162.667 107.064C162.633 107.16 162.616 107.26 162.616 107.361V115.422C162.616 115.545 162.64 115.668 162.687 115.782C162.735 115.897 162.804 116 162.891 116.088C162.979 116.175 163.083 116.245 163.197 116.292C163.312 116.339 163.434 116.363 163.558 116.363H171.62C171.87 116.363 172.109 116.264 172.286 116.087C172.462 115.911 172.561 115.671 172.562 115.422V107.361C172.561 107.112 172.461 106.873 172.285 106.697C172.108 106.52 171.869 106.421 171.62 106.42Z" fill="#00AFEF"/>
<path d="M171.62 120.162H163.558C163.434 120.161 163.312 120.185 163.197 120.233C163.083 120.28 162.979 120.349 162.891 120.437C162.804 120.524 162.735 120.628 162.687 120.742C162.64 120.857 162.616 120.979 162.616 121.103V129.163C162.616 129.287 162.64 129.409 162.687 129.524C162.735 129.638 162.804 129.742 162.891 129.83C162.979 129.917 163.083 129.986 163.197 130.034C163.312 130.081 163.434 130.105 163.558 130.105H171.62C171.87 130.105 172.109 130.005 172.286 129.829C172.462 129.652 172.561 129.413 172.562 129.163V121.103C172.561 120.853 172.462 120.614 172.286 120.437C172.109 120.261 171.87 120.162 171.62 120.162Z" fill="#E6E6E6"/>
<path d="M188.555 65.1953H180.493C180.244 65.1954 180.004 65.2946 179.828 65.4712C179.651 65.6477 179.552 65.8871 179.552 66.1367V74.2006C179.552 74.324 179.576 74.4462 179.624 74.5602C179.671 74.6741 179.741 74.7776 179.828 74.8647C179.915 74.9519 180.019 75.0209 180.133 75.0678C180.248 75.1148 180.37 75.1388 180.493 75.1385H188.555C188.805 75.1385 189.044 75.0399 189.22 74.8641C189.397 74.6883 189.496 74.4497 189.497 74.2006V66.1367C189.496 65.8872 189.397 65.6482 189.22 65.4718C189.044 65.2954 188.805 65.196 188.555 65.1953Z" fill="#00AFEF"/>
<path d="M188.555 78.9369H180.493C180.244 78.937 180.004 79.0362 179.828 79.2127C179.651 79.3893 179.552 79.6287 179.552 79.8783V87.9422C179.552 88.0656 179.576 88.1878 179.624 88.3018C179.671 88.4157 179.741 88.5192 179.828 88.6063C179.915 88.6934 180.019 88.7625 180.133 88.8094C180.248 88.8564 180.37 88.8804 180.493 88.88H188.555C188.805 88.8801 189.044 88.7815 189.22 88.6057C189.397 88.4299 189.496 88.1913 189.497 87.9422V79.8783C189.496 79.6288 189.397 79.3898 189.22 79.2134C189.044 79.037 188.805 78.9376 188.555 78.9369Z" fill="#00AFEF"/>
<path d="M188.555 92.6784H180.493C180.244 92.6785 180.004 92.7777 179.828 92.9543C179.651 93.1308 179.552 93.3702 179.552 93.6199V101.68C179.552 101.804 179.576 101.926 179.623 102.041C179.67 102.155 179.74 102.259 179.827 102.346C179.914 102.434 180.018 102.503 180.133 102.55C180.247 102.598 180.37 102.622 180.493 102.622H188.555C188.805 102.621 189.045 102.522 189.221 102.346C189.398 102.169 189.497 101.93 189.497 101.68V93.6199C189.496 93.3704 189.397 93.1313 189.22 92.9549C189.044 92.7785 188.805 92.6791 188.555 92.6784Z" fill="#E6E6E6"/>
<path d="M188.555 106.42H180.493C180.244 106.42 180.004 106.519 179.828 106.696C179.651 106.872 179.552 107.112 179.552 107.361V115.422C179.552 115.545 179.576 115.668 179.623 115.782C179.67 115.897 179.74 116 179.827 116.088C179.914 116.175 180.018 116.245 180.133 116.292C180.247 116.339 180.37 116.363 180.493 116.363H188.555C188.805 116.363 189.045 116.264 189.221 116.087C189.398 115.911 189.497 115.671 189.497 115.422V107.361C189.496 107.112 189.397 106.873 189.22 106.697C189.044 106.52 188.805 106.421 188.555 106.42Z" fill="#00AFEF"/>
<path d="M188.555 120.162H180.493C180.37 120.161 180.247 120.185 180.133 120.233C180.018 120.28 179.914 120.349 179.827 120.437C179.74 120.524 179.67 120.628 179.623 120.742C179.576 120.857 179.552 120.979 179.552 121.103V129.163C179.552 129.287 179.576 129.409 179.623 129.524C179.67 129.638 179.74 129.742 179.827 129.83C179.914 129.917 180.018 129.986 180.133 130.034C180.247 130.081 180.37 130.105 180.493 130.105H188.555C188.805 130.105 189.045 130.005 189.221 129.829C189.398 129.652 189.497 129.413 189.497 129.163V121.103C189.497 120.853 189.398 120.614 189.221 120.437C189.045 120.261 188.805 120.162 188.555 120.162Z" fill="#00AFEF"/>
<path d="M205.49 65.1953H197.428C197.178 65.1954 196.939 65.2946 196.762 65.4712C196.586 65.6477 196.486 65.8871 196.486 66.1367V74.2006C196.486 74.324 196.511 74.4462 196.558 74.5602C196.606 74.6741 196.675 74.7776 196.763 74.8647C196.85 74.9519 196.954 75.0209 197.068 75.0678C197.182 75.1148 197.305 75.1388 197.428 75.1385H205.49C205.739 75.1385 205.978 75.0399 206.155 74.8641C206.331 74.6883 206.431 74.4497 206.432 74.2006V66.1367C206.431 65.8872 206.331 65.6482 206.155 65.4718C205.979 65.2954 205.74 65.196 205.49 65.1953Z" fill="#00AFEF"/>
<path d="M205.49 78.9369H197.428C197.178 78.937 196.939 79.0362 196.762 79.2127C196.586 79.3893 196.486 79.6287 196.486 79.8783V87.9422C196.486 88.0656 196.511 88.1878 196.558 88.3018C196.606 88.4157 196.675 88.5192 196.763 88.6063C196.85 88.6934 196.954 88.7625 197.068 88.8094C197.182 88.8564 197.305 88.8804 197.428 88.88H205.49C205.739 88.8801 205.978 88.7815 206.155 88.6057C206.331 88.4299 206.431 88.1913 206.432 87.9422V79.8783C206.431 79.6288 206.332 79.3898 206.155 79.2134C205.979 79.037 205.74 78.9376 205.49 78.9369Z" fill="white"/>
<path d="M205.49 92.6784H197.428C197.178 92.6785 196.939 92.7777 196.762 92.9543C196.586 93.1308 196.486 93.3702 196.486 93.6199V101.68C196.486 101.804 196.51 101.926 196.558 102.041C196.605 102.155 196.674 102.259 196.762 102.346C196.849 102.434 196.953 102.503 197.067 102.55C197.182 102.598 197.304 102.622 197.428 102.622H205.49C205.74 102.621 205.979 102.522 206.156 102.346C206.332 102.169 206.432 101.93 206.432 101.68V93.6199C206.431 93.3704 206.332 93.1313 206.155 92.9549C205.979 92.7785 205.74 92.6791 205.49 92.6784Z" fill="white"/>
<path d="M205.49 106.42H197.428C197.178 106.42 196.939 106.519 196.762 106.696C196.586 106.872 196.486 107.112 196.486 107.361V115.422C196.486 115.545 196.51 115.668 196.558 115.782C196.605 115.897 196.674 116 196.762 116.088C196.849 116.175 196.953 116.245 197.067 116.292C197.182 116.339 197.304 116.363 197.428 116.363H205.49C205.74 116.363 205.979 116.264 206.156 116.087C206.332 115.911 206.432 115.671 206.432 115.422V107.361C206.431 107.112 206.332 106.873 206.155 106.697C205.979 106.52 205.74 106.421 205.49 106.42Z" fill="#E6E6E6"/>
<path d="M205.49 120.162H197.428C197.304 120.161 197.182 120.185 197.067 120.233C196.953 120.28 196.849 120.349 196.762 120.437C196.674 120.524 196.605 120.628 196.558 120.742C196.51 120.857 196.486 120.979 196.486 121.103V129.163C196.486 129.287 196.51 129.409 196.558 129.524C196.605 129.638 196.674 129.742 196.762 129.83C196.849 129.917 196.953 129.986 197.067 130.034C197.182 130.081 197.304 130.105 197.428 130.105H205.49C205.74 130.105 205.979 130.005 206.156 129.829C206.332 129.652 206.432 129.413 206.432 129.163V121.103C206.432 120.853 206.332 120.614 206.156 120.437C205.979 120.261 205.74 120.162 205.49 120.162Z" fill="#00AFEF"/>
<path d="M222.426 65.1953H214.36C214.111 65.1962 213.872 65.2957 213.696 65.4722C213.52 65.6487 213.422 65.8876 213.422 66.1367V74.2006C213.422 74.4493 213.521 74.6878 213.697 74.8637C213.873 75.0396 214.111 75.1384 214.36 75.1385H222.426C222.675 75.1385 222.914 75.0399 223.09 74.8641C223.267 74.6883 223.366 74.4497 223.367 74.2006V66.1367C223.366 65.8872 223.267 65.6482 223.091 65.4718C222.914 65.2954 222.675 65.196 222.426 65.1953Z" fill="white"/>
<path d="M222.426 78.9369H214.36C214.111 78.9377 213.872 79.0373 213.696 79.2138C213.52 79.3903 213.422 79.6292 213.422 79.8783V87.9422C213.422 88.1909 213.521 88.4294 213.697 88.6053C213.873 88.7811 214.111 88.88 214.36 88.88H222.426C222.675 88.8801 222.914 88.7815 223.09 88.6057C223.267 88.4299 223.366 88.1913 223.367 87.9422V79.8783C223.366 79.6288 223.267 79.3898 223.091 79.2134C222.914 79.037 222.675 78.9376 222.426 78.9369Z" fill="white"/>
<path d="M222.426 92.6784H214.36C214.111 92.6793 213.872 92.7788 213.696 92.9553C213.52 93.1318 213.422 93.3708 213.422 93.6199V101.68C213.422 101.804 213.446 101.926 213.493 102.04C213.54 102.154 213.609 102.258 213.696 102.345C213.783 102.433 213.886 102.502 214 102.55C214.114 102.597 214.236 102.621 214.36 102.622H222.426C222.675 102.621 222.915 102.522 223.091 102.346C223.268 102.169 223.367 101.93 223.367 101.68V93.6199C223.366 93.3704 223.267 93.1313 223.091 92.9549C222.914 92.7785 222.675 92.6791 222.426 92.6784Z" fill="white"/>
<path d="M222.426 106.42H214.36C214.111 106.421 213.872 106.52 213.696 106.697C213.52 106.873 213.422 107.112 213.422 107.361V115.422C213.422 115.545 213.446 115.667 213.493 115.782C213.539 115.896 213.609 115.999 213.696 116.087C213.783 116.174 213.886 116.244 214 116.291C214.114 116.339 214.236 116.363 214.36 116.363H222.426C222.675 116.363 222.915 116.264 223.091 116.087C223.268 115.911 223.367 115.671 223.367 115.422V107.361C223.366 107.112 223.267 106.873 223.091 106.697C222.914 106.52 222.675 106.421 222.426 106.42Z" fill="#00AFEF"/>
<path d="M222.426 120.162H214.36C214.236 120.162 214.114 120.186 214 120.234C213.886 120.281 213.783 120.35 213.696 120.438C213.609 120.525 213.539 120.629 213.493 120.743C213.446 120.857 213.422 120.98 213.422 121.103V129.163C213.422 129.287 213.446 129.409 213.493 129.523C213.539 129.637 213.609 129.741 213.696 129.828C213.783 129.916 213.886 129.985 214 130.033C214.114 130.08 214.236 130.105 214.36 130.105H222.426C222.675 130.105 222.915 130.005 223.091 129.829C223.268 129.652 223.367 129.413 223.367 129.163V121.103C223.367 120.853 223.268 120.614 223.091 120.437C222.915 120.261 222.675 120.162 222.426 120.162Z" fill="#E6E6E6"/>
<path d="M239.361 65.1953H231.295C231.046 65.1962 230.808 65.2957 230.632 65.4722C230.456 65.6487 230.357 65.8876 230.357 66.1367V74.2006C230.357 74.4493 230.456 74.6878 230.632 74.8637C230.808 75.0396 231.047 75.1384 231.295 75.1385H239.361C239.61 75.1385 239.849 75.0399 240.026 74.8641C240.202 74.6883 240.302 74.4497 240.303 74.2006V66.1367C240.302 65.8873 240.203 65.6482 240.026 65.4718C239.85 65.2954 239.611 65.196 239.361 65.1953Z" fill="white"/>
<path d="M239.361 78.9369H231.295C231.046 78.9377 230.808 79.0373 230.632 79.2138C230.456 79.3903 230.357 79.6292 230.357 79.8783V87.9422C230.357 88.1909 230.456 88.4294 230.632 88.6053C230.808 88.7811 231.047 88.88 231.295 88.88H239.361C239.61 88.8801 239.849 88.7814 240.026 88.6057C240.202 88.4299 240.302 88.1913 240.303 87.9422V79.8783C240.302 79.6288 240.203 79.3898 240.026 79.2134C239.85 79.037 239.611 78.9376 239.361 78.9369Z" fill="white"/>
<path d="M239.361 92.6784H231.295C231.046 92.6793 230.808 92.7788 230.632 92.9553C230.456 93.1318 230.357 93.3708 230.357 93.6199V101.68C230.357 101.804 230.381 101.926 230.428 102.04C230.475 102.154 230.544 102.258 230.631 102.345C230.718 102.433 230.822 102.502 230.936 102.55C231.05 102.597 231.172 102.621 231.295 102.622H239.361C239.611 102.621 239.85 102.522 240.027 102.346C240.203 102.169 240.303 101.93 240.303 101.68V93.6199C240.302 93.3704 240.203 93.1314 240.026 92.955C239.85 92.7785 239.611 92.6791 239.361 92.6784Z" fill="#00AFEF"/>
<path d="M239.361 106.42H231.295C231.046 106.421 230.808 106.52 230.632 106.697C230.456 106.873 230.357 107.112 230.357 107.361V115.422C230.357 115.545 230.381 115.667 230.428 115.782C230.475 115.896 230.544 115.999 230.631 116.087C230.718 116.174 230.822 116.244 230.936 116.291C231.05 116.339 231.172 116.363 231.295 116.363H239.361C239.611 116.363 239.85 116.264 240.027 116.087C240.203 115.911 240.303 115.671 240.303 115.422V107.361C240.302 107.112 240.203 106.873 240.026 106.697C239.85 106.52 239.611 106.421 239.361 106.42Z" fill="#E6E6E6"/>
<path d="M239.361 120.162H231.295C231.172 120.162 231.05 120.186 230.936 120.234C230.822 120.281 230.718 120.35 230.631 120.438C230.544 120.525 230.475 120.629 230.428 120.743C230.381 120.857 230.357 120.98 230.357 121.103V129.163C230.357 129.287 230.381 129.409 230.428 129.523C230.475 129.637 230.544 129.741 230.631 129.828C230.718 129.916 230.822 129.985 230.936 130.033C231.05 130.08 231.172 130.105 231.295 130.105H239.361C239.611 130.105 239.85 130.005 240.027 129.829C240.203 129.652 240.303 129.413 240.303 129.163V121.103C240.303 120.853 240.203 120.614 240.027 120.437C239.85 120.261 239.611 120.162 239.361 120.162Z" fill="white"/>
<path d="M256.296 65.1953H248.23C247.981 65.1962 247.742 65.2957 247.566 65.4722C247.391 65.6487 247.292 65.8876 247.292 66.1367V74.2006C247.292 74.4493 247.391 74.6878 247.567 74.8637C247.743 75.0396 247.981 75.1384 248.23 75.1385H256.296C256.545 75.1385 256.784 75.0399 256.96 74.8641C257.137 74.6883 257.236 74.4497 257.237 74.2006V66.1367C257.237 65.8873 257.137 65.6482 256.961 65.4718C256.784 65.2954 256.545 65.196 256.296 65.1953Z" fill="#00AFEF"/>
<path d="M256.296 78.9369H248.23C247.981 78.9377 247.742 79.0373 247.566 79.2138C247.391 79.3903 247.292 79.6292 247.292 79.8783V87.9422C247.292 88.1909 247.391 88.4294 247.567 88.6053C247.743 88.7811 247.981 88.88 248.23 88.88H256.296C256.545 88.8801 256.784 88.7814 256.96 88.6057C257.137 88.4299 257.236 88.1913 257.237 87.9422V79.8783C257.237 79.6288 257.137 79.3898 256.961 79.2134C256.784 79.037 256.545 78.9376 256.296 78.9369Z" fill="#00AFEF"/>
<path d="M256.296 92.6784H248.23C247.981 92.6793 247.742 92.7788 247.566 92.9553C247.391 93.1318 247.292 93.3708 247.292 93.6199V101.68C247.292 101.804 247.316 101.926 247.363 102.04C247.41 102.154 247.479 102.258 247.566 102.345C247.653 102.433 247.756 102.502 247.87 102.55C247.984 102.597 248.107 102.621 248.23 102.622H256.296C256.545 102.621 256.785 102.522 256.961 102.346C257.138 102.169 257.237 101.93 257.237 101.68V93.6199C257.237 93.3704 257.137 93.1314 256.961 92.955C256.784 92.7785 256.545 92.6791 256.296 92.6784Z" fill="#E6E6E6"/>
<path d="M256.296 106.42H248.23C247.981 106.421 247.742 106.52 247.566 106.697C247.391 106.873 247.292 107.112 247.292 107.361V115.422C247.292 115.545 247.316 115.667 247.363 115.782C247.41 115.896 247.479 115.999 247.566 116.087C247.653 116.174 247.756 116.244 247.87 116.291C247.984 116.339 248.107 116.363 248.23 116.363H256.296C256.545 116.363 256.785 116.264 256.961 116.087C257.138 115.911 257.237 115.671 257.237 115.422V107.361C257.237 107.112 257.137 106.873 256.961 106.697C256.784 106.52 256.545 106.421 256.296 106.42Z" fill="white"/>
<path d="M256.296 120.162H248.23C248.107 120.162 247.984 120.186 247.87 120.234C247.756 120.281 247.653 120.35 247.566 120.438C247.479 120.525 247.41 120.629 247.363 120.743C247.316 120.857 247.292 120.98 247.292 121.103V129.163C247.292 129.287 247.316 129.409 247.363 129.523C247.41 129.637 247.479 129.741 247.566 129.828C247.653 129.916 247.756 129.985 247.87 130.033C247.984 130.08 248.107 130.105 248.23 130.105H256.296C256.545 130.105 256.785 130.005 256.961 129.829C257.138 129.652 257.237 129.413 257.237 129.163V121.103C257.237 120.853 257.138 120.614 256.961 120.437C256.785 120.261 256.545 120.162 256.296 120.162Z" fill="#00AFEF"/>
<path d="M273.231 65.1953H265.166C264.916 65.1962 264.678 65.2957 264.502 65.4722C264.326 65.6487 264.227 65.8876 264.228 66.1367V74.2006C264.228 74.4493 264.326 74.6878 264.502 74.8637C264.678 75.0396 264.917 75.1384 265.166 75.1385H273.231C273.48 75.1385 273.719 75.0399 273.896 74.8641C274.072 74.6883 274.172 74.4497 274.173 74.2006V66.1367C274.172 65.8873 274.073 65.6482 273.896 65.4718C273.72 65.2954 273.481 65.196 273.231 65.1953Z" fill="#00AFEF"/>
<path d="M273.231 78.9369H265.166C264.916 78.9377 264.678 79.0373 264.502 79.2138C264.326 79.3903 264.227 79.6292 264.228 79.8783V87.9422C264.228 88.1909 264.326 88.4294 264.502 88.6053C264.678 88.7811 264.917 88.88 265.166 88.88H273.231C273.48 88.8801 273.719 88.7814 273.896 88.6057C274.072 88.4299 274.172 88.1913 274.173 87.9422V79.8783C274.172 79.6288 274.073 79.3898 273.896 79.2134C273.72 79.037 273.481 78.9376 273.231 78.9369Z" fill="#00AFEF"/>
<path d="M273.231 92.6784H265.166C264.916 92.6793 264.678 92.7788 264.502 92.9553C264.326 93.1318 264.227 93.3708 264.228 93.6199V101.68C264.227 101.804 264.251 101.926 264.298 102.04C264.345 102.154 264.414 102.258 264.501 102.345C264.588 102.433 264.692 102.502 264.806 102.55C264.92 102.597 265.042 102.621 265.166 102.622H273.231C273.481 102.621 273.72 102.522 273.897 102.346C274.073 102.169 274.173 101.93 274.173 101.68V93.6199C274.172 93.3704 274.073 93.1314 273.896 92.955C273.72 92.7785 273.481 92.6791 273.231 92.6784Z" fill="#E6E6E6"/>
<path d="M273.231 106.42H265.166C264.916 106.421 264.678 106.52 264.502 106.697C264.326 106.873 264.227 107.112 264.228 107.361V115.422C264.227 115.545 264.251 115.667 264.298 115.782C264.345 115.896 264.414 115.999 264.501 116.087C264.588 116.174 264.692 116.244 264.806 116.291C264.92 116.339 265.042 116.363 265.166 116.363H273.231C273.481 116.363 273.72 116.264 273.897 116.087C274.074 115.911 274.173 115.671 274.173 115.422V107.361C274.172 107.112 274.073 106.873 273.896 106.697C273.72 106.52 273.481 106.421 273.231 106.42Z" fill="#00AFEF"/>
<path d="M273.231 120.162H265.166C265.042 120.162 264.92 120.186 264.806 120.234C264.692 120.281 264.588 120.35 264.501 120.438C264.414 120.525 264.345 120.629 264.298 120.743C264.251 120.857 264.227 120.98 264.228 121.103V129.163C264.227 129.287 264.251 129.409 264.298 129.523C264.345 129.637 264.414 129.741 264.501 129.828C264.588 129.916 264.692 129.985 264.806 130.033C264.92 130.08 265.042 130.105 265.166 130.105H273.231C273.481 130.105 273.72 130.005 273.897 129.829C274.074 129.652 274.173 129.413 274.173 129.163V121.103C274.173 120.853 274.074 120.614 273.897 120.437C273.72 120.261 273.481 120.162 273.231 120.162Z" fill="#00AFEF"/>
<path d="M290.167 65.1953H282.101C281.852 65.1962 281.613 65.2957 281.438 65.4722C281.262 65.6487 281.163 65.8876 281.163 66.1367V74.2006C281.163 74.4493 281.262 74.6878 281.438 74.8637C281.614 75.0396 281.852 75.1384 282.101 75.1385H290.167C290.416 75.1385 290.655 75.0399 290.831 74.8641C291.008 74.6883 291.107 74.4497 291.108 74.2006V66.1367C291.108 65.8873 291.008 65.6482 290.832 65.4718C290.655 65.2954 290.416 65.196 290.167 65.1953Z" fill="#E6E6E6"/>
<path d="M290.167 78.9369H282.101C281.852 78.9377 281.613 79.0373 281.438 79.2138C281.262 79.3903 281.163 79.6292 281.163 79.8783V87.9422C281.163 88.1909 281.262 88.4294 281.438 88.6053C281.614 88.7811 281.852 88.88 282.101 88.88H290.167C290.416 88.8801 290.655 88.7814 290.831 88.6057C291.008 88.4299 291.108 88.1913 291.108 87.9422V79.8783C291.108 79.6288 291.008 79.3898 290.832 79.2134C290.655 79.037 290.416 78.9376 290.167 78.9369Z" fill="#00AFEF"/>
<path d="M290.167 92.6784H282.101C281.852 92.6793 281.613 92.7788 281.438 92.9553C281.262 93.1318 281.163 93.3708 281.163 93.6199V101.68C281.163 101.804 281.187 101.926 281.234 102.04C281.281 102.154 281.35 102.258 281.437 102.345C281.524 102.433 281.627 102.502 281.741 102.55C281.855 102.597 281.978 102.621 282.101 102.622H290.167C290.416 102.621 290.656 102.522 290.832 102.346C291.009 102.169 291.108 101.93 291.108 101.68V93.6199C291.108 93.3704 291.008 93.1314 290.832 92.955C290.655 92.7785 290.416 92.6791 290.167 92.6784Z" fill="#00AFEF"/>
<path d="M290.167 106.42H282.101C281.852 106.421 281.613 106.52 281.438 106.697C281.262 106.873 281.163 107.112 281.163 107.361V115.422C281.163 115.545 281.187 115.667 281.234 115.782C281.281 115.896 281.35 115.999 281.437 116.087C281.524 116.174 281.627 116.244 281.741 116.291C281.855 116.339 281.978 116.363 282.101 116.363H290.167C290.416 116.363 290.656 116.264 290.832 116.087C291.009 115.911 291.108 115.671 291.108 115.422V107.361C291.108 107.112 291.008 106.873 290.832 106.697C290.655 106.52 290.416 106.421 290.167 106.42Z" fill="#00AFEF"/>
<path d="M290.167 120.162H282.101C281.978 120.162 281.855 120.186 281.741 120.234C281.627 120.281 281.524 120.35 281.437 120.438C281.35 120.525 281.281 120.629 281.234 120.743C281.187 120.857 281.163 120.98 281.163 121.103V129.163C281.163 129.287 281.187 129.409 281.234 129.523C281.281 129.637 281.35 129.741 281.437 129.828C281.524 129.916 281.627 129.985 281.741 130.033C281.855 130.08 281.978 130.105 282.101 130.105H290.167C290.416 130.105 290.656 130.005 290.832 129.829C291.009 129.652 291.108 129.413 291.108 129.163V121.103C291.108 120.853 291.009 120.614 290.832 120.437C290.656 120.261 290.416 120.162 290.167 120.162Z" fill="#E6E6E6"/>
<path d="M307.101 65.1953H299.036C298.787 65.1962 298.548 65.2958 298.372 65.4722C298.196 65.6487 298.098 65.8876 298.098 66.1367V74.2006C298.098 74.4493 298.197 74.6878 298.372 74.8637C298.548 75.0396 298.787 75.1384 299.036 75.1385H307.101C307.351 75.1385 307.59 75.0399 307.766 74.8641C307.943 74.6883 308.042 74.4497 308.043 74.2006V66.1367C308.042 65.8873 307.943 65.6482 307.766 65.4718C307.59 65.2954 307.351 65.196 307.101 65.1953Z" fill="#E6E6E6"/>
<path d="M307.101 78.9369H299.036C298.787 78.9377 298.548 79.0373 298.372 79.2138C298.196 79.3903 298.098 79.6292 298.098 79.8783V87.9422C298.098 88.1909 298.197 88.4294 298.372 88.6053C298.548 88.7811 298.787 88.88 299.036 88.88H307.101C307.351 88.8801 307.59 88.7814 307.766 88.6057C307.943 88.4299 308.042 88.1913 308.043 87.9422V79.8783C308.042 79.6288 307.943 79.3898 307.766 79.2134C307.59 79.037 307.351 78.9376 307.101 78.9369Z" fill="#E6E6E6"/>
<path d="M307.101 92.6784H299.036C298.787 92.6793 298.548 92.7788 298.372 92.9553C298.196 93.1318 298.098 93.3708 298.098 93.6199V101.68C298.097 101.804 298.121 101.926 298.168 102.04C298.215 102.154 298.284 102.258 298.371 102.345C298.459 102.433 298.562 102.502 298.676 102.55C298.79 102.597 298.912 102.621 299.036 102.622H307.101C307.351 102.621 307.591 102.522 307.767 102.346C307.944 102.169 308.043 101.93 308.043 101.68V93.6199C308.042 93.3704 307.943 93.1314 307.766 92.955C307.59 92.7785 307.351 92.6791 307.101 92.6784Z" fill="#00AFEF"/>
<path d="M307.101 106.42H299.036C298.787 106.421 298.548 106.52 298.372 106.697C298.196 106.873 298.098 107.112 298.098 107.361V115.422C298.097 115.545 298.121 115.667 298.168 115.782C298.215 115.896 298.284 115.999 298.371 116.087C298.459 116.174 298.562 116.244 298.676 116.291C298.79 116.339 298.912 116.363 299.036 116.363H307.101C307.351 116.363 307.591 116.264 307.767 116.087C307.944 115.911 308.043 115.671 308.043 115.422V107.361C308.042 107.112 307.943 106.873 307.766 106.697C307.59 106.52 307.351 106.421 307.101 106.42Z" fill="#E6E6E6"/>
<path d="M307.101 120.162H299.036C298.912 120.162 298.79 120.186 298.676 120.234C298.562 120.281 298.459 120.35 298.371 120.438C298.284 120.525 298.215 120.629 298.168 120.743C298.121 120.857 298.097 120.98 298.098 121.103V129.163C298.097 129.287 298.121 129.409 298.168 129.523C298.215 129.637 298.284 129.741 298.371 129.828C298.459 129.916 298.562 129.985 298.676 130.033C298.79 130.08 298.912 130.105 299.036 130.105H307.101C307.351 130.105 307.591 130.005 307.767 129.829C307.944 129.652 308.043 129.413 308.043 129.163V121.103C308.043 120.853 307.944 120.614 307.767 120.437C307.591 120.261 307.351 120.162 307.101 120.162Z" fill="#E6E6E6"/>
<path d="M121.726 239.002H121.501L121.693 238.977L121.726 239.002Z" fill="#2F2E41"/>
<path d="M102.428 88.7334C116.094 88.7334 127.173 77.6573 127.173 63.9943C127.173 50.3313 116.094 39.2552 102.428 39.2552C88.7621 39.2552 77.6836 50.3313 77.6836 63.9943C77.6836 77.6573 88.7621 88.7334 102.428 88.7334Z" fill="#FFB6B6"/>
<path d="M124.098 45.856C124.098 45.856 130.569 33.4865 116.331 32.3619C116.331 32.3619 104.193 21.3534 91.8206 30.3494C91.8206 30.3494 85.0721 30.3494 81.3818 37.9845C81.3818 37.9845 76.0742 35.9719 74.9078 41.358C74.9078 41.358 71.024 52.603 74.9078 62.7236C78.7915 72.8442 80.0816 73.9686 80.0816 73.9686C80.0816 73.9686 73.6997 52.7504 89.2337 51.6258C104.768 50.5013 122.151 40.7957 123.445 53.1653C124.74 65.5348 126.688 68.5826 126.688 68.5826C126.688 68.5826 138.983 50.9163 124.098 45.856Z" fill="#2F2E41"/>
<path d="M166.437 124.963L166.357 125.383L165.463 130.105L159.28 162.766L158.914 164.689L158.147 168.755L157.096 174.302L154.768 186.595L154.101 190.119L153.851 191.44L153.764 191.904L153.073 195.55L152.863 196.651L151.175 209.154L149.701 220.049L154.634 224.981L151.693 227.921L149.762 238.976L149.766 239.002H70.9821C67.7949 236.938 64.6536 234.81 61.5583 232.618L62.2066 227.766C62.2066 227.766 64.4375 219.101 63.4995 218.065C62.5651 217.03 60.5151 215.179 60.5151 215.179L63.0975 209.154L63.456 208.317L62.8548 195.851L62.8404 195.55L62.6412 191.44L62.6158 190.911L62.576 190.119L61.8118 174.302L61.7973 174.041L61.5655 169.247L61.3482 164.688L61.254 162.766L60.3233 143.528L59.6931 130.463L59.1426 119.09L61.3555 118.34L85.0236 110.298L94.8276 97.5558L115.233 97.7079L125.221 97.7839L141.889 113.238L145.681 115.049L145.71 115.063L148.43 116.363L155.325 119.655L162.616 123.138L166.357 124.923L166.437 124.963Z" fill="#CACACA"/>
<path d="M97.4649 201.887C95.9696 202.466 94.3655 202.711 92.7656 202.603C91.1656 202.495 89.6088 202.038 88.2046 201.264C86.8005 200.489 85.5833 199.417 84.6387 198.121C83.6941 196.826 83.0451 195.339 82.7375 193.765L44.1445 188.291L57.5605 173.119L92.1522 180.643C94.8303 180.302 97.5407 180.954 99.7698 182.477C101.999 184 103.592 186.287 104.247 188.906C104.901 191.525 104.573 194.292 103.323 196.685C102.073 199.077 99.9886 200.928 97.4649 201.887V201.887Z" fill="#FFB6B6"/>
<path d="M80.2571 174.302C79.5422 173.396 78.5302 172.772 77.3996 172.539L61.5653 169.247L59.9391 168.911C58.9941 168.713 58.1013 168.319 57.3193 167.753C56.5373 167.187 55.8836 166.462 55.401 165.626C54.9005 164.749 54.5977 163.772 54.5137 162.766C54.4382 161.85 54.5479 160.929 54.836 160.057L60.323 143.528L63.8832 132.802C64.3146 131.509 64.5693 130.163 64.6401 128.801C64.8385 125.033 63.6723 121.319 61.3552 118.34C59.3181 115.722 56.4926 113.828 53.2962 112.939C50.0999 112.049 46.7021 112.212 43.605 113.401C43.5145 113.434 43.4203 113.47 43.3297 113.506C41.1086 114.393 39.1242 115.784 37.5333 117.569C35.9424 119.355 34.7886 121.485 34.1631 123.793L30.2951 137.861L22.3163 166.861C21.5176 169.767 21.3563 172.81 21.8433 175.784C22.3304 178.758 23.4543 181.591 25.1382 184.09C26.8221 186.59 29.0262 188.695 31.5996 190.264C34.173 191.833 37.0551 192.827 40.0484 193.178L62.8546 195.851L73.4084 197.089C74.6287 197.236 75.8596 196.917 76.8556 196.197C77.8517 195.477 78.5399 194.408 78.783 193.204C78.8001 193.138 78.8134 193.072 78.8229 193.004L79.0764 191.44L81.2241 178.267L81.2458 178.133C81.3577 177.461 81.3276 176.773 81.1573 176.113C80.987 175.453 80.6803 174.836 80.2571 174.302Z" fill="#CACACA"/>
<path d="M122.046 202.309C123.608 202.672 125.231 202.688 126.8 202.355C128.369 202.023 129.845 201.351 131.126 200.387C132.407 199.422 133.461 198.189 134.213 196.773C134.966 195.357 135.398 193.793 135.481 192.192L172.916 181.332L157.494 168.202L124.31 180.529C121.61 180.568 119.019 181.596 117.027 183.418C115.035 185.24 113.78 187.729 113.501 190.414C113.222 193.099 113.938 195.793 115.513 197.985C117.088 200.177 119.413 201.716 122.046 202.309V202.309Z" fill="#FFB6B6"/>
<path d="M191.503 157.037L173.699 116.07C172.242 112.706 169.641 109.968 166.357 108.339C165.342 107.839 164.276 107.451 163.177 107.18C163.007 107.137 162.837 107.097 162.667 107.064C160.337 106.556 157.921 106.601 155.612 107.195C153.501 107.737 151.528 108.718 149.822 110.074C148.116 111.429 146.714 113.13 145.71 115.063C145.699 115.079 145.689 115.096 145.681 115.114C144.558 117.284 143.962 119.688 143.938 122.132C143.915 124.575 144.466 126.99 145.547 129.181L145.768 129.623L158.35 154.887C158.779 155.75 159.021 156.695 159.06 157.659C159.099 158.623 158.933 159.585 158.574 160.48C158.215 161.376 157.67 162.185 156.976 162.856C156.282 163.526 155.454 164.042 154.547 164.37L153.663 164.689L137.771 170.428C136.578 170.853 135.597 171.725 135.035 172.859C134.472 173.993 134.371 175.301 134.754 176.507L134.794 176.634L139.248 190.886C139.27 190.951 139.292 191.017 139.317 191.082C139.356 191.205 139.405 191.324 139.462 191.44C139.936 192.502 140.772 193.36 141.822 193.859C142.872 194.359 144.065 194.468 145.188 194.167L153.764 191.904L155.514 191.44L177.661 185.592C180.575 184.822 183.288 183.432 185.615 181.516C187.941 179.601 189.827 177.205 191.141 174.493C192.456 171.781 193.169 168.818 193.231 165.805C193.294 162.792 192.704 159.801 191.503 157.037L191.503 157.037Z" fill="#CACACA"/>
<path d="M16.2607 191.44C21.3929 197.699 26.9278 203.616 32.8302 209.154H196.522C198.1 209.156 199.611 209.784 200.726 210.899C201.841 212.015 202.468 213.526 202.469 215.103L202.705 256.574C212.775 251.948 222.205 246.042 230.762 239.002C233.138 237.05 235.441 235.014 237.669 232.893C239.129 231.51 240.553 230.093 241.943 228.642C252.36 217.792 260.796 205.201 266.868 191.44H16.2607Z" fill="#3F3D56"/>
<path d="M241.943 228.642C240.556 230.094 239.131 231.511 237.669 232.893H202.824V228.642H241.943Z" fill="white"/>
<path d="M166.111 92.6784C165.939 92.3607 165.684 92.0955 165.374 91.9107C165.063 91.7258 164.709 91.6283 164.347 91.6283H45.6119C45.0796 91.6297 44.5695 91.842 44.1934 92.2187C43.8173 92.5954 43.6059 93.1057 43.6055 93.638V164.689H166.357V93.638C166.359 93.3022 166.274 92.9717 166.111 92.6784Z" fill="#3F3D56"/>
<path d="M43.498 162.765V171.533C43.498 171.896 43.5697 172.256 43.7088 172.592C43.8479 172.928 44.0518 173.233 44.3089 173.49C44.566 173.747 44.8711 173.951 45.207 174.09C45.5429 174.229 45.9029 174.3 46.2664 174.3H91.5733V191.604H90.9714C90.9242 191.604 90.8775 191.613 90.8338 191.631C90.7902 191.649 90.7505 191.676 90.7171 191.709C90.6837 191.742 90.6573 191.782 90.6392 191.826C90.6211 191.869 90.6118 191.916 90.6118 191.963V193.167C90.6118 193.214 90.6211 193.261 90.6392 193.304C90.6572 193.348 90.6837 193.388 90.7171 193.421C90.7505 193.455 90.7902 193.481 90.8338 193.499C90.8775 193.517 90.9242 193.526 90.9714 193.526H119.097C119.145 193.526 119.191 193.517 119.235 193.499C119.279 193.481 119.318 193.455 119.352 193.421C119.385 193.388 119.412 193.348 119.43 193.304C119.448 193.261 119.457 193.214 119.457 193.167V191.963C119.457 191.916 119.448 191.869 119.43 191.826C119.412 191.782 119.385 191.742 119.352 191.709C119.318 191.676 119.279 191.649 119.235 191.631C119.191 191.613 119.145 191.604 119.097 191.604H118.495V174.3H163.802C164.166 174.3 164.526 174.229 164.862 174.09C165.198 173.951 165.503 173.747 165.76 173.49C166.017 173.233 166.221 172.928 166.36 172.592C166.499 172.256 166.571 171.896 166.571 171.533V162.765H43.498Z" fill="#3F3D56"/>
<path d="M103.547 137.6C109.809 137.6 114.886 132.525 114.886 126.264C114.886 120.004 109.809 114.928 103.547 114.928C97.2854 114.928 92.209 120.004 92.209 126.264C92.209 132.525 97.2854 137.6 103.547 137.6Z" fill="#00AFEF"/>
<path d="M132.435 62.6425H130.624C130.624 48.9553 117.076 39.9861 103.407 39.9789C101.419 39.9731 99.4352 40.166 97.4855 40.5546C95.2907 40.9928 93.0126 41.5178 90.7744 42.2022C81.9482 44.907 73.763 50.1357 73.763 62.6425C73.7611 65.0714 74.0703 67.4906 74.683 69.841L72.93 70.2972C72.2798 67.7976 71.9512 65.2253 71.9522 62.6425C71.9522 51.7144 76.4395 44.2082 84.19 39.7327C88.2645 37.3791 93.2372 35.8619 98.9342 35.1232C101.305 34.8079 103.702 34.7351 106.087 34.9059C121.806 36.0357 132.435 48.0862 132.435 62.6425Z" fill="#00AFEF"/>
<path d="M135.453 63.6455L134.739 58.3734C134.563 57.042 133.922 55.8157 132.929 54.9117C132.291 54.3224 131.527 53.8858 130.696 53.6349C129.865 53.3839 128.987 53.3253 128.13 53.4634L126.996 53.6191C126.686 53.6599 126.387 53.7619 126.117 53.9191C125.846 54.0764 125.61 54.2858 125.421 54.5352C125.23 54.7837 125.091 55.0675 125.011 55.3701C124.931 55.6728 124.911 55.9884 124.954 56.2986L126.601 68.4433C126.669 68.9383 126.891 69.3994 127.236 69.7613C127.58 70.1233 128.03 70.3678 128.521 70.4602C128.666 70.4893 128.814 70.5039 128.963 70.5036C129.069 70.5036 129.176 70.4963 129.282 70.4819L130.549 70.3117C131.322 70.2092 132.066 69.9497 132.735 69.5493C133.404 69.149 133.983 68.6161 134.439 67.9834C134.537 67.8458 134.631 67.7046 134.718 67.5597C135.397 66.375 135.656 64.9958 135.453 63.6455Z" fill="#00AFEF"/>
<path d="M126.265 53.84C125.932 54.0015 125.643 54.2398 125.421 54.5352C125.23 54.7837 125.091 55.0675 125.011 55.3702C124.931 55.6728 124.911 55.9884 124.954 56.2986L126.601 68.4433C126.669 68.9383 126.891 69.3994 127.236 69.7614C127.58 70.1233 128.03 70.3678 128.521 70.4602L126.265 53.84Z" fill="white"/>
<path d="M135.453 63.6455L134.74 58.3734C134.564 57.042 133.922 55.8157 132.929 54.9117L134.569 66.9949C134.594 67.1889 134.644 67.3788 134.718 67.5598C135.397 66.375 135.656 64.9958 135.453 63.6455Z" fill="#3F3D56"/>
<path d="M129.814 67.4441C130.31 67.3769 130.559 66.1979 130.371 64.8108C130.182 63.4236 129.628 62.3536 129.133 62.4208C128.637 62.488 128.388 63.667 128.576 65.0542C128.764 66.4413 129.319 67.5114 129.814 67.4441Z" fill="#3F3D56"/>
<path d="M128.727 60.9264C129.223 60.8592 129.472 59.6802 129.284 58.2931C129.095 56.9059 128.541 55.8359 128.046 55.9031C127.55 55.9703 127.301 57.1493 127.489 58.5364C127.677 59.9236 128.232 60.9936 128.727 60.9264Z" fill="#3F3D56"/>
<path d="M135.608 63.4611C136.104 63.3939 136.353 62.2149 136.165 60.8277C135.976 59.4406 135.422 58.3706 134.927 58.4378C134.431 58.505 134.182 59.684 134.37 61.0711C134.558 62.4583 135.113 63.5283 135.608 63.4611Z" fill="#3F3D56"/>
<path d="M103.407 39.9789C101.419 39.9731 99.4356 40.166 97.4859 40.5546C95.2911 40.9928 93.013 41.5178 90.7748 42.2022C87.2798 42.032 84.7083 41.1267 84.1904 39.7327C88.2649 37.379 93.2376 35.8619 98.9346 35.1232C101.305 34.8079 103.702 34.7351 106.088 34.9059C106.34 35.0539 106.558 35.2537 106.728 35.4921C106.898 35.7305 107.015 36.0021 107.073 36.2891C107.243 37.5492 105.805 38.889 103.407 39.9789Z" fill="#3F3D56"/>
<path d="M80.286 75.2073L77.4972 63.6166C77.3978 63.1984 77.177 62.8189 76.8625 62.5258C76.5481 62.2327 76.154 62.039 75.7298 61.969C75.61 61.9504 75.4889 61.9407 75.3676 61.9401C75.1968 61.9407 75.0266 61.9613 74.8606 62.0016L73.7813 62.2623C72.3917 62.5983 71.1922 63.4718 70.446 64.691C69.6997 65.9102 69.4678 67.3756 69.801 68.7656L71.0505 73.9653C71.3358 75.1894 72.0153 76.286 72.9845 77.0866C73.1416 77.2133 73.3061 77.3306 73.4771 77.4378C74.0842 77.8182 74.7613 78.0732 75.4686 78.1876C76.1759 78.302 76.8989 78.2736 77.595 78.1041L78.6707 77.8434C78.9551 77.777 79.2227 77.6525 79.4566 77.4776C79.8044 77.2241 80.069 76.8728 80.2167 76.4686C80.3644 76.0643 80.3885 75.6253 80.286 75.2073Z" fill="#00AFEF"/>
<path d="M74.4397 73.0507C74.9258 72.9337 75.0544 71.7355 74.7268 70.3745C74.3992 69.0135 73.7395 68.005 73.2534 68.122C72.7672 68.239 72.6386 69.4371 72.9662 70.7981C73.2938 72.1591 73.9535 73.1676 74.4397 73.0507Z" fill="#3F3D56"/>
<path d="M70.8176 74.137C71.3038 74.02 71.4323 72.8218 71.1047 71.4608C70.7772 70.0998 70.1175 69.0913 69.6313 69.2083C69.1451 69.3253 69.0165 70.5234 69.3441 71.8844C69.6717 73.2454 70.3314 74.2539 70.8176 74.137Z" fill="#3F3D56"/>
<path d="M80.4634 75.1638L77.6747 63.5731C77.566 63.1206 77.3263 62.7103 76.9855 62.3934C76.6447 62.0765 76.218 61.8672 75.7588 61.7916L79.5652 77.6224C79.9412 77.3472 80.2271 76.9668 80.387 76.5292C80.5468 76.0916 80.5734 75.6165 80.4634 75.1638Z" fill="white"/>
<path d="M70.4312 66.4699C70.3542 66.1476 70.2098 65.8452 70.0074 65.5827C69.6154 66.5978 69.5434 67.7084 69.801 68.7656L71.0505 73.9653C71.3358 75.1894 72.0153 76.286 72.9845 77.0866L70.4312 66.4699Z" fill="#3F3D56"/>
</g>
<defs>
<clipPath id="clip0_889_3522">
<rect width="308.043" height="268.252" fill="white"/>
</clipPath>
</defs>
</svg>
