<svg width="418" height="292" viewBox="0 0 418 292" fill="none" xmlns="http://www.w3.org/2000/svg">
<path d="M352.93 202.781C352.497 202.303 352.174 201.736 351.984 201.12C351.794 200.504 351.742 199.854 351.831 199.215C351.919 198.577 352.147 197.966 352.498 197.425C352.849 196.884 353.314 196.427 353.861 196.085L350.362 180.812L357.995 183.665L360.147 197.731C360.661 198.687 360.806 199.798 360.555 200.853C360.303 201.909 359.673 202.836 358.783 203.459C357.894 204.081 356.807 204.356 355.728 204.231C354.649 204.106 353.653 203.59 352.93 202.781Z" fill="#FFB8B8"/>
<path d="M352.401 190.659L345.692 177.699L346.599 145.066L347.03 145.973C347.533 147.031 359.305 171.93 358.466 180.266L359.811 187.883L352.401 190.659Z" fill="#3F3D56"/>
<path d="M348.027 286.438H353.407L355.966 265.705L348.026 265.705L348.027 286.438Z" fill="#FFB8B8"/>
<path d="M346.655 284.683L357.25 284.682H357.251C359.041 284.682 360.759 285.393 362.025 286.658C363.291 287.923 364.002 289.639 364.002 291.428V291.647L346.655 291.648L346.655 284.683Z" fill="#2F2E41"/>
<path d="M294.869 282.353L300.053 283.792L308.078 264.503L300.428 262.378L294.869 282.353Z" fill="#FFB8B8"/>
<path d="M294.017 280.295L304.225 283.13L304.226 283.131C305.951 283.61 307.415 284.754 308.296 286.312C309.176 287.87 309.401 289.713 308.922 291.437L308.863 291.648L292.149 287.005L294.017 280.295Z" fill="#2F2E41"/>
<path d="M342.663 278.355L331.805 200.684L308.354 277.916L289.914 271.625L316.342 168.209L316.516 168.196L344.202 166.272L364.205 272.078L342.663 278.355Z" fill="#2F2E41"/>
<path d="M339.791 131.608C339.791 131.608 329.698 126.347 316.094 128.539C316.094 128.539 308.853 145.992 316.094 152.94L318.069 170.41C318.069 170.41 336.5 181.371 342.644 168.656L341.766 154.188C341.766 154.188 346.154 147.249 342.644 142.169C340.539 139.065 339.535 135.348 339.791 131.608Z" fill="white"/>
<path d="M341.07 211.071L342.841 174.344L337.828 130.654L338.058 130.619C344.635 129.628 346.744 140.948 346.831 141.43L358.278 206.094L341.07 211.071Z" fill="#3F3D56"/>
<path d="M318.751 211.454L298.514 209.207L298.519 208.986C298.591 205.993 300.333 135.615 305.213 130.631C310.123 125.617 319.388 127.786 319.78 127.882L319.975 127.929L318.31 157.708L318.751 211.454Z" fill="#3F3D56"/>
<path d="M322.479 169.391C321.866 169.592 321.216 169.656 320.575 169.579C319.935 169.502 319.319 169.286 318.771 168.945C318.224 168.605 317.757 168.148 317.405 167.608C317.053 167.068 316.824 166.457 316.733 165.819L301.344 162.807L307.055 156.999L320.793 160.75C321.876 160.669 322.951 160.988 323.815 161.647C324.678 162.305 325.27 163.257 325.477 164.322C325.685 165.388 325.495 166.492 324.942 167.426C324.389 168.36 323.513 169.059 322.479 169.391Z" fill="#FFB8B8"/>
<path d="M314.266 165.865L309.252 164.788C301.849 167.013 288.928 159.182 283.706 155.704C282.723 155.049 282.405 153.753 282.759 151.85C283.281 149.189 284.749 146.807 286.892 145.143L305.285 130.572L309.927 129.797L311.306 137.604L299.587 150.179L316.838 159.56L314.266 165.865Z" fill="#3F3D56"/>
<path d="M312.283 121.93V111.807C312.283 107.524 313.986 103.417 317.017 100.388C320.049 97.3596 324.16 95.6582 328.447 95.6582C332.734 95.6582 336.845 97.3596 339.876 100.388C342.907 103.417 344.61 107.524 344.61 111.807V121.93C344.61 122.505 344.381 123.057 343.974 123.463C343.567 123.87 343.015 124.099 342.439 124.099H314.454C313.879 124.099 313.327 123.87 312.92 123.463C312.513 123.057 312.284 122.505 312.283 121.93Z" fill="#2F2E41"/>
<path d="M327.797 124C334.342 124 339.648 118.699 339.648 112.16C339.648 105.621 334.342 100.32 327.797 100.32C321.252 100.32 315.947 105.621 315.947 112.16C315.947 118.699 321.252 124 327.797 124Z" fill="#FFB8B8"/>
<path d="M315.621 112.114C315.508 111.984 315.424 111.83 315.376 111.665C315.327 111.499 315.314 111.325 315.339 111.154L316.743 101.387C316.771 101.189 316.848 101 316.967 100.838C317.086 100.677 317.243 100.548 317.425 100.462C324.59 97.1119 331.856 97.1076 339.022 100.45C339.212 100.54 339.375 100.677 339.496 100.849C339.617 101.021 339.691 101.222 339.711 101.431L340.648 111.21C340.664 111.377 340.645 111.546 340.592 111.705C340.539 111.865 340.453 112.011 340.34 112.136C340.227 112.26 340.089 112.359 339.935 112.427C339.782 112.495 339.615 112.53 339.447 112.53H337.071C336.841 112.53 336.617 112.464 336.423 112.341C336.23 112.218 336.075 112.042 335.978 111.835L334.952 109.639C334.886 109.497 334.775 109.38 334.636 109.307C334.498 109.233 334.339 109.206 334.184 109.231C334.029 109.255 333.886 109.329 333.776 109.442C333.667 109.554 333.598 109.7 333.578 109.855L333.375 111.474C333.339 111.766 333.197 112.034 332.977 112.228C332.756 112.422 332.472 112.53 332.179 112.53H316.533C316.36 112.53 316.189 112.493 316.032 112.421C315.875 112.35 315.735 112.245 315.621 112.114Z" fill="#2F2E41"/>
<path d="M265.855 19.4587H0V184.858H265.855V19.4587Z" fill="#E6E6E6"/>
<path d="M66.519 51.3225H17.8276V82.943H66.519V51.3225Z" fill="white"/>
<path d="M127.021 51.3225H78.3301V82.943H127.021V51.3225Z" fill="white"/>
<path d="M187.524 51.3225H138.833V82.943H187.524V51.3225Z" fill="white"/>
<path d="M248.027 51.3225H199.335V82.943H248.027V51.3225Z" fill="white"/>
<path d="M66.519 96.0776H17.8276V127.698H66.519V96.0776Z" fill="white"/>
<path d="M127.021 96.0776H78.3301V127.698H127.021V96.0776Z" fill="white"/>
<path d="M187.524 96.0776H138.833V127.698H187.524V96.0776Z" fill="white"/>
<path d="M248.027 96.0776H199.335V127.698H248.027V96.0776Z" fill="white"/>
<path d="M66.519 140.833H17.8276V172.454H66.519V140.833Z" fill="white"/>
<path d="M127.021 140.833H78.3301V172.454H127.021V140.833Z" fill="white"/>
<path d="M187.524 140.833H138.833V172.454H187.524V140.833Z" fill="white"/>
<path d="M248.027 140.833H199.335V172.454H248.027V140.833Z" fill="white"/>
<path d="M69.6284 38.9176C73.6621 38.9176 76.9321 35.6506 76.9321 31.6205C76.9321 27.5905 73.6621 24.3235 69.6284 24.3235C65.5947 24.3235 62.3247 27.5905 62.3247 31.6205C62.3247 35.6506 65.5947 38.9176 69.6284 38.9176Z" fill="white"/>
<path d="M190.383 38.9175C194.417 38.9175 197.687 35.6506 197.687 31.6205C197.687 27.5905 194.417 24.3235 190.383 24.3235C186.35 24.3235 183.08 27.5905 183.08 31.6205C183.08 35.6506 186.35 38.9175 190.383 38.9175Z" fill="white"/>
<path d="M72.55 0H66.707V33.5664H72.55V0Z" fill="#E6E6E6"/>
<path d="M193.304 0H187.461V33.5664H193.304V0Z" fill="#E6E6E6"/>
<path d="M52.9598 67.1327C52.9573 69.7745 52.0007 72.3266 50.2657 74.3202C48.5307 76.3137 46.134 77.6148 43.5158 77.9843C40.8976 78.3539 38.2338 77.767 36.014 76.3316C33.7942 74.8962 32.1674 72.7087 31.4326 70.171C30.6977 67.6333 30.9041 64.9159 32.0139 62.518C33.1237 60.1202 35.0623 58.203 37.4736 57.1188C39.8848 56.0346 42.6067 55.8561 45.139 56.6162C47.6714 57.3763 49.8442 59.0239 51.2581 61.2562C52.3716 63.0142 52.9618 65.0523 52.9598 67.1327Z" fill="#00AFEF"/>
<path d="M51.258 61.2563L40.4193 72.0831C39.7381 71.0294 35.9429 66.1326 35.9429 66.1326C36.4292 65.6415 36.9483 65.1838 37.4964 64.7625L40.6435 68.9549L49.9887 59.6182C50.4626 60.1229 50.8876 60.6714 51.258 61.2563Z" fill="white"/>
</svg>
