<svg width="308" height="289" viewBox="0 0 308 289" fill="none" xmlns="http://www.w3.org/2000/svg">
<g clip-path="url(#clip0_847_3672)">
<path d="M30.8586 263.123L30.3873 252.554C25.4743 249.935 19.9946 248.551 14.4238 248.524C22.0908 254.775 21.1327 266.827 26.3307 275.234C27.9721 277.844 30.1812 280.051 32.7944 281.694C35.4077 283.336 38.358 284.371 41.4267 284.722L47.8427 288.64C48.7231 283.745 48.529 278.718 47.2738 273.905C46.0186 269.092 43.7321 264.607 40.5719 260.76C38.7776 258.62 36.7201 256.713 34.4481 255.085C32.9114 259.126 30.8586 263.123 30.8586 263.123Z" fill="#F2F2F2"/>
<path d="M204.407 69.0168H112.596C108.731 69.0168 105.598 72.1416 105.598 75.9963V123.281C105.598 127.136 108.731 130.26 112.596 130.26H204.407C208.272 130.26 211.405 127.136 211.405 123.281V75.9963C211.405 72.1416 208.272 69.0168 204.407 69.0168Z" fill="white"/>
<path d="M204.406 130.732H112.595C110.615 130.729 108.716 129.944 107.315 128.547C105.915 127.15 105.127 125.257 105.125 123.281V75.9964C105.127 74.0211 105.915 72.1273 107.315 70.7306C108.716 69.3338 110.615 68.5482 112.595 68.5459H204.406C206.387 68.5482 208.286 69.3339 209.686 70.7307C211.086 72.1274 211.874 74.0211 211.876 75.9964V123.281C211.874 125.257 211.086 127.15 209.686 128.547C208.286 129.944 206.387 130.729 204.406 130.732ZM112.595 69.4881C110.865 69.49 109.206 70.1764 107.983 71.3965C106.76 72.6166 106.072 74.2709 106.07 75.9964V123.281C106.072 125.007 106.76 126.661 107.983 127.881C109.206 129.101 110.865 129.788 112.595 129.79H204.406C206.137 129.788 207.795 129.101 209.018 127.881C210.242 126.661 210.93 125.007 210.932 123.281V75.9964C210.93 74.2709 210.242 72.6167 209.018 71.3966C207.795 70.1764 206.137 69.4901 204.406 69.4881H112.595Z" fill="#3F3D56"/>
<path d="M300.766 61.7147H208.955C207.037 61.7126 205.198 60.9518 203.842 59.5992C202.486 58.2466 201.723 56.4127 201.721 54.4998V7.21494C201.723 5.30204 202.486 3.46811 203.842 2.1155C205.198 0.762897 207.037 0.00209357 208.955 0H300.766C302.684 0.00218837 304.523 0.763041 305.879 2.11564C307.235 3.46823 307.998 5.30211 308 7.21494V54.4998C307.998 56.4126 307.235 58.2465 305.879 59.5991C304.523 60.9517 302.684 61.7126 300.766 61.7147Z" fill="#F2F2F2"/>
<path d="M300.766 199.277H208.955C207.037 199.275 205.198 198.515 203.842 197.162C202.486 195.809 201.723 193.975 201.721 192.062V144.778C201.723 142.865 202.486 141.031 203.842 139.678C205.198 138.326 207.037 137.565 208.955 137.563H300.766C302.684 137.565 304.523 138.326 305.879 139.678C307.235 141.031 307.998 142.865 308 144.778V192.062C307.998 193.975 307.235 195.809 305.879 197.162C304.523 198.514 302.684 199.275 300.766 199.277Z" fill="#F2F2F2"/>
<path d="M184.906 92.8872C184.297 90.665 183.044 88.671 181.305 87.1544C179.567 85.6377 177.418 84.6656 175.129 84.3594C175.078 84.3519 175.03 84.3618 174.979 84.3584C174.914 84.3374 174.848 84.3213 174.78 84.3102C164.101 82.8616 151.773 88.2221 147.322 98.8478C145.118 95.7845 141.605 93.8054 137.847 94.0022C133.053 94.2532 128.823 97.9156 127.527 102.733C127.455 103.022 127.475 103.327 127.583 103.605C127.69 103.883 127.881 104.121 128.13 104.287C128.826 104.91 129.663 105.356 130.569 105.587C132.509 106.018 134.455 106.413 136.409 106.772C140.22 107.472 144.051 108.038 147.903 108.47C155.717 109.349 163.585 109.661 171.445 109.404C174.062 109.318 176.587 109.227 178.985 108.015C180.748 107.093 182.239 105.728 183.31 104.054C184.341 102.406 185.015 100.561 185.29 98.6386C185.565 96.7157 185.434 94.7568 184.906 92.8872Z" fill="#3F3D56"/>
<path d="M183.73 93.4501C183.152 91.4789 181.999 89.7242 180.417 88.4096C178.773 87.0714 176.786 86.2184 174.681 85.9469H174.554L174.435 85.9257C174.398 85.9139 174.359 85.9047 174.32 85.8984C170.798 85.4811 167.229 85.7357 163.803 86.6488C157.217 88.3763 150.98 92.4668 148.068 99.0653L147.653 100.012L147.031 99.1864C146.075 97.8832 144.829 96.8188 143.391 96.0765C141.953 95.3343 140.362 94.9344 138.743 94.9083C138.586 94.9083 138.428 94.9113 138.267 94.9204C136.075 95.0611 133.98 95.875 132.27 97.2504C130.561 98.6258 129.32 100.495 128.718 102.602C128.687 102.755 128.705 102.913 128.769 103.054C128.834 103.196 128.941 103.314 129.076 103.392L129.124 103.428C129.736 103.945 130.46 104.313 131.238 104.502C133.122 104.901 135.039 105.271 136.935 105.6C140.612 106.242 144.386 106.771 148.147 107.174C154.8 107.886 161.49 108.196 168.18 108.102C169.16 108.09 170.138 108.069 171.114 108.039C173.625 107.963 176.001 107.888 178.251 106.808C179.864 106.011 181.242 104.81 182.25 103.322C183.203 101.884 183.83 100.255 184.086 98.5496C184.341 96.8442 184.22 95.1037 183.73 93.4501Z" fill="white"/>
<path d="M168.18 108.103C161.49 108.196 154.8 107.886 148.147 107.174C144.386 106.771 140.612 106.242 136.935 105.6C135.039 105.271 133.122 104.902 131.238 104.502C130.46 104.313 129.736 103.945 129.124 103.428L129.076 103.392C128.941 103.314 128.834 103.196 128.769 103.054C128.705 102.913 128.687 102.755 128.718 102.602C129.32 100.495 130.561 98.6259 132.27 97.2506C133.98 95.8752 136.075 95.0613 138.267 94.9206C138.428 94.9115 138.586 94.9085 138.743 94.9085C140.362 94.9345 141.953 95.3344 143.391 96.0767C144.829 96.8189 146.075 97.8833 147.031 99.1865L147.653 100.012L148.068 99.0655C150.98 92.4669 157.217 88.3765 163.803 86.6489C165.132 87.847 165.987 89.6835 165.502 91.3868C164.916 93.4532 162.599 94.7421 162.21 96.8539C161.855 98.7811 163.239 100.572 164.661 101.922C166.084 103.268 167.731 104.62 168.144 106.532C168.254 107.049 168.267 107.581 168.18 108.103Z" fill="#00AFEF"/>
<path d="M173.898 102.23C176.913 102.23 179.358 99.7919 179.358 96.7842C179.358 93.7766 176.913 91.3384 173.898 91.3384C170.882 91.3384 168.438 93.7766 168.438 96.7842C168.438 99.7919 170.882 102.23 173.898 102.23Z" fill="#3F3D56"/>
<path d="M176.186 96.2032L174.138 94.161C174.107 94.1294 174.069 94.1043 174.028 94.0872C173.986 94.0701 173.942 94.0613 173.897 94.0613C173.852 94.0613 173.808 94.0701 173.767 94.0872C173.725 94.1043 173.688 94.1294 173.656 94.161L171.608 96.2032C171.576 96.2348 171.551 96.2723 171.534 96.3136C171.517 96.3549 171.508 96.3992 171.508 96.444C171.508 96.4887 171.517 96.533 171.534 96.5744C171.551 96.6158 171.576 96.6533 171.608 96.685C171.639 96.7166 171.677 96.7417 171.719 96.7588C171.76 96.7759 171.805 96.7847 171.849 96.7846C171.894 96.7846 171.939 96.7757 171.98 96.7586C172.022 96.7414 172.059 96.7162 172.091 96.6845L173.556 95.2233V99.1668C173.556 99.257 173.592 99.3436 173.656 99.4074C173.72 99.4713 173.807 99.5071 173.897 99.5071C173.988 99.5071 174.074 99.4713 174.138 99.4074C174.202 99.3436 174.238 99.257 174.238 99.1668V95.2233L175.703 96.6845C175.768 96.7479 175.854 96.7835 175.944 96.7833C176.035 96.7831 176.121 96.7473 176.185 96.6836C176.249 96.6199 176.285 96.5336 176.285 96.4436C176.285 96.3535 176.25 96.2671 176.186 96.2032H176.186Z" fill="white"/>
<path d="M272.807 44.7836H240.229C239.566 44.7828 238.929 44.5196 238.46 44.0517C237.991 43.5838 237.727 42.9494 237.727 42.2877V12.6245C237.727 11.9628 237.991 11.3284 238.46 10.8605C238.929 10.3926 239.566 10.1294 240.229 10.1287H272.807C273.471 10.1294 274.107 10.3926 274.576 10.8605C275.045 11.3284 275.309 11.9628 275.31 12.6245V42.2877C275.309 42.9494 275.045 43.5838 274.576 44.0517C274.107 44.5196 273.471 44.7828 272.807 44.7836Z" fill="white"/>
<path d="M272.807 45.2549H240.229C239.44 45.254 238.684 44.9411 238.126 44.3849C237.569 43.8287 237.255 43.0746 237.254 42.2879V12.6247C237.255 11.8381 237.569 11.0839 238.126 10.5277C238.684 9.97148 239.44 9.65861 240.229 9.65771H272.807C273.596 9.65861 274.352 9.97148 274.91 10.5277C275.467 11.0839 275.781 11.8381 275.782 12.6247V42.2879C275.781 43.0746 275.467 43.8287 274.91 44.3849C274.352 44.9411 273.596 45.254 272.807 45.2549ZM240.229 10.5999C239.69 10.6006 239.175 10.8141 238.794 11.1937C238.413 11.5733 238.199 12.0879 238.199 12.6247V42.288C238.199 42.8248 238.413 43.3394 238.794 43.719C239.175 44.0985 239.69 44.3121 240.229 44.3127H272.807C273.345 44.3121 273.861 44.0985 274.242 43.719C274.622 43.3394 274.836 42.8248 274.837 42.288V12.6247C274.836 12.0879 274.622 11.5732 274.242 11.1937C273.861 10.8141 273.345 10.6006 272.807 10.5999L240.229 10.5999Z" fill="#CCCCCC"/>
<path d="M249.826 24.1888C252.069 24.1888 253.887 22.3755 253.887 20.1387C253.887 17.9019 252.069 16.0886 249.826 16.0886C247.584 16.0886 245.766 17.9019 245.766 20.1387C245.766 22.3755 247.584 24.1888 249.826 24.1888Z" fill="#CCCCCC"/>
<path d="M266.059 30.3449H246.975C246.654 30.3449 246.347 30.2179 246.12 29.9917C245.893 29.7655 245.766 29.4587 245.766 29.1389C245.766 28.819 245.893 28.5123 246.12 28.2861C246.347 28.0599 246.654 27.9329 246.975 27.9329H266.059C266.38 27.9329 266.687 28.0599 266.914 28.2861C267.141 28.5123 267.268 28.819 267.268 29.1389C267.268 29.4587 267.141 29.7655 266.914 29.9917C266.687 30.2179 266.38 30.3449 266.059 30.3449Z" fill="#CCCCCC"/>
<path d="M256.184 35.1104H246.975C246.654 35.1104 246.347 34.9834 246.12 34.7572C245.893 34.531 245.766 34.2242 245.766 33.9043C245.766 33.5845 245.893 33.2777 246.12 33.0515C246.347 32.8253 246.654 32.6982 246.975 32.6982H256.184C256.343 32.6979 256.5 32.7289 256.647 32.7894C256.794 32.8498 256.928 32.9386 257.041 33.0507C257.153 33.1627 257.242 33.2958 257.303 33.4422C257.364 33.5887 257.396 33.7458 257.396 33.9043C257.396 34.0629 257.364 34.22 257.303 34.3665C257.242 34.5129 257.153 34.646 257.041 34.758C256.928 34.8701 256.794 34.9588 256.647 35.0193C256.5 35.0798 256.343 35.1108 256.184 35.1104Z" fill="#CCCCCC"/>
<path d="M239.549 53.4897C237.853 53.4897 236.195 52.9881 234.785 52.0484C233.375 51.1088 232.276 49.7732 231.627 48.2106C230.978 46.6479 230.809 44.9285 231.139 43.2696C231.47 41.6107 232.287 40.087 233.486 38.891C234.685 37.695 236.213 36.8805 237.876 36.5506C239.539 36.2206 241.263 36.3899 242.83 37.0372C244.397 37.6845 245.736 38.7805 246.678 40.1869C247.62 41.5932 248.123 43.2466 248.123 44.9379C248.123 47.206 247.22 49.3812 245.612 50.9849C244.004 52.5887 241.823 53.4897 239.549 53.4897Z" fill="#CCCCCC"/>
<path d="M242.933 44.0942H240.395V41.5635C240.395 41.3401 240.305 41.1261 240.147 40.9683C239.988 40.8105 239.773 40.7219 239.549 40.7219C239.325 40.7219 239.111 40.8105 238.952 40.9683C238.793 41.1261 238.704 41.3401 238.704 41.5635V44.0942H236.166C235.942 44.0942 235.727 44.1831 235.568 44.3413C235.409 44.4995 235.32 44.7141 235.32 44.9378C235.32 45.1615 235.409 45.3761 235.568 45.5343C235.727 45.6925 235.942 45.7814 236.166 45.7814H238.704V48.3121C238.704 48.5358 238.793 48.7504 238.951 48.9086C239.11 49.0668 239.325 49.1557 239.549 49.1557C239.774 49.1557 239.989 49.0668 240.147 48.9086C240.306 48.7504 240.395 48.5358 240.395 48.3121V45.7814H242.933C243.157 45.7814 243.372 45.6925 243.531 45.5343C243.689 45.3761 243.778 45.1615 243.778 44.9378C243.778 44.7141 243.689 44.4995 243.531 44.3413C243.372 44.1831 243.157 44.0942 242.933 44.0942V44.0942Z" fill="white"/>
<path d="M238.98 179.452C238.963 179.452 238.946 179.451 238.929 179.451C238.727 179.443 238.53 179.388 238.355 179.288C238.18 179.189 238.031 179.048 237.922 178.879C237.103 177.659 236.098 176.573 234.943 175.662C234.244 175.105 233.514 174.586 232.808 174.085C230.986 172.793 229.269 171.576 228.317 169.894C226.24 166.228 228.686 161.12 232.18 158.83C236.099 156.261 241.254 155.858 246.241 155.805C246.759 155.799 247.278 155.797 247.797 155.797C256.782 155.8 265.748 156.618 274.585 158.24C277.524 158.78 280.599 159.443 283.071 161.05C285.528 162.648 287.022 165.165 286.876 167.461C286.663 170.814 283.1 173.319 279.855 173.974C276.762 174.598 273.549 174.176 270.147 173.73C269.396 173.632 268.62 173.53 267.852 173.441C259.507 172.479 243.831 175.444 243.168 175.571L242.51 175.697L239.957 178.973C239.842 179.123 239.694 179.243 239.525 179.326C239.355 179.409 239.169 179.452 238.98 179.452Z" fill="white"/>
<path d="M238.98 179.923L238.916 179.922C238.638 179.913 238.367 179.836 238.125 179.7C237.883 179.563 237.677 179.371 237.526 179.138C236.735 177.959 235.764 176.91 234.648 176.03C233.957 175.479 233.233 174.966 232.533 174.47C230.669 173.147 228.909 171.899 227.905 170.126C225.7 166.233 228.252 160.841 231.92 158.435C235.94 155.8 241.176 155.388 246.235 155.334C246.755 155.328 247.276 155.325 247.796 155.325C256.81 155.329 265.805 156.149 274.67 157.776C277.656 158.326 280.783 159 283.329 160.655C285.926 162.345 287.503 165.028 287.347 167.491C287.119 171.078 283.365 173.746 279.948 174.436C276.777 175.076 273.526 174.649 270.085 174.197C269.336 174.099 268.562 173.998 267.797 173.909C259.502 172.955 243.916 175.907 243.256 176.034L242.773 176.126L240.329 179.262C240.17 179.468 239.966 179.635 239.732 179.749C239.498 179.864 239.24 179.923 238.98 179.923ZM247.796 156.268C247.279 156.268 246.762 156.27 246.245 156.276C241.33 156.328 236.255 156.721 232.439 159.223C229.119 161.399 226.779 166.222 228.728 169.662C229.628 171.253 231.305 172.442 233.08 173.701C233.791 174.206 234.526 174.727 235.238 175.294C236.431 176.236 237.47 177.359 238.316 178.621C238.384 178.727 238.478 178.815 238.587 178.877C238.697 178.94 238.821 178.975 238.947 178.98L238.98 178.981C239.096 178.981 239.212 178.955 239.317 178.904C239.421 178.852 239.513 178.777 239.583 178.684L242.246 175.267L243.078 175.108C243.743 174.981 259.468 171.999 267.906 172.973C268.676 173.062 269.455 173.164 270.208 173.263C273.569 173.705 276.743 174.121 279.76 173.512C282.833 172.892 286.206 170.55 286.404 167.431C286.539 165.301 285.129 162.951 282.813 161.445C280.414 159.885 277.39 159.235 274.499 158.703C265.69 157.086 256.753 156.271 247.796 156.268H247.796Z" fill="#CCCCCC"/>
<path d="M276.14 163.096H240.869C240.666 163.095 240.471 163.014 240.328 162.871C240.184 162.727 240.104 162.533 240.104 162.33C240.104 162.128 240.184 161.933 240.328 161.79C240.471 161.646 240.666 161.565 240.869 161.565H276.14C276.343 161.565 276.538 161.646 276.681 161.79C276.825 161.933 276.905 162.128 276.905 162.33C276.905 162.533 276.825 162.727 276.681 162.871C276.538 163.014 276.343 163.095 276.14 163.096Z" fill="#CCCCCC"/>
<path d="M276.14 167.794H240.87C240.769 167.794 240.669 167.774 240.575 167.736C240.482 167.698 240.397 167.642 240.326 167.571C240.254 167.5 240.197 167.415 240.159 167.322C240.12 167.229 240.1 167.13 240.1 167.029C240.1 166.928 240.119 166.829 240.158 166.736C240.196 166.643 240.253 166.558 240.324 166.487C240.396 166.416 240.481 166.359 240.574 166.321C240.667 166.283 240.767 166.263 240.868 166.263H276.14C276.343 166.263 276.538 166.344 276.682 166.488C276.825 166.631 276.906 166.826 276.906 167.028C276.906 167.231 276.825 167.425 276.682 167.569C276.538 167.712 276.343 167.793 276.14 167.794Z" fill="#CCCCCC"/>
<path d="M244.979 172.491H240.869C240.666 172.491 240.471 172.41 240.328 172.267C240.184 172.123 240.104 171.929 240.104 171.726C240.104 171.523 240.184 171.329 240.328 171.186C240.471 171.042 240.666 170.961 240.869 170.961H244.979C245.182 170.961 245.377 171.042 245.521 171.186C245.664 171.329 245.745 171.523 245.745 171.726C245.745 171.929 245.664 172.123 245.521 172.267C245.377 172.41 245.182 172.491 244.979 172.491Z" fill="#CCCCCC"/>
<path d="M238.944 188.048C241.766 188.048 244.053 185.766 244.053 182.951C244.053 180.137 241.766 177.855 238.944 177.855C236.122 177.855 233.834 180.137 233.834 182.951C233.834 185.766 236.122 188.048 238.944 188.048Z" fill="white"/>
<path d="M238.944 188.11C237.921 188.11 236.921 187.808 236.07 187.241C235.22 186.674 234.557 185.868 234.165 184.926C233.774 183.983 233.671 182.946 233.871 181.945C234.07 180.945 234.563 180.026 235.286 179.304C236.01 178.583 236.931 178.091 237.935 177.892C238.938 177.693 239.978 177.795 240.923 178.186C241.868 178.576 242.676 179.237 243.244 180.086C243.812 180.934 244.116 181.931 244.116 182.952C244.114 184.319 243.569 185.63 242.599 186.597C241.629 187.565 240.315 188.109 238.944 188.11Z" fill="#CCCCCC"/>
<path d="M238.56 184.988C238.549 184.988 238.538 184.988 238.527 184.987C238.431 184.983 238.337 184.957 238.251 184.913C238.166 184.869 238.091 184.806 238.032 184.731L237.178 183.636C237.124 183.567 237.084 183.488 237.061 183.403C237.038 183.319 237.031 183.231 237.042 183.144C237.053 183.057 237.081 182.973 237.124 182.897C237.168 182.821 237.226 182.754 237.295 182.7L237.326 182.676C237.395 182.622 237.475 182.583 237.559 182.559C237.644 182.536 237.732 182.53 237.819 182.541C237.907 182.551 237.991 182.579 238.067 182.623C238.143 182.666 238.21 182.724 238.264 182.793C238.307 182.848 238.362 182.894 238.424 182.926C238.487 182.958 238.555 182.977 238.625 182.98C238.695 182.983 238.765 182.972 238.831 182.946C238.896 182.92 238.954 182.88 239.003 182.829L240.737 181.003C240.859 180.875 241.027 180.8 241.204 180.796C241.381 180.791 241.553 180.856 241.682 180.978L241.71 181.005C241.774 181.065 241.825 181.137 241.861 181.217C241.897 181.297 241.916 181.383 241.919 181.471C241.921 181.558 241.906 181.646 241.875 181.727C241.843 181.809 241.796 181.884 241.736 181.947L239.045 184.78C238.983 184.846 238.907 184.898 238.824 184.934C238.741 184.97 238.651 184.988 238.56 184.988Z" fill="white"/>
<path d="M77.8601 157.547C77.6556 157.548 77.4516 157.567 77.2506 157.604L73.9055 136.484L77.2567 116.151C77.4675 114.872 77.1841 113.561 76.4638 112.482C75.7435 111.403 74.6398 110.637 73.3752 110.338C72.1107 110.039 70.7795 110.229 69.65 110.87C68.5206 111.512 67.677 112.556 67.2893 113.793C66.0331 117.803 65.4114 121.983 65.4467 126.183L65.5636 140.049L74.4813 161.345C74.5593 161.995 74.8238 162.608 75.2431 163.111C75.6623 163.615 76.2184 163.986 76.8445 164.182C77.4706 164.377 78.1399 164.388 78.772 164.213C79.4041 164.038 79.9719 163.684 80.4073 163.195C80.8427 162.705 81.1269 162.101 81.2259 161.454C81.3249 160.807 81.2344 160.146 80.9653 159.549C80.6962 158.952 80.2599 158.446 79.709 158.091C79.1581 157.735 78.5161 157.547 77.86 157.547L77.8601 157.547Z" fill="#FFB8B8"/>
<path d="M63.6602 116.972C63.6593 115.914 63.8676 114.866 64.273 113.889C64.6785 112.911 65.2732 112.022 66.0231 111.274C66.773 110.525 67.6634 109.931 68.6435 109.526C69.6237 109.121 70.6742 108.913 71.7351 108.913C72.7961 108.913 73.8466 109.121 74.8267 109.526C75.8068 109.931 76.6973 110.525 77.4472 111.274C78.1971 112.022 78.7918 112.911 79.1972 113.889C79.6027 114.866 79.8109 115.914 79.8101 116.972L74.5613 135.438L65.4465 134.987L63.6602 116.972Z" fill="#2F2E41"/>
<path d="M82.8115 278.953L88.023 278.953L90.5023 258.904L82.8105 258.904L82.8115 278.953Z" fill="#FFB8B8"/>
<path d="M97.1163 284.812L89.2849 279.417V275.898L88.3967 275.95L82.8136 276.285L81.0468 276.388L80.0408 288.42L80.0078 288.821H83.7064L83.7818 288.42L84.3676 285.339L85.8649 288.42L86.0587 288.821H95.8646C96.4485 288.819 97.0082 288.588 97.4215 288.177C97.8348 287.765 98.0681 287.208 98.0705 286.625C98.0708 286.268 97.9841 285.917 97.8179 285.601C97.6517 285.285 97.4109 285.014 97.1163 284.812Z" fill="#2F2E41"/>
<path d="M51.5547 266.971L55.6958 270.127L69.8716 255.699L63.7598 251.041L51.5547 266.971Z" fill="#FFB8B8"/>
<path d="M59.3548 280.289L56.4161 271.261L58.5585 268.464L57.8213 267.968L53.1815 264.853L51.7146 263.865L43.5903 272.816L43.3203 273.114L46.2591 275.354L46.5628 275.081L48.9039 272.988L48.218 276.343L48.1281 276.778L55.9196 282.717C56.3842 283.069 56.9698 283.224 57.5486 283.148C58.1274 283.071 58.6524 282.769 59.0088 282.308C59.2262 282.025 59.3714 281.693 59.4317 281.341C59.492 280.99 59.4656 280.628 59.3548 280.289Z" fill="#2F2E41"/>
<path d="M72.6983 180.362L77.9084 196.309C77.9084 196.309 79.76 213.326 81.7392 217.095C82.1088 217.86 82.3634 218.676 82.4949 219.516C82.5516 219.799 82.5941 220.095 82.6319 220.392C82.7075 220.981 82.7595 221.589 82.7925 222.201C82.8916 224.803 82.7794 227.409 82.4572 229.993C81.5219 230.804 80.837 238.111 80.3599 247.123C80.308 248.06 80.2591 249.013 80.2135 249.982C80.119 251.937 80.034 253.944 79.9584 255.961C79.4152 269.971 79.7175 266.975 79.7175 266.975C92.9245 269.392 92.3813 265.034 92.3813 265.034C92.3813 265.034 96.9159 244.828 98.0873 235.623C98.229 234.549 98.3141 233.861 98.333 233.663C98.3849 232.689 98.5643 231.726 98.8667 230.799C99.1229 230.435 99.3518 230.052 99.5516 229.654C99.5523 229.654 99.5529 229.654 99.5535 229.654C99.554 229.654 99.5546 229.653 99.555 229.653C99.5554 229.652 99.5558 229.652 99.556 229.651C99.5562 229.651 99.5564 229.65 99.5563 229.649C100.491 227.626 101.017 225.44 101.106 223.214C101.173 222.25 101.176 221.282 101.115 220.317C101.041 214.67 101.52 209.029 102.546 203.475C103.373 199.682 102.835 192.352 102.102 186.072C101.805 183.481 101.469 181.069 101.191 179.161C101.177 179.081 101.167 179.001 101.158 178.921C100.799 176.523 100.534 174.978 100.534 174.978C100.534 174.978 101.739 170.86 100.846 169.339C100.435 168.655 100.492 167.044 100.666 165.452C100.884 163.511 101.29 161.702 101.29 161.702L76.7606 157.391C76.2457 158.244 75.7876 159.068 75.3388 159.865C67.2285 174.813 72.6983 180.362 72.6983 180.362Z" fill="#2F2E41"/>
<path d="M65.6864 112.145C65.9593 111.395 66.4172 110.725 67.018 110.197C67.6187 109.669 68.343 109.3 69.124 109.125C70.2818 108.796 71.4867 108.665 72.6882 108.736C76.2054 108.874 78.6844 102.274 82.1672 102.783C82.1672 102.783 85.4452 101.616 88.0101 103.754C90.3402 105.697 91.9464 110.979 92.5444 110.679C92.8273 110.615 93.1209 110.615 93.4037 110.679C95.8115 111.017 98.0027 112.249 99.5388 114.128C101.075 116.008 101.843 118.397 101.689 120.817L101.435 125.102C101.435 125.102 103.227 127.792 100.627 132.541L102.136 149.296C102.136 149.296 104.651 172.636 100.873 175.958C97.0944 179.279 83.1762 164.797 83.1762 164.797C83.1762 164.797 72.4836 163.097 73.1166 161.125C73.7496 159.154 77.0703 153.686 77.0703 153.686C77.1475 153.381 77.1383 153.06 77.0437 152.76C76.9491 152.46 76.7729 152.192 76.5347 151.986C75.7264 151.471 76.6321 150.306 76.7003 150.199C76.6223 150.276 76.0088 150.918 75.5414 149.567C75.074 148.217 76.5152 146.518 76.5152 146.518L72.4447 137.777L69.2408 130.871L68.8513 130.075L66.1537 124.519L66.0912 124.39C64.6672 121.429 64.352 118.057 65.2027 114.885C65.4838 113.997 65.6465 113.076 65.6864 112.145Z" fill="#00AFEF"/>
<path d="M57.2188 255.009C66.9067 264.28 68.8575 260.337 68.8575 260.337C68.8575 260.337 74.0959 254.321 80.3593 247.123C82.6077 244.541 84.9836 241.809 87.2982 239.147C90.496 235.468 93.571 231.925 96.0178 229.108C98.7244 225.984 100.652 223.751 101.105 223.214C101.172 222.25 101.175 221.282 101.114 220.317C101.04 214.67 101.519 209.029 102.546 203.475C103.372 199.682 102.834 192.352 102.102 186.072C101.006 188.348 99.7399 191.047 98.6913 193.539C97.5199 196.314 96.6082 198.825 96.4665 200.191C96.0178 204.398 89.9481 211.352 89.9481 211.352L89.8772 211.366C88.8806 211.63 86.0701 214.89 82.4944 219.516C72.7261 232.151 57.2188 255.009 57.2188 255.009Z" fill="#2F2E41"/>
<path d="M136.616 107.702C136.64 107.904 136.682 108.104 136.742 108.299L116.084 114.015L95.4486 113.006C94.1505 112.942 92.8766 113.372 91.8838 114.208C90.8909 115.045 90.2531 116.226 90.0988 117.513C89.9446 118.8 90.2854 120.097 91.0525 121.143C91.8197 122.19 92.9561 122.907 94.2326 123.15C98.3693 123.939 102.604 124.08 106.784 123.567L120.584 121.875L140.784 110.618C141.422 110.467 142.003 110.135 142.457 109.662C142.91 109.19 143.217 108.596 143.341 107.954C143.464 107.311 143.399 106.647 143.152 106.04C142.906 105.434 142.489 104.911 141.952 104.536C141.415 104.16 140.781 103.947 140.125 103.922C139.47 103.898 138.821 104.063 138.257 104.397C137.694 104.732 137.239 105.221 136.948 105.808C136.656 106.394 136.541 107.052 136.616 107.702L136.616 107.702Z" fill="#FFB8B8"/>
<path d="M97.8113 126.386C96.7574 126.507 95.6901 126.419 94.6702 126.129C93.6503 125.838 92.6978 125.35 91.8672 124.692C91.0366 124.034 90.3441 123.219 89.8293 122.294C89.3144 121.369 88.9874 120.352 88.8668 119.301C88.7462 118.25 88.8344 117.185 89.1264 116.168C89.4185 115.151 89.9085 114.201 90.5687 113.373C91.2288 112.545 92.046 111.855 92.9737 111.342C93.9014 110.829 94.9213 110.503 95.9753 110.383L114.967 113.485L115.553 122.568L97.8113 126.386Z" fill="#2F2E41"/>
<path d="M94.5008 95.7209C93.329 97.858 91.4624 99.5333 89.2083 100.471C86.9543 101.409 84.4473 101.553 82.1001 100.88C79.753 100.207 77.7057 98.7563 76.2954 96.7676C74.8851 94.779 74.1959 92.3706 74.3413 89.9391C74.4868 87.5076 75.4581 85.198 77.0954 83.3907C78.7327 81.5833 80.9383 80.386 83.3491 79.9958C85.7598 79.6057 88.2319 80.046 90.3581 81.2443C92.4844 82.4426 94.1381 84.3274 95.047 86.5883C95.0961 86.711 95.1404 86.8337 95.1847 86.9613C95.6985 88.3865 95.9032 89.9043 95.7853 91.4143C95.6674 92.9242 95.2296 94.3921 94.5008 95.7209Z" fill="#FFB6B6"/>
<path d="M96.0476 86.9613C95.585 85.6707 95.7868 86.343 95.3194 85.0573C95.4697 85.6907 95.4234 86.3548 95.1865 86.9613H82.3887V79.5414C86.138 78.0594 89.8036 76.7982 92.0178 79.5414C93.9909 79.5415 95.8831 80.3233 97.2783 81.7148C98.6734 83.1062 99.4573 84.9935 99.4574 86.9613H96.0476Z" fill="#2F2E41"/>
<path d="M91.5105 107.587C91.5007 107.45 91.4859 107.307 91.4662 107.17C91.2943 106.162 91.0155 105.175 90.6347 104.225C90.2656 103.19 89.8917 102.15 89.5178 101.114C89.9993 102.994 89.8525 104.979 89.0995 106.767C86.9395 105.089 88.3025 101.252 85.4782 101.252C78.6881 101.252 71.7012 95.7603 71.7012 88.9832C71.7012 82.2111 74.614 77.1467 81.4041 77.1467C88.1991 77.1467 93.7099 80.2482 93.8428 87.0203C85.4782 88.9833 93.0899 106.9 91.5105 107.587Z" fill="#2F2E41"/>
<path d="M72.5483 87.9452C76.8962 87.9452 80.4209 84.4299 80.4209 80.0935C80.4209 75.7571 76.8962 72.2417 72.5483 72.2417C68.2004 72.2417 64.6758 75.7571 64.6758 80.0935C64.6758 84.4299 68.2004 87.9452 72.5483 87.9452Z" fill="#2F2E41"/>
<path d="M2.48911e-06 288.44C-0.00021766 288.513 0.0141676 288.586 0.0423395 288.654C0.0705115 288.722 0.111904 288.784 0.164147 288.836C0.216389 288.889 0.278443 288.93 0.346742 288.958C0.415042 288.986 0.488238 289 0.562118 289H132.958C133.107 289 133.25 288.941 133.355 288.836C133.461 288.731 133.52 288.588 133.52 288.44C133.52 288.291 133.461 288.148 133.355 288.043C133.25 287.938 133.107 287.879 132.958 287.879H0.562118C0.488238 287.879 0.415055 287.893 0.346757 287.921C0.278458 287.949 0.216403 287.991 0.164161 288.043C0.111919 288.095 0.0705124 288.157 0.0423395 288.225C0.0141667 288.293 -0.000215152 288.366 2.48911e-06 288.44Z" fill="#CCCCCC"/>
</g>
<defs>
<clipPath id="clip0_847_3672">
<rect width="308" height="289" fill="white"/>
</clipPath>
</defs>
</svg>
