<svg width="324" height="274" viewBox="0 0 324 274" fill="none" xmlns="http://www.w3.org/2000/svg">
<g clip-path="url(#clip0_794_3147)">
<path d="M173.289 38.4858C184.038 30.547 199.17 27.5036 211.011 33.697C197.681 39.4837 186.828 49.7982 180.372 62.8154C177.901 67.8446 175.675 73.6956 170.576 76.02C167.403 77.4663 163.658 77.187 160.372 76.0192C157.086 74.8512 154.163 72.8673 151.281 70.9042L150.417 70.8002C155.546 58.4625 162.541 46.4247 173.289 38.4858Z" fill="#F0F0F0"/>
<path d="M210.915 33.9607C199.859 34.307 189.194 38.1274 180.434 44.8793C178.522 46.2994 176.846 48.0118 175.468 49.9536C174.186 51.8886 173.447 54.1314 173.325 56.449C173.168 58.6077 173.258 60.8339 172.58 62.9169C172.216 63.9779 171.633 64.9503 170.867 65.7701C170.102 66.5899 169.172 67.2386 168.138 67.6738C165.59 68.8251 162.781 68.9924 160.027 69.0606C156.971 69.1364 153.794 69.1666 151.014 70.6058C150.677 70.7801 150.426 70.2473 150.763 70.0732C155.6 67.5694 161.252 69.203 166.335 67.7128C168.708 67.0174 170.884 65.6031 171.837 63.2368C172.67 61.1675 172.579 58.8717 172.719 56.6847C172.804 54.4221 173.442 52.2148 174.577 50.2556C175.853 48.2498 177.46 46.4757 179.33 45.009C183.488 41.64 188.15 38.9457 193.145 37.0246C198.834 34.8005 204.861 33.5658 210.967 33.374C211.345 33.3622 211.29 33.949 210.915 33.9606V33.9607Z" fill="white"/>
<path d="M183.127 42.5393C182.193 40.916 181.867 39.0137 182.207 37.1723C182.547 35.3309 183.53 33.6701 184.982 32.4867C185.276 32.2483 185.661 32.6946 185.366 32.9334C184.012 34.0329 183.096 35.58 182.783 37.2953C182.471 39.0107 182.781 40.7814 183.659 42.2879C183.85 42.6155 183.316 42.865 183.127 42.5393V42.5393Z" fill="white"/>
<path d="M173.261 55.3441C176.948 56.3745 180.888 55.9775 184.295 54.2324C184.632 54.0592 184.883 54.592 184.546 54.7649C180.997 56.5743 176.896 56.979 173.062 55.8983C172.696 55.7951 172.897 55.2414 173.261 55.3441Z" fill="white"/>
<path d="M198.807 35.5808C199.037 36.2842 199.438 36.9194 199.975 37.4293C200.511 37.9392 201.166 38.3079 201.88 38.5023C202.247 38.6009 202.046 39.1545 201.681 39.0566C200.893 38.8381 200.171 38.4301 199.577 37.868C198.983 37.3059 198.536 36.607 198.274 35.8322C198.243 35.7613 198.241 35.6813 198.267 35.6085C198.293 35.5357 198.346 35.4755 198.415 35.4403C198.485 35.4074 198.566 35.4036 198.64 35.43C198.713 35.4563 198.773 35.5105 198.807 35.5808H198.807Z" fill="white"/>
<path d="M220.399 77.9506C220.168 77.8955 219.938 77.8405 219.703 77.7887C216.599 77.0647 213.441 76.5941 210.26 76.3815C210.015 76.3612 209.765 76.3442 209.52 76.331C201.851 75.9004 194.17 76.8971 186.865 79.2703C183.959 80.2173 181.13 81.384 178.401 82.7603C174.633 84.6611 170.698 87.0219 166.641 87.5515C166.219 87.6115 165.793 87.6452 165.366 87.6526L150.357 71.8626C150.341 71.8096 150.321 71.7599 150.305 71.7067L149.677 71.1037C149.813 71.0228 149.955 70.942 150.091 70.8611C150.169 70.8139 150.251 70.7703 150.33 70.7231C150.383 70.6927 150.437 70.6625 150.483 70.6321C150.501 70.6219 150.519 70.6119 150.533 70.6051C150.58 70.5747 150.626 70.5513 150.669 70.5243C151.465 70.07 152.265 69.6204 153.07 69.1756C153.073 69.1722 153.073 69.1722 153.08 69.1723C159.221 65.7991 165.697 62.9088 172.406 61.0932C172.608 61.0386 172.813 60.9805 173.022 60.9331C176.05 60.1315 179.139 59.5787 182.258 59.2803C183.966 59.1224 185.681 59.051 187.397 59.0665C191.829 59.1151 196.226 59.8604 200.427 61.2751C208.801 64.0966 216.179 69.5644 220.105 77.3526C220.205 77.5519 220.302 77.7479 220.399 77.9506Z" fill="#F0F0F0"/>
<path d="M220.164 78.1053C211.128 71.7267 200.312 68.3569 189.252 68.4744C186.871 68.4575 184.501 68.816 182.231 69.5367C180.043 70.3102 178.102 71.6555 176.609 73.4329C175.184 75.0622 173.915 76.8937 172.119 78.1483C171.19 78.7768 170.139 79.2019 169.034 79.3957C167.929 79.5895 166.796 79.5475 165.708 79.2727C162.981 78.6583 160.637 77.1006 158.397 75.4977C155.911 73.718 153.357 71.83 150.27 71.3056C149.896 71.242 150.017 70.6656 150.39 70.7291C155.76 71.6415 159.289 76.3484 164.246 78.2188C166.558 79.0915 169.148 79.2727 171.334 77.9567C173.245 76.8058 174.555 74.9183 175.983 73.2561C177.414 71.5009 179.252 70.1226 181.339 69.2417C183.564 68.4077 185.916 67.9586 188.292 67.9135C193.641 67.7266 198.986 68.3817 204.131 69.8548C210.013 71.5035 215.569 74.1461 220.559 77.668C220.868 77.8862 220.471 78.322 220.164 78.1054L220.164 78.1053Z" fill="white"/>
<path d="M192.811 68.2272C193.043 66.3691 193.928 64.654 195.309 63.3883C196.689 62.1226 198.474 61.3886 200.345 61.3174C200.724 61.3042 200.762 61.892 200.383 61.9052C198.64 61.9682 196.977 62.6522 195.695 63.8334C194.412 65.0147 193.594 66.6156 193.388 68.347C193.343 68.7233 192.766 68.6012 192.811 68.2272H192.811Z" fill="white"/>
<path d="M177.223 72.5118C179.546 75.554 182.931 77.6089 186.703 78.2667C187.076 78.3316 186.956 78.908 186.583 78.8432C182.659 78.1514 179.141 76.0058 176.73 72.8347C176.501 72.5323 176.995 72.211 177.223 72.5118V72.5118Z" fill="white"/>
<path d="M209.52 72.1098C209.281 72.81 209.219 73.5588 209.34 74.2889C209.461 75.019 209.762 75.7075 210.215 76.2926C210.449 76.592 209.954 76.9129 209.723 76.6155C209.225 75.9667 208.894 75.2059 208.758 74.3996C208.622 73.5933 208.686 72.7659 208.944 71.99C208.962 71.9148 209.008 71.8493 209.073 71.8069C209.137 71.7645 209.216 71.7483 209.292 71.7616C209.368 71.7779 209.435 71.8236 209.478 71.8888C209.521 71.954 209.536 72.0334 209.52 72.1098V72.1098Z" fill="white"/>
<path d="M170.453 50.2965H169.29V18.4385C169.29 16.0171 168.813 13.6195 167.886 11.3824C166.96 9.14534 165.601 7.11269 163.889 5.40052C162.176 3.68834 160.143 2.33018 157.906 1.40355C155.669 0.476931 153.27 1.30538e-06 150.849 0H83.3428C80.921 -5.2213e-06 78.523 0.476915 76.2856 1.40353C74.0482 2.33015 72.0152 3.68831 70.3028 5.40048C68.5903 7.11265 67.2319 9.1453 66.3052 11.3824C65.3784 13.6194 64.9014 16.0171 64.9014 18.4385V193.214C64.9014 198.104 66.8443 202.794 70.3027 206.252C73.7612 209.71 78.4518 211.652 83.3427 211.652H150.849C155.74 211.652 160.43 209.71 163.889 206.252C167.347 202.794 169.29 198.104 169.29 193.214V72.9735H170.453V50.2965Z" fill="#3F3D56"/>
<path d="M151.592 4.79713H142.78C143.186 5.79047 143.34 6.8682 143.231 7.93539C143.121 9.00258 142.751 10.0265 142.153 10.9169C141.554 11.8073 140.746 12.5368 139.799 13.0413C138.852 13.5458 137.795 13.8097 136.722 13.8098H98.0492C96.9762 13.8097 95.9198 13.5458 94.9728 13.0413C94.0259 12.5368 93.2176 11.8073 92.6191 10.9169C92.0206 10.0265 91.6503 9.00258 91.5409 7.93539C91.4314 6.8682 91.5861 5.79046 91.9913 4.79712H83.7611C80.1086 4.79712 76.6057 6.24785 74.0229 8.83016C71.4402 11.4125 69.9893 14.9148 69.9893 18.5668V193.085C69.9893 194.894 70.3455 196.684 71.0376 198.355C71.7297 200.026 72.7441 201.543 74.0229 202.822C75.3018 204.101 76.82 205.115 78.4908 205.807C80.1617 206.499 81.9525 206.855 83.7611 206.855H151.592C153.401 206.855 155.191 206.499 156.862 205.807C158.533 205.115 160.051 204.101 161.33 202.822C162.609 201.543 163.624 200.026 164.316 198.355C165.008 196.684 165.364 194.894 165.364 193.085V18.5668C165.364 14.9148 163.913 11.4125 161.33 8.83016C158.748 6.24785 155.245 4.79713 151.592 4.79713Z" fill="white"/>
<path d="M118.98 150.793C113.985 150.798 109.039 149.817 104.423 147.908C99.8072 145.999 95.6134 143.199 92.0814 139.668C88.5494 136.136 85.7486 131.943 83.8392 127.328C81.9299 122.713 80.9495 117.767 80.9541 112.773C80.947 105.76 82.8828 98.8821 86.5466 92.9022C90.2105 86.9222 95.4594 82.0737 101.711 78.8944C106.243 76.5892 111.19 75.2141 116.262 74.8502C121.333 74.4863 126.426 75.1409 131.241 76.7754C139.767 79.6806 146.986 85.5175 151.61 93.2467C156.235 100.976 157.965 110.095 156.493 118.981C155.022 127.866 150.443 135.941 143.573 141.767C136.703 147.593 127.988 150.791 118.98 150.793L118.98 150.793ZM118.98 76.2434C113.212 76.2264 107.523 77.5908 102.389 80.2223C97.902 82.5081 93.9359 85.6966 90.7399 89.5877C87.5438 93.4789 85.1868 97.9886 83.8168 102.834C82.4468 107.679 82.0935 112.755 82.7788 117.743C83.4642 122.732 85.1736 127.525 87.7996 131.821C90.4257 136.117 93.9117 139.824 98.0388 142.71C102.166 145.595 106.845 147.596 111.782 148.587C116.72 149.578 121.809 149.538 126.73 148.47C131.651 147.401 136.298 145.326 140.379 142.377C142.353 140.953 144.177 139.334 145.826 137.545C150.647 132.329 153.842 125.821 155.021 118.818C156.199 111.814 155.309 104.619 152.46 98.1134C149.611 91.6077 144.927 86.0739 138.98 82.1895C133.034 78.3051 126.083 76.2387 118.98 76.2434Z" fill="#F0F0F0"/>
<path d="M36.5834 79.031C37.6272 79.1618 38.6296 79.5199 39.52 80.08C40.4104 80.6401 41.1671 81.3885 41.7369 82.2727C42.3067 83.1568 42.6756 84.1551 42.8178 85.1972C42.9599 86.2394 42.8718 87.3 42.5597 88.3044L55.1939 98.8267L50.6712 108.063L33.0379 92.9528C31.3851 92.3166 30.023 91.0964 29.2099 89.5232C28.3968 87.9501 28.189 86.1334 28.6261 84.4173C29.0631 82.7013 30.1145 81.2051 31.5811 80.2124C33.0477 79.2196 34.8276 78.7993 36.5834 79.0309L36.5834 79.031Z" fill="#FFB6B6"/>
<path d="M154.581 122.912C154.328 120.188 153.28 115.292 152.391 113.482C149.659 106.331 132.004 100.454 129.633 99.6968L129.031 93.0122L104.501 90.3731L101.389 98.9215L92.5907 102.222C91.9934 102.444 91.4527 102.796 91.0075 103.253C90.5624 103.709 90.2237 104.258 90.0158 104.861L82.1223 107.142L74.3331 109.393L47.2724 90.3284L45.9947 91.1633L37.4551 96.7347L36.1377 97.5945L71.1567 129.184L84.1652 126.132L93.9477 123.831L94.7826 127.221L92.6206 139.129C98.8848 145.394 107.177 149.223 116.009 149.929C124.842 150.635 133.637 148.171 140.817 142.98L146.374 138.05C150.247 133.863 153.106 128.841 154.73 123.374L154.581 122.912Z" fill="#E4E4E4"/>
<path d="M124.474 84.906C133.734 81.8405 138.755 71.8497 135.689 62.5909C132.623 53.3321 122.631 48.3114 113.371 51.3769C104.11 54.4424 99.089 64.4332 102.155 73.692C105.221 82.9508 115.213 87.9715 124.474 84.906Z" fill="#FFB6B6"/>
<path d="M104.971 48.0092C106.688 45.5575 109.265 43.8413 112.189 43.2019C115.081 42.6072 118.09 43.1592 120.582 44.7411C123.292 43.6496 126.214 42.9255 129.085 43.2936C131.956 43.6617 134.769 45.265 136.098 47.9064C136.377 48.5906 136.716 49.249 137.111 49.8738C138.281 51.435 140.456 51.6375 142.377 51.7125C141.406 52.2788 140.435 52.845 139.463 53.4112C140.431 53.8622 141.399 54.3132 142.367 54.7642C141.05 55.267 139.732 55.7699 138.415 56.2727C141.481 58.9676 142.223 63.7636 141.062 67.7846C139.963 71.5915 137.443 74.7962 134.628 77.5399C134.079 75.4926 134.683 73.2731 135.086 71.1536C135.51 68.9141 135.578 66.2955 134.01 64.7144C132.952 63.6478 131.4 63.3256 129.937 63.0668C122.556 61.7616 115.107 60.8773 107.625 60.418C106.624 60.2796 105.604 60.3837 104.651 60.7216C102.83 61.5305 102.099 63.752 101.571 65.7218C101.319 62.2643 101.52 58.7885 102.172 55.3835C102.671 52.7774 103.457 50.169 104.971 48.0092Z" fill="#2F2E41"/>
<path d="M127.927 168.706H107.05C106.325 168.706 105.63 168.418 105.117 167.905C104.604 167.393 104.316 166.697 104.316 165.973C104.316 165.248 104.604 164.552 105.117 164.04C105.63 163.527 106.325 163.239 107.05 163.239H127.927C128.653 163.239 129.348 163.527 129.861 164.04C130.373 164.552 130.661 165.248 130.661 165.973C130.661 166.697 130.373 167.393 129.861 167.905C129.348 168.418 128.653 168.706 127.927 168.706Z" fill="#00AFEF"/>
<path d="M59.4215 22.427H1.99707C1.46791 22.4262 0.960687 22.2154 0.586805 21.841C0.212923 21.4666 0.00292969 20.9592 0.00292969 20.4301C0.00292969 19.901 0.212923 19.3935 0.586805 19.0191C0.960687 18.6447 1.46791 18.4339 1.99707 18.4331H59.4215C59.9512 18.4331 60.4593 18.6435 60.8338 19.018C61.2084 19.3925 61.4188 19.9004 61.4188 20.4301C61.4188 20.9597 61.2084 21.4676 60.8338 21.8421C60.4593 22.2166 59.9512 22.427 59.4215 22.427Z" fill="#00AFEF"/>
<path d="M92.5766 35.1817H1.99716C1.46748 35.1817 0.959493 34.9713 0.584952 34.5968C0.210412 34.2223 0 33.7144 0 33.1848C0 32.6552 0.210412 32.1473 0.584952 31.7728C0.959493 31.3984 1.46748 31.188 1.99716 31.188H92.5766C93.1063 31.188 93.6143 31.3984 93.9888 31.7728C94.3634 32.1473 94.5738 32.6552 94.5738 33.1848C94.5738 33.7144 94.3634 34.2223 93.9888 34.5968C93.6143 34.9713 93.1063 35.1817 92.5766 35.1817Z" fill="#00AFEF"/>
<path d="M75.1701 47.1976H1.99716C1.46748 47.1976 0.959492 46.9872 0.584952 46.6127C0.210412 46.2382 0 45.7303 0 45.2007C0 44.6711 0.210412 44.1632 0.584952 43.7887C0.959492 43.4142 1.46748 43.2039 1.99716 43.2039H75.1701C75.6998 43.2039 76.2078 43.4142 76.5823 43.7887C76.9569 44.1632 77.1673 44.6711 77.1673 45.2007C77.1673 45.7303 76.9569 46.2382 76.5823 46.6127C76.2078 46.9872 75.6998 47.1976 75.1701 47.1976Z" fill="#CACACA"/>
<path d="M43.2589 59.1695H1.99716C1.46748 59.1695 0.959492 58.9591 0.584952 58.5846C0.210412 58.2101 0 57.7022 0 57.1726C0 56.643 0.210412 56.1351 0.584952 55.7606C0.959492 55.3862 1.46748 55.1758 1.99716 55.1758H43.2589C43.7886 55.1758 44.2965 55.3862 44.6711 55.7606C45.0456 56.1351 45.256 56.643 45.256 57.1726C45.256 57.7022 45.0456 58.2101 44.6711 58.5846C44.2965 58.9591 43.7886 59.1695 43.2589 59.1695Z" fill="#CACACA"/>
<path d="M66.0526 71.1404H1.99693C1.4678 71.1396 0.960634 70.9288 0.586775 70.5545C0.212915 70.1801 0.00292969 69.6726 0.00292969 69.1436C0.00292969 68.6145 0.212915 68.1071 0.586775 67.7327C0.960634 67.3583 1.4678 67.1476 1.99693 67.1467H66.0526C66.5817 67.1476 67.0889 67.3583 67.4627 67.7327C67.8366 68.1071 68.0466 68.6145 68.0466 69.1436C68.0466 69.6726 67.8366 70.1801 67.4627 70.5545C67.0889 70.9288 66.5817 71.1396 66.0526 71.1404Z" fill="#CACACA"/>
<path d="M246.579 266.504L241.432 266.503L238.983 246.654L246.58 246.655L246.579 266.504Z" fill="#9F616A"/>
<path d="M248.604 273.625L228.954 273.625V273.376C228.954 271.348 229.76 269.403 231.194 267.969C232.629 266.535 234.574 265.729 236.602 265.729H236.603L240.192 263.007L246.889 265.73L248.604 265.73L248.604 273.625Z" fill="#2F2E41"/>
<path d="M243.581 173.217L241.311 145.544L239.527 135.158L249.511 132.953L252.825 147.173L249.938 173.985C250.52 174.698 250.876 175.569 250.959 176.486C251.043 177.403 250.85 178.324 250.406 179.131C249.961 179.937 249.286 180.593 248.467 181.013C247.647 181.433 246.721 181.598 245.806 181.488C244.892 181.377 244.032 180.996 243.336 180.393C242.64 179.79 242.14 178.993 241.901 178.103C241.662 177.214 241.694 176.274 241.993 175.403C242.292 174.532 242.845 173.771 243.581 173.217H243.581Z" fill="#9F616A"/>
<path d="M219.24 266.504L214.093 266.503L211.645 246.654L219.241 246.655L219.24 266.504Z" fill="#9F616A"/>
<path d="M211.003 179.49L208.721 183.436C208.721 183.436 206.214 184.121 207.034 192.292C207.853 200.463 207.888 248.875 211.854 254.832L212.572 259.948L220.061 260.663L220.25 256.124L229.18 193.063C229.18 193.063 234.44 254.969 238.791 256.484L240.362 261.642L247.226 261.645L246.82 255.567L247.263 178.85L211.003 179.49Z" fill="#2F2E41"/>
<path d="M208.495 183.136L208.337 183.095C213.046 165.483 211.688 142.678 208.363 118.189L208.363 118.087L220.384 107.078H230.822L241.17 113.755C247.86 117.1 249.381 124.182 249.395 124.253L249.406 124.304L245.307 138.609L248.395 179.981L248.398 180.029L248.38 180.074C247.381 182.607 244.703 182.246 241.602 181.829C238.507 181.411 227.099 185.227 223.602 185.227C216.766 185.227 208.983 183.261 208.495 183.136Z" fill="#E4E4E4"/>
<path d="M239.003 119.331L243.488 117.381L249.396 124.624L254.185 147.832L237.781 145.347L239.003 119.331Z" fill="#E4E4E4"/>
<path d="M170.03 162.128L190.529 143.399L197.654 135.632L205.508 142.178L196.287 153.5L173.313 167.625C173.105 168.522 172.633 169.337 171.959 169.964C171.285 170.591 170.438 171.002 169.528 171.144C168.618 171.287 167.687 171.154 166.853 170.763C166.019 170.372 165.322 169.74 164.849 168.95C164.377 168.159 164.152 167.246 164.203 166.326C164.255 165.407 164.579 164.524 165.136 163.791C165.693 163.057 166.457 162.507 167.329 162.211C168.201 161.915 169.141 161.886 170.03 162.128L170.03 162.128Z" fill="#9F616A"/>
<path d="M190.083 143.603L195.761 136.23C195.808 136.125 200.518 125.6 204.602 121.027C208.79 116.335 212.088 118.735 212.121 118.76L212.203 118.822L212.43 136.146L196.709 154.928L190.083 143.603Z" fill="#E4E4E4"/>
<path d="M234.014 96.709C234.86 91.4932 231.318 86.5788 226.101 85.7324C220.884 84.886 215.969 88.4281 215.123 93.6439C214.276 98.8597 217.819 103.774 223.035 104.62C228.252 105.467 233.167 101.925 234.014 96.709Z" fill="#9F616A"/>
<path d="M215.819 93.7562C215.819 93.7562 215.742 90.3927 215.317 88.9044C214.892 87.4161 214.041 86.1404 214.466 86.1404C214.892 86.1404 215.104 85.0773 215.104 85.0773C215.104 85.0773 215.53 84.8647 215.742 85.0773C215.955 85.2899 216.168 83.589 216.168 83.589C216.168 83.589 216.38 82.9512 216.593 83.3764C216.806 83.8017 216.806 83.589 217.018 82.9512C217.231 82.3134 218.294 81.8881 218.294 81.8881C218.294 81.8881 222.334 82.1007 222.972 81.2503C223.61 80.3999 230.84 81.0377 232.329 82.1007C233.817 83.1638 240.409 86.9908 239.346 90.18C238.283 93.3692 235.222 100.712 234.455 101.449C233.242 102.613 232.403 103.032 226.664 104.174C225.541 104.398 219.808 100.732 219.808 100.094C219.808 99.4563 220.499 97.4336 219.388 97.1559C217.709 96.7362 217.52 98.8589 217.095 98.221C216.67 97.5832 215.819 93.7562 215.819 93.7562Z" fill="#2F2E41"/>
<path d="M221.265 273.625L201.615 273.625V273.376C201.615 271.348 202.421 269.403 203.856 267.969C205.29 266.535 207.235 265.729 209.263 265.729H209.264L212.853 263.007L219.55 265.73L221.265 265.73L221.265 273.625Z" fill="#2F2E41"/>
<path d="M323.408 274H1.65435C1.49738 274 1.34685 273.938 1.23586 273.827C1.12486 273.716 1.0625 273.565 1.0625 273.408C1.0625 273.251 1.12486 273.101 1.23586 272.99C1.34685 272.879 1.49738 272.816 1.65435 272.816H323.408C323.565 272.816 323.716 272.879 323.827 272.99C323.938 273.101 324 273.251 324 273.408C324 273.565 323.938 273.716 323.827 273.827C323.716 273.938 323.565 274 323.408 274Z" fill="#CACACA"/>
</g>
<defs>
<clipPath id="clip0_794_3147">
<rect width="324" height="274" fill="white"/>
</clipPath>
</defs>
</svg>
