<?xml version="1.0" encoding="UTF-8"?>
<!DOCTYPE svg PUBLIC "-//W3C//DTD SVG 1.1//EN" "http://www.w3.org/Graphics/SVG/1.1/DTD/svg11.dtd">
<!-- Creator: CorelDRAW X7 -->
<svg xmlns="http://www.w3.org/2000/svg" xml:space="preserve" width="9.66613in" height="2.76373in" version="1.1" style="shape-rendering:geometricPrecision; text-rendering:geometricPrecision; image-rendering:optimizeQuality; fill-rule:evenodd; clip-rule:evenodd"
viewBox="0 0 9663 2763"
 xmlns:xlink="http://www.w3.org/1999/xlink">
 <defs>
  <style type="text/css">
   <![CDATA[
    .fil0 {fill:#00AFEF;fill-rule:nonzero}
   ]]>
  </style>
 </defs>
 <g id="Layer_x0020_1">
  <metadata id="CorelCorpID_0Corel-Layer"/>
  <path class="fil0" d="M9176 1382c0,-131 -45,-244 -135,-338 -90,-94 -201,-141 -333,-141 -131,0 -242,47 -332,141 -90,94 -135,207 -135,338 0,130 45,242 136,336 91,93 201,140 331,140l468 0 0 -476zm-7289 596c-80,-80 -176,-120 -288,-120l-170 0c-130,0 -241,-47 -332,-140 -92,-94 -137,-206 -137,-336l0 -480 933 0c0,-148 -39,-263 -119,-342 -80,-80 -175,-120 -288,-120l-200 0 27 0 -27 0 -271 0 -55 0 0 -6c0,-117 -42,-217 -126,-301 -84,-84 -203,-126 -356,-126l0 433 -478 0c0,149 40,263 119,343 80,80 176,119 288,119l71 0 0 480c0,260 93,481 279,664 187,183 411,274 672,274l577 0c0,-149 -40,-263 -119,-342zm1576 -1195c-80,80 -176,120 -288,120l-170 0c-130,0 -241,46 -332,140 -92,94 -137,205 -137,335l0 515c0,117 -42,217 -126,301 -84,84 -203,126 -356,126l0 -942c0,-259 93,-481 279,-664 187,-182 411,-274 672,-274l577 0c0,149 -40,263 -119,343zm1703 1854c-84,-84 -126,-185 -126,-301l0 -16 -468 0c-261,0 -485,-91 -672,-273 -187,-182 -280,-403 -280,-665l0 -942c153,0 272,42 356,126 84,84 126,185 126,301l0 515c0,130 46,242 137,336 92,93 203,140 333,140l468 0 0 -991c0,-116 42,-217 126,-301 84,-84 203,-126 356,-126l0 2323c-153,0 -271,-42 -356,-126zm1485 -1734l-468 0 0 475c0,131 45,244 136,339 90,94 201,141 332,141 132,0 243,-47 333,-141 90,-95 135,-208 135,-339 0,-130 -45,-241 -136,-335 -91,-94 -202,-140 -332,-140zm1 1417c-261,0 -484,-92 -671,-276 -187,-184 -280,-406 -280,-666l0 -1378c154,0 272,42 356,126 84,84 126,184 126,301l0 13 469 0c261,0 485,91 673,273 187,182 281,404 281,665 0,260 -94,482 -281,666 -188,184 -412,276 -673,276zm2057 0c-261,0 -484,-91 -671,-274 -186,-183 -280,-404 -280,-664 0,-259 94,-481 280,-665 187,-185 410,-277 671,-277 261,0 486,92 673,277 187,184 281,406 281,665l0 938 -954 0z"/>
 </g>
</svg>
