<svg width="103" height="31" viewBox="0 0 103 31" fill="none" xmlns="http://www.w3.org/2000/svg">
<path d="M88.5471 15.5042C88.5471 14.4019 88.1634 13.451 87.396 12.6601C86.6285 11.869 85.682 11.4735 84.5564 11.4735C83.4393 11.4735 82.4928 11.869 81.7252 12.6601C80.9578 13.451 80.5741 14.4019 80.5741 15.5042C80.5741 16.5981 80.9578 17.5406 81.7338 18.3315C82.5098 19.1142 83.4478 19.5096 84.5564 19.5096H88.5471V15.5042ZM26.3912 20.5194C25.709 19.8462 24.8903 19.5096 23.9352 19.5096H22.4856C21.377 19.5096 20.4305 19.1142 19.6545 18.3315C18.87 17.5406 18.4863 16.5981 18.4863 15.5042V11.4651H26.4423C26.4423 10.2197 26.1097 9.25204 25.4276 8.58727C24.7454 7.91409 23.9352 7.57749 22.9716 7.57749H21.2662H18.9553H18.4863V7.52701C18.4863 6.54248 18.1281 5.701 17.4118 4.99416C16.6955 4.28732 15.6808 3.9339 14.3761 3.9339V7.57749H10.3C10.3 8.8313 10.6411 9.79058 11.3147 10.4638C11.9969 11.1369 12.8156 11.4651 13.7706 11.4651H14.3761V15.5042C14.3761 17.692 15.1691 19.5517 16.7552 21.0916C18.3498 22.6315 20.26 23.3972 22.4856 23.3972H27.4059C27.4059 22.1434 27.0648 21.1841 26.3912 20.5194ZM39.8302 10.4638C39.1481 11.1369 38.3295 11.4735 37.3744 11.4735H35.9247C34.8162 11.4735 33.8696 11.8606 33.0937 12.6516C32.3091 13.4426 31.9254 14.3766 31.9254 15.4705V19.8042C31.9254 20.7887 31.5673 21.6302 30.851 22.337C30.1346 23.0438 29.1199 23.3972 27.8152 23.3972V15.4705C27.8152 13.2912 28.6083 11.423 30.1944 9.88315C31.789 8.35166 33.6991 7.57749 35.9247 7.57749H40.8451C40.8451 8.8313 40.504 9.79058 39.8302 10.4638ZM54.3524 26.0648C53.6361 25.3579 53.2779 24.508 53.2779 23.5319V23.3972H49.2872C47.0615 23.3972 45.1514 22.6315 43.5567 21.1C41.9621 19.5685 41.1691 17.7088 41.1691 15.5042V7.57749C42.4738 7.57749 43.4885 7.93091 44.2048 8.63776C44.9211 9.3446 45.2792 10.1945 45.2792 11.1706V15.5042C45.2792 16.5981 45.6716 17.5406 46.4475 18.3315C47.232 19.1142 48.1786 19.5096 49.2872 19.5096H53.2779V11.1706C53.2779 10.1945 53.6361 9.3446 54.3524 8.63776C55.0687 7.93091 56.0835 7.57749 57.3882 7.57749V27.125C56.0835 27.125 55.0773 26.7716 54.3524 26.0648ZM67.0156 11.4735H63.0247V15.4705C63.0247 16.5729 63.4085 17.5238 64.1845 18.3231C64.9519 19.1142 65.8984 19.5096 67.0156 19.5096C68.1411 19.5096 69.0877 19.1142 69.8552 18.3231C70.6226 17.5238 71.0064 16.5729 71.0064 15.4705C71.0064 14.3766 70.6226 13.4426 69.8466 12.6516C69.0706 11.8606 68.1241 11.4735 67.0156 11.4735ZM67.0241 23.3972C64.7984 23.3972 62.8968 22.6231 61.3022 21.0748C59.7076 19.5265 58.9146 17.6584 58.9146 15.4705V3.875C60.2278 3.875 61.234 4.22842 61.9503 4.93526C62.6666 5.6421 63.0247 6.48358 63.0247 7.46811V7.57749H67.0241C69.2498 7.57749 71.1599 8.34324 72.763 9.87472C74.3576 11.4062 75.1592 13.2743 75.1592 15.4705C75.1592 17.6584 74.3576 19.5265 72.763 21.0748C71.1599 22.6231 69.2498 23.3972 67.0241 23.3972ZM84.5649 23.3972C82.3392 23.3972 80.4376 22.6315 78.843 21.0916C77.2569 19.5517 76.4554 17.692 76.4554 15.5042C76.4554 13.3248 77.2569 11.4567 78.843 9.90838C80.4376 8.35166 82.3392 7.57749 84.5649 7.57749C86.7905 7.57749 88.7092 8.35166 90.3038 9.90838C91.8984 11.4567 92.7 13.3248 92.7 15.5042V23.3972H84.5649Z" fill="white"/>
</svg>
