<svg width="21" height="21" viewBox="0 0 21 21" fill="none" xmlns="http://www.w3.org/2000/svg">
<path d="M11.0684 2.17254L18.4184 5.11252C18.7043 5.22685 18.9329 5.56984 18.9329 5.87201V8.58335C18.9329 9.03252 18.5654 9.40002 18.1163 9.40002H3.41628C2.96711 9.40002 2.59961 9.03252 2.59961 8.58335V5.87201C2.59961 5.56984 2.82828 5.22685 3.11411 5.11252L10.4641 2.17254C10.6274 2.1072 10.9051 2.1072 11.0684 2.17254Z" stroke="#292D32" stroke-width="1.225" stroke-miterlimit="10" stroke-linecap="round" stroke-linejoin="round"/>
<path d="M18.9329 18.3829H2.59961V15.9329C2.59961 15.4837 2.96711 15.1162 3.41628 15.1162H18.1163C18.5654 15.1162 18.9329 15.4837 18.9329 15.9329V18.3829Z" stroke="#292D32" stroke-width="1.225" stroke-miterlimit="10" stroke-linecap="round" stroke-linejoin="round"/>
<path d="M4.2334 15.1166V9.3999" stroke="#292D32" stroke-width="1.225" stroke-miterlimit="10" stroke-linecap="round" stroke-linejoin="round"/>
<path d="M7.5 15.1166V9.3999" stroke="#292D32" stroke-width="1.225" stroke-miterlimit="10" stroke-linecap="round" stroke-linejoin="round"/>
<path d="M10.7666 15.1166V9.3999" stroke="#292D32" stroke-width="1.225" stroke-miterlimit="10" stroke-linecap="round" stroke-linejoin="round"/>
<path d="M14.0332 15.1166V9.3999" stroke="#292D32" stroke-width="1.225" stroke-miterlimit="10" stroke-linecap="round" stroke-linejoin="round"/>
<path d="M17.2998 15.1166V9.3999" stroke="#292D32" stroke-width="1.225" stroke-miterlimit="10" stroke-linecap="round" stroke-linejoin="round"/>
<path d="M1.7832 18.3828H19.7499" stroke="#292D32" stroke-width="1.225" stroke-miterlimit="10" stroke-linecap="round" stroke-linejoin="round"/>
<path d="M10.767 7.3582C11.4435 7.3582 11.992 6.80975 11.992 6.1332C11.992 5.45665 11.4435 4.9082 10.767 4.9082C10.0904 4.9082 9.54199 5.45665 9.54199 6.1332C9.54199 6.80975 10.0904 7.3582 10.767 7.3582Z" stroke="#292D32" stroke-width="1.225" stroke-miterlimit="10" stroke-linecap="round" stroke-linejoin="round"/>
</svg>
