<svg width="21" height="20" viewBox="0 0 21 20" fill="none" xmlns="http://www.w3.org/2000/svg">
<path d="M2.59961 10.5308H16.4829" stroke="#292D32" stroke-width="1.225" stroke-miterlimit="10" stroke-linecap="round" stroke-linejoin="round"/>
<path d="M16.4829 8.6282V14.4674C16.4584 16.7949 15.8214 17.3829 13.3959 17.3829H5.68663C3.2203 17.3829 2.59961 16.7704 2.59961 14.3367V8.6282C2.59961 6.4232 3.11411 5.7127 5.04961 5.59836C5.24561 5.5902 5.45797 5.58203 5.68663 5.58203H13.3959C15.8623 5.58203 16.4829 6.19453 16.4829 8.6282Z" stroke="#292D32" stroke-width="1.225" stroke-linecap="round" stroke-linejoin="round"/>
<path d="M18.9331 5.72878V11.4373C18.9331 13.6423 18.4186 14.3528 16.4831 14.4671V8.62795C16.4831 6.19428 15.8624 5.58178 13.3961 5.58178H5.68683C5.45816 5.58178 5.2458 5.58995 5.0498 5.59812C5.0743 3.27062 5.71133 2.68262 8.13683 2.68262H15.8461C18.3124 2.68262 18.9331 3.29512 18.9331 5.72878Z" stroke="#292D32" stroke-width="1.225" stroke-linecap="round" stroke-linejoin="round"/>
<path d="M5.25391 14.7773H6.65855" stroke="#292D32" stroke-width="1.225" stroke-miterlimit="10" stroke-linecap="round" stroke-linejoin="round"/>
<path d="M8.40723 14.7773H11.2166" stroke="#292D32" stroke-width="1.225" stroke-miterlimit="10" stroke-linecap="round" stroke-linejoin="round"/>
</svg>
