<svg width="21" height="21" viewBox="0 0 21 21" fill="none" xmlns="http://www.w3.org/2000/svg">
<g clip-path="url(#clip0_725_19380)">
<path d="M5.19408 18.5622L5.5187 16.5003L4.79561 16.4836H1.34277L3.74232 1.26888C3.74946 1.2224 3.77307 1.18002 3.80884 1.14949C3.84462 1.11896 3.89018 1.10229 3.93721 1.10254H9.75917C11.692 1.10254 13.0258 1.50474 13.7222 2.29859C14.0487 2.671 14.2566 3.06016 14.3572 3.48843C14.4627 3.9378 14.4645 4.47469 14.3615 5.1295L14.354 5.17729V5.59687L14.6805 5.78183C14.9298 5.9081 15.1538 6.07891 15.3415 6.28582C15.6209 6.60423 15.8015 7.00891 15.8778 7.4887C15.9566 7.98214 15.9306 8.5693 15.8015 9.23405C15.6525 9.99872 15.4117 10.6647 15.0864 11.2097C14.7995 11.6979 14.4137 12.1207 13.9537 12.451C13.5217 12.7576 13.0084 12.9904 12.4281 13.1394C11.8657 13.2858 11.2246 13.3597 10.5214 13.3597H10.0683C9.74427 13.3597 9.42959 13.4764 9.18256 13.6855C8.93588 13.8969 8.77224 14.189 8.72077 14.5098L8.68664 14.6954L8.11313 18.3295L8.08706 18.4629C8.08023 18.5051 8.06844 18.5262 8.05106 18.5405C8.03423 18.5543 8.01322 18.5619 7.99148 18.5622H5.19408Z" fill="#253B80"/>
<path d="M14.9888 5.22559C14.9714 5.33669 14.9516 5.45027 14.9292 5.56696C14.1615 9.50889 11.5348 10.8707 8.17999 10.8707H6.47188C6.06161 10.8707 5.7159 11.1686 5.65197 11.5733L4.77743 17.1196L4.52978 18.6918C4.51992 18.7542 4.52368 18.8179 4.54082 18.8787C4.55796 18.9395 4.58806 18.9958 4.62906 19.0438C4.67006 19.0918 4.72097 19.1304 4.7783 19.1569C4.83563 19.1833 4.89801 19.197 4.96115 19.197H7.99068C8.34943 19.197 8.65419 18.9364 8.71067 18.5826L8.74046 18.4286L9.31086 14.8089L9.34748 14.6102C9.40335 14.2552 9.70872 13.9945 10.0675 13.9945H10.5206C13.4558 13.9945 15.7535 12.8028 16.4251 9.35434C16.7056 7.91374 16.5604 6.71087 15.8181 5.86488C15.5828 5.60318 15.3018 5.38655 14.9888 5.22559Z" fill="#179BD7"/>
<path d="M14.1851 4.9052C13.9399 4.83428 13.6905 4.77893 13.4384 4.73948C12.9402 4.66291 12.4367 4.62617 11.9326 4.62962H7.3694C7.19574 4.62948 7.02776 4.69148 6.89583 4.8044C6.76389 4.91733 6.67671 5.07373 6.65004 5.24533L5.6793 11.3938L5.65137 11.5731C5.68161 11.3774 5.78091 11.199 5.93129 11.0701C6.08168 10.9412 6.27323 10.8704 6.47128 10.8705H8.17939C11.5342 10.8705 14.1609 9.50815 14.9286 5.56684C14.9516 5.45015 14.9708 5.33657 14.9882 5.22547C14.7856 5.11922 14.5745 5.03016 14.357 4.9592C14.3 4.94028 14.2427 4.92228 14.1851 4.9052Z" fill="#222D65"/>
<path d="M6.65074 5.24491C6.67718 5.07326 6.76432 4.91679 6.89632 4.80392C7.02832 4.69105 7.19643 4.62928 7.3701 4.62982H11.9333C12.4739 4.62982 12.9785 4.6652 13.4391 4.73968C13.7507 4.78866 14.0581 4.86191 14.3583 4.95878C14.5849 5.03388 14.7953 5.12264 14.9895 5.22505C15.218 3.76832 14.9877 2.77647 14.2 1.87835C13.3317 0.889611 11.7645 0.466309 9.75909 0.466309H3.93713C3.52748 0.466309 3.17804 0.764234 3.11473 1.16954L0.689744 16.5406C0.678449 16.612 0.682747 16.685 0.702341 16.7545C0.721936 16.824 0.756362 16.8885 0.803252 16.9435C0.850143 16.9985 0.908384 17.0426 0.97397 17.0729C1.03956 17.1033 1.11093 17.119 1.18318 17.1191H4.77753L5.68 11.3933L6.65074 5.24491Z" fill="#253B80"/>
</g>
<defs>
<clipPath id="clip0_725_19380">
<rect width="19.6" height="20.4167" fill="white" transform="translate(0.683594 0.499512)"/>
</clipPath>
</defs>
</svg>
