<svg width="29" height="24" viewBox="0 0 29 24" fill="none" xmlns="http://www.w3.org/2000/svg">
<path d="M28.575 4.07692L28.5837 19.6904C28.5837 21.5325 27.0801 23.0412 25.253 23.0412L3.76515 23.0587C1.92059 23.0587 0.416959 21.55 0.416959 19.7167L0.399475 4.10324C0.399475 2.25242 1.9031 0.752471 3.73892 0.752471L25.2355 0.734928C27.0714 0.734928 28.575 2.22611 28.575 4.07692Z" fill="#F6C859"/>
<path d="M11.2638 20.078C11.1415 20.078 11.0278 20.0166 10.9754 19.9026C10.8967 19.7447 10.9579 19.543 11.1152 19.464C11.5873 19.2184 12.2255 18.7623 12.6014 17.9816C13.0734 16.9816 12.9511 15.894 12.75 15.7975C12.6975 15.7712 12.5052 15.8764 12.3828 15.9378C12.0769 16.0957 11.6485 16.315 11.1589 16.1396C10.6781 15.9729 10.4421 15.5431 10.3285 15.3326C9.58538 13.973 9.35809 10.4468 10.1361 8.69245C10.3984 8.11352 10.7481 7.76266 11.1852 7.6574C11.631 7.55214 11.9982 7.73634 12.2867 7.89423C12.5227 8.01704 12.6451 8.06967 12.7238 8.02581C13.0297 7.8416 13.021 6.71883 12.5926 5.8329C12.2167 5.04345 11.5786 4.58733 11.1065 4.35049C10.9491 4.27155 10.8792 4.0698 10.9666 3.91191C11.0453 3.75402 11.2464 3.68385 11.4037 3.77156C11.9632 4.06103 12.7325 4.60487 13.1783 5.56098C13.6242 6.49954 13.834 8.12229 13.056 8.59596C12.6626 8.8328 12.2867 8.63982 11.9894 8.4907C11.7621 8.37667 11.5436 8.26264 11.3338 8.31527C11.0453 8.38544 10.853 8.70999 10.7306 8.97314C10.0487 10.5082 10.2498 13.8414 10.8967 15.0343C11.0103 15.2361 11.1415 15.4554 11.3687 15.5343C11.5873 15.6133 11.7971 15.5168 12.0856 15.3677C12.3741 15.2185 12.6888 15.0607 13.0297 15.2185C13.7641 15.5782 13.7116 17.1483 13.1871 18.2711C12.7325 19.2272 11.9719 19.771 11.4125 20.0605C11.36 20.0693 11.3076 20.078 11.2638 20.078Z" fill="#7D662D"/>
<path d="M10.2789 9.28258H4.41296C4.22938 9.28258 4.08951 9.13346 4.08951 8.95803C4.08951 8.78259 4.22938 8.63348 4.40422 8.63348H10.2701C10.4537 8.63348 10.5936 8.78259 10.5936 8.95803C10.6023 9.13346 10.4624 9.28258 10.2789 9.28258Z" fill="#7D662D"/>
<path d="M10.2789 15.1732H4.41296C4.22938 15.1732 4.08951 15.0241 4.08951 14.8487C4.08951 14.6645 4.23812 14.5241 4.41296 14.5241H10.2789C10.4624 14.5241 10.6023 14.6732 10.6023 14.8487C10.611 15.0241 10.4624 15.1732 10.2789 15.1732Z" fill="#7D662D"/>
<path d="M18.1131 20.0693C18.0607 20.0693 18.0082 20.0606 17.9645 20.0342C17.405 19.7448 16.6357 19.2009 16.1899 18.2448C15.6566 17.1221 15.6129 15.5519 16.3385 15.1923C16.6794 15.0256 17.0029 15.1923 17.2826 15.3327C17.5799 15.4818 17.7897 15.5783 17.9995 15.4993C18.2443 15.4116 18.3841 15.1572 18.4716 14.9993C19.1185 13.8064 19.3108 10.4644 18.6289 8.93813C18.5065 8.67498 18.3142 8.34166 18.0257 8.28026C17.8509 8.2364 17.7372 8.06097 17.7809 7.88553C17.8246 7.7101 17.9995 7.60484 18.1743 7.63993C18.6114 7.74519 18.9611 8.08728 19.2234 8.66621C20.0101 10.4205 19.7829 13.9555 19.0398 15.3063C18.9261 15.5169 18.6901 15.9467 18.2093 16.1133C17.7197 16.2888 17.2914 16.0695 16.9854 15.9116C16.863 15.8502 16.6707 15.7537 16.6182 15.7712C16.4259 15.8677 16.2948 16.9554 16.7756 17.9554C17.1515 18.7448 17.7897 19.2009 18.2617 19.4378C18.4191 19.5167 18.489 19.7185 18.4016 19.8764C18.3492 20.0079 18.2355 20.0693 18.1131 20.0693Z" fill="#7D662D"/>
<path d="M16.8026 7.96287C16.6627 7.96287 16.5403 7.87515 16.4966 7.74358C15.7972 5.63839 17.432 4.01563 17.9565 3.75248C18.1139 3.66477 18.3149 3.73494 18.3936 3.89283C18.4723 4.05072 18.4111 4.25247 18.2537 4.33141C18.0177 4.45422 16.5141 5.74365 17.1085 7.53306C17.1697 7.70849 17.0736 7.8927 16.8987 7.94533C16.8725 7.96287 16.8375 7.96287 16.8026 7.96287Z" fill="#7D662D"/>
<path d="M24.9537 9.27045H19.0878C18.9042 9.27045 18.7644 9.12133 18.7644 8.9459C18.7644 8.77047 18.913 8.62135 19.0878 8.62135H24.9537C25.1373 8.62135 25.2772 8.77047 25.2772 8.9459C25.2772 9.12133 25.1286 9.27045 24.9537 9.27045Z" fill="#7D662D"/>
<path d="M24.9537 15.1565H19.0878C18.9043 15.1565 18.7644 15.0074 18.7644 14.8319C18.7644 14.6477 18.913 14.5074 19.0878 14.5074H24.9537C25.1373 14.5074 25.2772 14.6565 25.2772 14.8319C25.2772 15.0161 25.1373 15.1565 24.9537 15.1565Z" fill="#7D662D"/>
</svg>
