<svg width="24" height="25" viewBox="0 0 24 25" fill="none" xmlns="http://www.w3.org/2000/svg">
<path d="M12 14.9833C13.3807 14.9833 14.5 13.8267 14.5 12.4C14.5 10.9733 13.3807 9.81667 12 9.81667C10.6193 9.81667 9.5 10.9733 9.5 12.4C9.5 13.8267 10.6193 14.9833 12 14.9833Z" stroke="#FB5E05" stroke-width="1.97" stroke-miterlimit="10" stroke-linecap="round" stroke-linejoin="round"/>
<path d="M18.5 9.81667V14.9833" stroke="#FB5E05" stroke-width="1.97" stroke-miterlimit="10" stroke-linecap="round" stroke-linejoin="round"/>
<path d="M5 22.7333C7.20914 22.7333 9 20.8828 9 18.6C9 16.3172 7.20914 14.4667 5 14.4667C2.79086 14.4667 1 16.3172 1 18.6C1 20.8828 2.79086 22.7333 5 22.7333Z" stroke="#FB5E05" stroke-width="1.97" stroke-miterlimit="10" stroke-linecap="round" stroke-linejoin="round"/>
<path d="M5.25 17.3083V18.2693C5.25 18.631 5.07001 18.972 4.76001 19.158L4 19.6333" stroke="#FB5E05" stroke-width="1.97" stroke-miterlimit="10" stroke-linecap="round" stroke-linejoin="round"/>
<path d="M2 15.7067V9.3C2 5.68333 4 4.13333 7 4.13333H17C20 4.13333 22 5.68333 22 9.3V15.5C22 19.1167 20 20.6667 17 20.6667H8.5" stroke="#FB5E05" stroke-width="1.97" stroke-miterlimit="10" stroke-linecap="round" stroke-linejoin="round"/>
</svg>
