<svg width="92" height="84" viewBox="0 0 92 84" fill="none" xmlns="http://www.w3.org/2000/svg">
<path d="M47.1161 0.182356L44.1226 0.964298L7.24181 10.598L4.2483 11.3799C2.79528 11.7613 1.55092 12.7108 0.788215 14.0203C0.0255127 15.3298 -0.193244 16.8922 0.179937 18.3649L13.1605 69.351C13.5369 70.8228 14.4744 72.0832 15.7672 72.8558C17.0599 73.6283 18.6025 73.8499 20.0563 73.4719L20.064 73.4699L62.9164 62.2764L62.9241 62.2743C64.3771 61.893 65.6215 60.9435 66.3842 59.634C67.1469 58.3245 67.3656 56.7621 66.9925 55.2894L54.0119 4.30331C53.6355 2.83151 52.698 1.57107 51.4052 0.798506C50.1125 0.0259436 48.57 -0.195645 47.1161 0.182356Z" fill="#F2F2F2"/>
<path d="M47.5231 1.7809L43.9775 2.70706L8.20084 12.0524L4.65528 12.9785C3.62055 13.25 2.73441 13.9262 2.19127 14.8587C1.64813 15.7913 1.49234 16.9039 1.75809 17.9526L14.7386 68.9387C15.0067 69.9868 15.6743 70.8844 16.5949 71.4345C17.5155 71.9847 18.614 72.1425 19.6493 71.8733L19.6571 71.8713L62.5094 60.6777L62.5172 60.6757C63.5519 60.4042 64.438 59.728 64.9811 58.7955C65.5243 57.863 65.68 56.7503 65.4143 55.7016L52.4337 4.71553C52.1657 3.66744 51.4981 2.76985 50.5775 2.21969C49.6569 1.66953 48.5584 1.51173 47.5231 1.7809Z" fill="white"/>
<path d="M44.8459 18.2915L23.168 23.9541C22.9258 24.0173 22.6688 23.9805 22.4535 23.8518C22.2381 23.7231 22.0821 23.5131 22.0196 23.2678C21.9572 23.0226 21.9935 22.7622 22.1205 22.5441C22.2476 22.326 22.455 22.1679 22.6971 22.1046L44.375 16.4421C44.6171 16.3791 44.8739 16.416 45.0891 16.5447C45.3042 16.6735 45.4602 16.8834 45.5226 17.1286C45.585 17.3737 45.5488 17.6338 45.4219 17.8519C45.295 18.07 45.0878 18.2281 44.8459 18.2915Z" fill="#F2F2F2"/>
<path d="M49.4061 20.4288L23.9624 27.075C23.7203 27.1382 23.4633 27.1014 23.2479 26.9727C23.0325 26.844 22.8765 26.634 22.814 26.3887C22.7516 26.1435 22.7879 25.8831 22.915 25.665C23.042 25.4469 23.2494 25.2888 23.4915 25.2255L48.9353 18.5793C49.1774 18.5161 49.4344 18.5529 49.6498 18.6815C49.8651 18.8102 50.0212 19.0203 50.0836 19.2656C50.146 19.5108 50.1097 19.7712 49.9827 19.9893C49.8556 20.2074 49.6482 20.3655 49.4061 20.4288Z" fill="#F2F2F2"/>
<path d="M48.4069 32.2778L26.729 37.9404C26.6091 37.9717 26.4843 37.9788 26.3617 37.9612C26.2391 37.9437 26.1211 37.9019 26.0145 37.8381C25.9079 37.7744 25.8147 37.69 25.7402 37.5898C25.6658 37.4896 25.6116 37.3755 25.5806 37.2541C25.5497 37.1327 25.5427 37.0063 25.56 36.8821C25.5774 36.7579 25.6187 36.6384 25.6816 36.5304C25.7445 36.4224 25.8278 36.328 25.9267 36.2526C26.0256 36.1772 26.1383 36.1222 26.2581 36.0909L47.9361 30.4284C48.056 30.3971 48.1808 30.39 48.3034 30.4075C48.426 30.4251 48.544 30.4669 48.6506 30.5306C48.7572 30.5943 48.8504 30.6787 48.9249 30.7789C48.9993 30.8791 49.0535 30.9932 49.0844 31.1146C49.1154 31.2361 49.1224 31.3625 49.105 31.4867C49.0877 31.6108 49.0464 31.7303 48.9835 31.8384C48.9206 31.9464 48.8373 32.0408 48.7384 32.1162C48.6395 32.1916 48.5268 32.2465 48.4069 32.2778Z" fill="#F2F2F2"/>
<path d="M52.9671 34.4151L27.5234 41.0613C27.4035 41.0926 27.2787 41.0997 27.1561 41.0822C27.0335 41.0646 26.9156 41.0228 26.8089 40.9591C26.7023 40.8954 26.6091 40.811 26.5347 40.7108C26.4602 40.6106 26.406 40.4965 26.3751 40.3751C26.3442 40.2536 26.3372 40.1272 26.3545 40.003C26.3718 39.8788 26.4131 39.7593 26.476 39.6513C26.5389 39.5433 26.6222 39.4489 26.7211 39.3735C26.8201 39.2981 26.9327 39.2432 27.0526 39.2119L52.4963 32.5657C52.7384 32.5024 52.9954 32.5392 53.2108 32.6679C53.4261 32.7966 53.5822 33.0067 53.6446 33.2519C53.7071 33.4972 53.6708 33.7575 53.5437 33.9756C53.4167 34.1938 53.2093 34.3518 52.9671 34.4151Z" fill="#F2F2F2"/>
<path d="M51.9673 46.2641L30.2894 51.9266C30.0473 51.9897 29.7905 51.9528 29.5753 51.8241C29.36 51.6954 29.2041 51.4854 29.1417 51.2402C29.0793 50.9951 29.1155 50.7349 29.2424 50.5168C29.3694 50.2987 29.5766 50.1406 29.8185 50.0772L51.4965 44.4147C51.7386 44.3514 51.9956 44.3882 52.211 44.5169C52.4263 44.6456 52.5824 44.8557 52.6448 45.1009C52.7073 45.3462 52.671 45.6065 52.5439 45.8246C52.4169 46.0428 52.2095 46.2008 51.9673 46.2641Z" fill="#F2F2F2"/>
<path d="M56.5275 48.4013L31.0838 55.0476C30.9639 55.079 30.839 55.0862 30.7163 55.0687C30.5937 55.0513 30.4756 55.0095 30.3689 54.9458C30.2621 54.8821 30.1689 54.7977 30.0944 54.6974C30.0199 54.5972 29.9656 54.483 29.9347 54.3615C29.9037 54.24 29.8967 54.1135 29.9141 53.9893C29.9314 53.865 29.9728 53.7455 30.0358 53.6374C30.0988 53.5294 30.1822 53.435 30.2812 53.3596C30.3802 53.2842 30.493 53.2294 30.613 53.1981L56.0567 46.5519C56.2988 46.4887 56.5558 46.5255 56.7712 46.6541C56.9865 46.7828 57.1426 46.9929 57.205 47.2382C57.2675 47.4834 57.2312 47.7437 57.1041 47.9619C56.9771 48.18 56.7697 48.3381 56.5275 48.4013Z" fill="#F2F2F2"/>
<path d="M19.4672 29.7602L11.7956 31.7641C11.6795 31.7943 11.5563 31.7766 11.4531 31.7149C11.3499 31.6533 11.275 31.5526 11.245 31.4351L9.48394 24.518C9.45414 24.4004 9.47161 24.2757 9.53251 24.1711C9.59341 24.0665 9.69277 23.9907 9.8088 23.9603L17.4804 21.9564C17.5965 21.9262 17.7197 21.9439 17.8229 22.0055C17.9261 22.0672 18.001 22.1679 18.031 22.2854L19.7921 29.2025C19.8219 29.3201 19.8044 29.4448 19.7435 29.5494C19.6826 29.6539 19.5832 29.7298 19.4672 29.7602Z" fill="#E6E6E6"/>
<path d="M23.0282 43.7465L15.3566 45.7504C15.2405 45.7806 15.1174 45.7629 15.0141 45.7012C14.9109 45.6395 14.836 45.5388 14.806 45.4213L13.045 38.5043C13.0152 38.3867 13.0326 38.2619 13.0935 38.1574C13.1544 38.0528 13.2538 37.977 13.3698 37.9465L21.0414 35.9426C21.1575 35.9124 21.2807 35.9301 21.3839 35.9918C21.4872 36.0535 21.562 36.1542 21.5921 36.2717L23.3531 43.1887C23.3829 43.3063 23.3654 43.4311 23.3045 43.5356C23.2436 43.6402 23.1443 43.716 23.0282 43.7465Z" fill="#E6E6E6"/>
<path d="M26.5888 57.7327L18.9172 59.7367C18.8011 59.7669 18.6779 59.7492 18.5747 59.6875C18.4714 59.6258 18.3966 59.5251 18.3665 59.4076L16.6055 52.4906C16.5757 52.373 16.5932 52.2482 16.6541 52.1436C16.715 52.0391 16.8144 51.9633 16.9304 51.9328L24.602 49.9289C24.7181 49.8987 24.8413 49.9164 24.9445 49.9781C25.0477 50.0398 25.1226 50.1404 25.1526 50.2579L26.9136 57.175C26.9434 57.2926 26.926 57.4174 26.8651 57.5219C26.8042 57.6265 26.7048 57.7023 26.5888 57.7327Z" fill="#E6E6E6"/>
<path d="M77.0142 13.1067H32.744C31.243 13.1084 29.8039 13.7131 28.7426 14.7882C27.6812 15.8633 27.0842 17.3209 27.0825 18.8413V71.4954C27.0842 73.0158 27.6812 74.4734 28.7426 75.5485C29.8039 76.6236 31.243 77.2283 32.744 77.23H77.0142C78.5152 77.2283 79.9542 76.6236 81.0156 75.5485C82.0769 74.4734 82.6739 73.0158 82.6756 71.4954V18.8413C82.6739 17.3209 82.0769 15.8633 81.0156 14.7882C79.9542 13.7131 78.5152 13.1084 77.0142 13.1067Z" fill="#E6E6E6"/>
<path d="M77.0144 14.7576H32.7441C31.6752 14.7588 30.6504 15.1894 29.8946 15.955C29.1388 16.7206 28.7136 17.7586 28.7124 18.8413V71.4954C28.7136 72.5781 29.1388 73.6161 29.8946 74.3817C30.6504 75.1473 31.6752 75.578 32.7441 75.5792H77.0144C78.0832 75.5779 79.108 75.1473 79.8638 74.3817C80.6196 73.6161 81.0448 72.5781 81.046 71.4954V18.8413C81.0448 17.7586 80.6196 16.7206 79.8638 15.955C79.108 15.1894 78.0832 14.7588 77.0144 14.7576Z" fill="white"/>
<path d="M70.3515 43.6908H47.9643C47.8404 43.691 47.7177 43.6664 47.6032 43.6184C47.4887 43.5705 47.3847 43.5002 47.297 43.4115C47.2094 43.3228 47.1398 43.2175 47.0924 43.1015C47.0449 42.9856 47.0205 42.8613 47.0205 42.7359C47.0205 42.6104 47.0449 42.4861 47.0924 42.3702C47.1398 42.2542 47.2094 42.1489 47.297 42.0602C47.3847 41.9715 47.4887 41.9012 47.6032 41.8533C47.7177 41.8053 47.8404 41.7807 47.9643 41.7809H70.3515C70.6014 41.7812 70.8409 41.8819 71.0175 42.061C71.194 42.24 71.2932 42.4828 71.2932 42.7359C71.2932 42.9889 71.194 43.2317 71.0175 43.4107C70.8409 43.5898 70.6014 43.6905 70.3515 43.6908Z" fill="#E6E6E6"/>
<path d="M74.2405 46.9138H47.9643C47.8404 46.914 47.7177 46.8894 47.6032 46.8414C47.4887 46.7935 47.3847 46.7232 47.297 46.6345C47.2094 46.5458 47.1398 46.4405 47.0924 46.3246C47.0449 46.2086 47.0205 46.0844 47.0205 45.9589C47.0205 45.8334 47.0449 45.7091 47.0924 45.5932C47.1398 45.4772 47.2094 45.3719 47.297 45.2832C47.3847 45.1945 47.4887 45.1242 47.6032 45.0763C47.7177 45.0284 47.8404 45.0038 47.9643 45.0039H74.2405C74.4905 45.0039 74.7303 45.1045 74.9071 45.2836C75.0839 45.4627 75.1833 45.7056 75.1833 45.9589C75.1833 46.2121 75.0839 46.455 74.9071 46.6341C74.7303 46.8132 74.4905 46.9138 74.2405 46.9138Z" fill="#E6E6E6"/>
<path d="M70.3515 58.1347H47.9643C47.8404 58.1349 47.7177 58.1103 47.6032 58.0623C47.4887 58.0144 47.3847 57.9441 47.297 57.8554C47.2094 57.7667 47.1398 57.6614 47.0924 57.5455C47.0449 57.4295 47.0205 57.3053 47.0205 57.1798C47.0205 57.0543 47.0449 56.93 47.0924 56.8141C47.1398 56.6981 47.2094 56.5928 47.297 56.5041C47.3847 56.4154 47.4887 56.3451 47.6032 56.2972C47.7177 56.2493 47.8404 56.2247 47.9643 56.2248H70.3515C70.6015 56.2248 70.8413 56.3254 71.0181 56.5045C71.195 56.6836 71.2943 56.9265 71.2943 57.1798C71.2943 57.433 71.195 57.6759 71.0181 57.855C70.8413 58.0341 70.6015 58.1347 70.3515 58.1347Z" fill="#E6E6E6"/>
<path d="M74.2405 61.3577H47.9643C47.8404 61.3578 47.7177 61.3332 47.6032 61.2853C47.4887 61.2374 47.3847 61.1671 47.297 61.0784C47.2094 60.9897 47.1398 60.8844 47.0924 60.7684C47.0449 60.6525 47.0205 60.5282 47.0205 60.4027C47.0205 60.2772 47.0449 60.153 47.0924 60.037C47.1398 59.9211 47.2094 59.8158 47.297 59.7271C47.3847 59.6384 47.4887 59.5681 47.6032 59.5201C47.7177 59.4722 47.8404 59.4476 47.9643 59.4478H74.2405C74.3644 59.4476 74.4871 59.4722 74.6016 59.5201C74.7161 59.5681 74.8202 59.6384 74.9078 59.7271C74.9955 59.8158 75.065 59.9211 75.1125 60.037C75.1599 60.153 75.1843 60.2772 75.1843 60.4027C75.1843 60.5282 75.1599 60.6525 75.1125 60.7684C75.065 60.8844 74.9955 60.9897 74.9078 61.0784C74.8202 61.1671 74.7161 61.2374 74.6016 61.2853C74.4871 61.3332 74.3644 61.3578 74.2405 61.3577Z" fill="#E6E6E6"/>
<path d="M42.9499 48.377H35.0273C34.9074 48.3768 34.7925 48.3285 34.7077 48.2427C34.623 48.1569 34.5753 48.0405 34.5752 47.9191V40.7757C34.5753 40.6543 34.623 40.5379 34.7077 40.4521C34.7925 40.3662 34.9074 40.3179 35.0273 40.3178H42.9499C43.0697 40.3179 43.1846 40.3662 43.2694 40.4521C43.3541 40.5379 43.4018 40.6543 43.4019 40.7757V47.9191C43.4018 48.0405 43.3541 48.1569 43.2694 48.2427C43.1846 48.3285 43.0697 48.3768 42.9499 48.377Z" fill="#E6E6E6"/>
<path d="M42.9499 62.8208H35.0273C34.9074 62.8207 34.7925 62.7724 34.7077 62.6866C34.623 62.6007 34.5753 62.4843 34.5752 62.3629V55.2196C34.5753 55.0982 34.623 54.9818 34.7077 54.8959C34.7925 54.8101 34.9074 54.7618 35.0273 54.7617H42.9499C43.0697 54.7618 43.1846 54.8101 43.2694 54.8959C43.3541 54.9818 43.4018 55.0982 43.4019 55.2196V62.3629C43.4018 62.4843 43.3541 62.6007 43.2694 62.6866C43.1846 62.7724 43.0697 62.8207 42.9499 62.8208Z" fill="#E6E6E6"/>
<path d="M70.3767 27.612H53.8715C53.6215 27.612 53.3817 27.5114 53.2048 27.3323C53.028 27.1532 52.9287 26.9103 52.9287 26.657C52.9287 26.4037 53.028 26.1608 53.2048 25.9817C53.3817 25.8026 53.6215 25.702 53.8715 25.702H70.3767C70.6267 25.702 70.8665 25.8026 71.0433 25.9817C71.2201 26.1608 71.3194 26.4037 71.3194 26.657C71.3194 26.9103 71.2201 27.1532 71.0433 27.3323C70.8665 27.5114 70.6267 27.612 70.3767 27.612Z" fill="#CCCCCC"/>
<path d="M74.2656 30.835H53.8715C53.7477 30.835 53.6251 30.8103 53.5107 30.7623C53.3963 30.7144 53.2924 30.644 53.2048 30.5553C53.1173 30.4667 53.0479 30.3614 53.0005 30.2455C52.9531 30.1297 52.9287 30.0055 52.9287 29.8801C52.9287 29.7547 52.9531 29.6305 53.0005 29.5146C53.0479 29.3988 53.1173 29.2935 53.2048 29.2048C53.2924 29.1161 53.3963 29.0458 53.5107 28.9978C53.6251 28.9498 53.7477 28.9251 53.8715 28.9251H74.2656C74.5157 28.9251 74.7555 29.0257 74.9323 29.2048C75.1091 29.3839 75.2084 29.6268 75.2084 29.8801C75.2084 30.1333 75.1091 30.3762 74.9323 30.5553C74.7555 30.7344 74.5157 30.835 74.2656 30.835Z" fill="#CCCCCC"/>
<path d="M50.2187 34.7409H35.0024C34.8825 34.7407 34.7676 34.6925 34.6828 34.6066C34.5981 34.5208 34.5504 34.4044 34.5503 34.283V22.254C34.5504 22.1326 34.5981 22.0163 34.6828 21.9304C34.7676 21.8446 34.8825 21.7963 35.0024 21.7961H50.2187C50.3385 21.7963 50.4534 21.8446 50.5382 21.9304C50.6229 22.0163 50.6706 22.1326 50.6707 22.254V34.283C50.6706 34.4044 50.6229 34.5208 50.5382 34.6066C50.4534 34.6925 50.3385 34.7407 50.2187 34.7409Z" fill="#0085FF"/>
</svg>
