<svg width="25" height="25" viewBox="0 0 25 25" fill="none" xmlns="http://www.w3.org/2000/svg">
<path d="M21.1834 11.6767V7.27467C21.1834 3.11034 20.212 2.06667 16.306 2.06667H8.49403C4.58803 2.06667 3.6167 3.11034 3.6167 7.27467V18.91C3.6167 21.6587 5.12538 22.3097 6.95438 20.3463L6.96469 20.336C7.81202 19.437 9.10369 19.5093 9.83736 20.491L10.881 21.886" stroke="#0026EF" stroke-width="1.97" stroke-linecap="round" stroke-linejoin="round"/>
<path d="M8.2666 7.23333H16.5333" stroke="#0026EF" stroke-width="1.97" stroke-linecap="round" stroke-linejoin="round"/>
<path d="M9.2998 11.3667H15.4998" stroke="#0026EF" stroke-width="1.97" stroke-linecap="round" stroke-linejoin="round"/>
<path d="M18.8178 15.2626L15.1598 18.9206C15.0152 19.0653 14.8808 19.334 14.8498 19.5303L14.6535 20.9253C14.5811 21.4316 14.9325 21.783 15.4388 21.7106L16.8338 21.5143C17.0302 21.4833 17.3092 21.349 17.4435 21.2043L21.1015 17.5463C21.7318 16.916 22.0315 16.1823 21.1015 15.2523C20.1818 14.3326 19.4481 14.6323 18.8178 15.2626Z" stroke="#0026EF" stroke-width="1.97" stroke-miterlimit="10" stroke-linecap="round" stroke-linejoin="round"/>
<path d="M18.2891 15.7896C18.5991 16.9056 19.4671 17.7736 20.5831 18.0836" stroke="#0026EF" stroke-width="1.97" stroke-miterlimit="10" stroke-linecap="round" stroke-linejoin="round"/>
</svg>
