<svg width="50" height="30" viewBox="0 0 50 30" fill="none" xmlns="http://www.w3.org/2000/svg">
<path d="M21.5615 16.4454H17.5962L20.0764 1.01762H24.0415L21.5615 16.4454Z" fill="white"/>
<path d="M35.9362 1.39474C35.1541 1.08258 33.9136 0.737915 32.3796 0.737915C28.4637 0.737915 25.7062 2.83861 25.6893 5.84198C25.6567 8.05786 27.6636 9.28861 29.1646 10.0275C30.6987 10.7824 31.2202 11.2752 31.2202 11.9482C31.2046 12.9817 29.9805 13.4582 28.8389 13.4582C27.2557 13.4582 26.4074 13.2125 25.1183 12.6375L24.5962 12.391L24.0413 15.8542C24.9713 16.2805 26.6848 16.6587 28.4637 16.6753C32.6245 16.6753 35.3332 14.6071 35.3653 11.4065C35.3811 9.65029 34.3214 8.30458 32.0368 7.20493C30.6499 6.49902 29.8005 6.02304 29.8005 5.30078C29.8168 4.64417 30.5189 3.97164 32.0845 3.97164C33.3736 3.9387 34.3208 4.25042 35.0383 4.56237L35.397 4.72619L35.9362 1.39474Z" fill="white"/>
<path d="M41.2064 10.9799C41.533 10.0936 42.7896 6.66333 42.7896 6.66333C42.7731 6.69627 43.1155 5.76066 43.3113 5.1863L43.5884 6.51565C43.5884 6.51565 44.3393 10.2086 44.5024 10.9799C43.8827 10.9799 41.9897 10.9799 41.2064 10.9799ZM46.1012 1.01762H43.034C42.0881 1.01762 41.3695 1.2964 40.9614 2.29767L35.0714 16.4452H39.2321C39.2321 16.4452 39.9171 14.5411 40.0644 14.131C40.5208 14.131 44.5683 14.131 45.1555 14.131C45.2694 14.6726 45.6287 16.4452 45.6287 16.4452H49.3002L46.1012 1.01762Z" fill="white"/>
<path d="M14.2841 1.01762L10.4008 11.5379L9.97641 9.40428C9.25845 6.94233 7.00679 4.26749 4.49405 2.93748L8.05109 16.4291H12.2443L18.4772 1.01762H14.2841Z" fill="white"/>
<path d="M6.79473 1.01762H0.414878L0.349609 1.32934C5.3263 2.60961 8.62224 5.695 9.97641 9.40428L8.58952 2.31447C8.36119 1.32912 7.65949 1.05012 6.79473 1.01762Z" fill="white"/>
<path d="M8.05114 28.498V21.444H11.4793C12.1314 21.444 12.6418 21.5922 13.0107 21.8886C13.3861 22.185 13.5738 22.6197 13.5738 23.1927C13.5738 23.9041 13.2379 24.4046 12.5661 24.6944V24.7142C12.9942 24.8064 13.3202 25.0106 13.5442 25.3267C13.7747 25.6429 13.89 26.0446 13.89 26.532C13.89 27.1182 13.6726 27.5924 13.2379 27.9547C12.8098 28.3169 12.161 28.498 11.2916 28.498H8.05114ZM9.28608 24.398H11.3015C11.6045 24.398 11.8515 24.3124 12.0425 24.1412C12.2401 23.9699 12.3389 23.7295 12.3389 23.42C12.3389 23.0775 12.2532 22.8305 12.082 22.679C11.9108 22.5275 11.6506 22.4518 11.3015 22.4518H9.28608V24.398ZM9.28608 27.4903H11.4695C11.8449 27.4903 12.1347 27.3948 12.3389 27.2038C12.5496 27.0062 12.655 26.7296 12.655 26.3739C12.655 26.0249 12.5496 25.7581 12.3389 25.5737C12.1347 25.3827 11.8449 25.2872 11.4695 25.2872H9.28608V27.4903ZM19.3346 23.3903V28.498H18.2281V27.7867H18.2083C18.07 28.037 17.8625 28.2412 17.5859 28.3993C17.3159 28.5573 17.0392 28.6364 16.756 28.6364C16.0908 28.6364 15.6067 28.4717 15.3037 28.1424C15.0008 27.8131 14.8493 27.3092 14.8493 26.6308V23.3903H15.9755V26.5221C15.9755 26.9568 16.0579 27.2697 16.2225 27.4607C16.3872 27.6517 16.6309 27.7472 16.9536 27.7472C17.7901 27.7472 18.2083 27.2829 18.2083 26.3542V23.3903H19.3346ZM20.2457 26.858H21.372C21.4312 27.4508 21.8165 27.7472 22.5279 27.7472C22.6596 27.7472 22.7814 27.7406 22.8934 27.7274C23.012 27.7077 23.1338 27.678 23.2589 27.6385C23.3907 27.5924 23.4928 27.5233 23.5652 27.4311C23.6377 27.3323 23.6706 27.2137 23.664 27.0754C23.6574 26.9898 23.6377 26.914 23.6047 26.8482C23.5784 26.7823 23.529 26.7263 23.4565 26.6802C23.3907 26.6275 23.3248 26.5847 23.2589 26.5518C23.1931 26.5188 23.1009 26.4859 22.9823 26.453C22.8638 26.42 22.765 26.3937 22.6859 26.3739C22.6069 26.3542 22.4916 26.3311 22.3401 26.3048C22.1887 26.2719 22.0734 26.2455 21.9944 26.2257C21.7573 26.1731 21.5531 26.1171 21.3818 26.0578C21.2106 25.9919 21.0393 25.9063 20.8681 25.8009C20.7034 25.689 20.575 25.5441 20.4828 25.3662C20.3972 25.1818 20.3544 24.9645 20.3544 24.7142C20.3544 24.4507 20.4202 24.2202 20.5519 24.0226C20.6837 23.8184 20.8582 23.6636 21.0756 23.5583C21.2929 23.4529 21.5201 23.3771 21.7573 23.331C21.9944 23.2783 22.2381 23.252 22.4883 23.252C23.0614 23.252 23.5455 23.3804 23.9406 23.6373C24.3358 23.8876 24.563 24.2828 24.6223 24.8229H23.4467C23.3544 24.3684 23.0087 24.1412 22.4093 24.1412C22.271 24.1412 22.1393 24.1543 22.0141 24.1807C21.889 24.2004 21.7671 24.2531 21.6486 24.3388C21.5366 24.4178 21.4806 24.5265 21.4806 24.6648C21.4806 24.7438 21.4938 24.8163 21.5201 24.8821C21.5465 24.9414 21.5959 24.9941 21.6683 25.0402C21.7408 25.0863 21.8067 25.1258 21.8659 25.1588C21.9252 25.1917 22.0174 25.2279 22.1426 25.2674C22.2743 25.3004 22.3731 25.3267 22.4389 25.3465C22.5114 25.3596 22.6299 25.3827 22.7946 25.4156C22.9593 25.4486 23.0745 25.4716 23.1404 25.4848C23.3841 25.5375 23.5883 25.5967 23.7529 25.6626C23.9242 25.7219 24.0954 25.8075 24.2667 25.9195C24.4379 26.0315 24.5663 26.1764 24.652 26.3542C24.7442 26.5254 24.7903 26.7329 24.7903 26.9766C24.7903 27.3586 24.6684 27.6813 24.4247 27.9448C24.1876 28.2017 23.9044 28.3828 23.5751 28.4882C23.2458 28.587 22.8901 28.6364 22.5081 28.6364C21.8363 28.6364 21.2929 28.4849 20.878 28.1819C20.4696 27.8789 20.2589 27.4376 20.2457 26.858ZM25.675 22.511V21.444H26.8013V22.511H25.675ZM25.675 28.498V23.3903H26.8013V28.498H25.675ZM28.0285 28.498V23.3903H29.0955V24.1412L29.1152 24.1609C29.293 23.8777 29.5203 23.6571 29.7969 23.499C30.0735 23.3343 30.3765 23.252 30.7058 23.252C31.2722 23.252 31.7135 23.4002 32.0297 23.6966C32.3524 23.993 32.5138 24.4244 32.5138 24.9908V28.498H31.3875V25.2872C31.3743 24.8854 31.2887 24.5956 31.1306 24.4178C30.9726 24.2334 30.7256 24.1412 30.3897 24.1412C30.0208 24.1412 29.7212 24.2696 29.4906 24.5265C29.2667 24.7833 29.1547 25.1028 29.1547 25.4848V28.498H28.0285ZM38.335 26.2356H34.5808C34.5808 26.6637 34.696 27.0227 34.9266 27.3125C35.1637 27.6023 35.5062 27.7472 35.954 27.7472C36.5863 27.7472 37.0013 27.464 37.1989 26.8976H38.2658C38.1473 27.4442 37.874 27.8723 37.4458 28.1819C37.0243 28.4849 36.527 28.6364 35.954 28.6364C35.1637 28.6364 34.5478 28.3927 34.1065 27.9053C33.6718 27.4113 33.4545 26.7592 33.4545 25.9491C33.4545 25.1983 33.6817 24.5627 34.1362 24.0424C34.5906 23.5155 35.1867 23.252 35.9244 23.252C36.7082 23.252 37.3306 23.5517 37.7916 24.151C38.2527 24.7504 38.4338 25.4453 38.335 26.2356ZM34.5808 25.4947H37.2087C37.1824 25.1192 37.054 24.7998 36.8234 24.5363C36.5929 24.2729 36.2932 24.1412 35.9244 24.1412C35.5424 24.1412 35.2262 24.2696 34.976 24.5265C34.7257 24.7833 34.5939 25.1061 34.5808 25.4947ZM38.9146 26.858H40.0408C40.1001 27.4508 40.4854 27.7472 41.1968 27.7472C41.3285 27.7472 41.4503 27.7406 41.5623 27.7274C41.6809 27.7077 41.8027 27.678 41.9278 27.6385C42.0596 27.5924 42.1617 27.5233 42.2341 27.4311C42.3066 27.3323 42.3395 27.2137 42.3329 27.0754C42.3263 26.9898 42.3066 26.914 42.2736 26.8482C42.2473 26.7823 42.1979 26.7263 42.1254 26.6802C42.0596 26.6275 41.9937 26.5847 41.9278 26.5518C41.862 26.5188 41.7698 26.4859 41.6512 26.453C41.5327 26.42 41.4339 26.3937 41.3548 26.3739C41.2758 26.3542 41.1605 26.3311 41.009 26.3048C40.8576 26.2719 40.7423 26.2455 40.6633 26.2257C40.4261 26.1731 40.222 26.1171 40.0507 26.0578C39.8795 25.9919 39.7082 25.9063 39.537 25.8009C39.3723 25.689 39.2439 25.5441 39.1517 25.3662C39.0661 25.1818 39.0232 24.9645 39.0232 24.7142C39.0232 24.4507 39.0891 24.2202 39.2208 24.0226C39.3526 23.8184 39.5271 23.6636 39.7445 23.5583C39.9618 23.4529 40.189 23.3771 40.4261 23.331C40.6633 23.2783 40.907 23.252 41.1572 23.252C41.7302 23.252 42.2143 23.3804 42.6095 23.6373C43.0047 23.8876 43.2319 24.2828 43.2912 24.8229H42.1156C42.0233 24.3684 41.6776 24.1412 41.0782 24.1412C40.9399 24.1412 40.8082 24.1543 40.683 24.1807C40.5579 24.2004 40.436 24.2531 40.3175 24.3388C40.2055 24.4178 40.1495 24.5265 40.1495 24.6648C40.1495 24.7438 40.1627 24.8163 40.189 24.8821C40.2154 24.9414 40.2648 24.9941 40.3372 25.0402C40.4097 25.0863 40.4755 25.1258 40.5348 25.1588C40.5941 25.1917 40.6863 25.2279 40.8115 25.2674C40.9432 25.3004 41.042 25.3267 41.1078 25.3465C41.1803 25.3596 41.2988 25.3827 41.4635 25.4156C41.6282 25.4486 41.7434 25.4716 41.8093 25.4848C42.053 25.5375 42.2572 25.5967 42.4218 25.6626C42.5931 25.7219 42.7643 25.8075 42.9356 25.9195C43.1068 26.0315 43.2352 26.1764 43.3209 26.3542C43.4131 26.5254 43.4592 26.7329 43.4592 26.9766C43.4592 27.3586 43.3373 27.6813 43.0936 27.9448C42.8565 28.2017 42.5733 28.3828 42.244 28.4882C41.9147 28.587 41.559 28.6364 41.177 28.6364C40.5052 28.6364 39.9618 28.4849 39.5469 28.1819C39.1385 27.8789 38.9277 27.4376 38.9146 26.858ZM44.0377 26.858H45.1639C45.2232 27.4508 45.6085 27.7472 46.3198 27.7472C46.4516 27.7472 46.5734 27.7406 46.6854 27.7274C46.8039 27.7077 46.9258 27.678 47.0509 27.6385C47.1827 27.5924 47.2847 27.5233 47.3572 27.4311C47.4296 27.3323 47.4626 27.2137 47.456 27.0754C47.4494 26.9898 47.4296 26.914 47.3967 26.8482C47.3704 26.7823 47.321 26.7263 47.2485 26.6802C47.1827 26.6275 47.1168 26.5847 47.0509 26.5518C46.9851 26.5188 46.8929 26.4859 46.7743 26.453C46.6557 26.42 46.557 26.3937 46.4779 26.3739C46.3989 26.3542 46.2836 26.3311 46.1321 26.3048C45.9806 26.2719 45.8654 26.2455 45.7863 26.2257C45.5492 26.1731 45.3451 26.1171 45.1738 26.0578C45.0026 25.9919 44.8313 25.9063 44.6601 25.8009C44.4954 25.689 44.367 25.5441 44.2748 25.3662C44.1892 25.1818 44.1463 24.9645 44.1463 24.7142C44.1463 24.4507 44.2122 24.2202 44.3439 24.0226C44.4757 23.8184 44.6502 23.6636 44.8675 23.5583C45.0849 23.4529 45.3121 23.3771 45.5492 23.331C45.7863 23.2783 46.03 23.252 46.2803 23.252C46.8533 23.252 47.3374 23.3804 47.7326 23.6373C48.1278 23.8876 48.355 24.2828 48.4143 24.8229H47.2386C47.1464 24.3684 46.8006 24.1412 46.2013 24.1412C46.063 24.1412 45.9312 24.1543 45.8061 24.1807C45.681 24.2004 45.5591 24.2531 45.4406 24.3388C45.3286 24.4178 45.2726 24.5265 45.2726 24.6648C45.2726 24.7438 45.2858 24.8163 45.3121 24.8821C45.3385 24.9414 45.3879 24.9941 45.4603 25.0402C45.5328 25.0863 45.5986 25.1258 45.6579 25.1588C45.7172 25.1917 45.8094 25.2279 45.9345 25.2674C46.0663 25.3004 46.1651 25.3267 46.2309 25.3465C46.3034 25.3596 46.4219 25.3827 46.5866 25.4156C46.7513 25.4486 46.8665 25.4716 46.9324 25.4848C47.1761 25.5375 47.3802 25.5967 47.5449 25.6626C47.7162 25.7219 47.8874 25.8075 48.0586 25.9195C48.2299 26.0315 48.3583 26.1764 48.4439 26.3542C48.5362 26.5254 48.5823 26.7329 48.5823 26.9766C48.5823 27.3586 48.4604 27.6813 48.2167 27.9448C47.9796 28.2017 47.6964 28.3828 47.3671 28.4882C47.0378 28.587 46.6821 28.6364 46.3001 28.6364C45.6283 28.6364 45.0849 28.4849 44.67 28.1819C44.2616 27.8789 44.0508 27.4376 44.0377 26.858Z" fill="white"/>
</svg>
