<svg width="25" height="26" viewBox="0 0 25 26" fill="none" xmlns="http://www.w3.org/2000/svg">
<path d="M18.4432 7.8851C18.1952 7.84377 17.9369 7.83345 17.6682 7.83345H7.33504C7.04571 7.83345 6.76671 7.85411 6.49805 7.89544C6.64271 7.60612 6.84938 7.33748 7.09737 7.08949L10.4557 3.72086C11.8713 2.31554 14.1653 2.31554 15.5809 3.72086L17.3892 5.54979C18.0506 6.20078 18.4019 7.02745 18.4432 7.8851Z" stroke="white" stroke-width="2" stroke-linecap="round" stroke-linejoin="round"/>
<path d="M9.40035 20.2333C9.40035 21.0082 9.18335 21.7419 8.80102 22.3619C8.08803 23.5605 6.77571 24.3665 5.26707 24.3665C3.75842 24.3665 2.44611 23.5605 1.73311 22.3619C1.35079 21.7419 1.13379 21.0082 1.13379 20.2333C1.13379 17.9496 2.98343 16.1 5.26707 16.1C7.5507 16.1 9.40035 17.9496 9.40035 20.2333Z" stroke="white" stroke-width="2" stroke-miterlimit="10" stroke-linecap="round" stroke-linejoin="round"/>
<path d="M6.80878 20.2122H3.72949" stroke="white" stroke-width="2" stroke-miterlimit="10" stroke-linecap="round" stroke-linejoin="round"/>
<path d="M5.26758 18.7035V21.7931" stroke="white" stroke-width="2" stroke-miterlimit="10" stroke-linecap="round" stroke-linejoin="round"/>
<path d="M22.8334 13.0001V18.1667C22.8334 21.2667 20.7667 23.3333 17.6668 23.3333H7.98458C8.30491 23.0646 8.58391 22.734 8.8009 22.362C9.18323 21.742 9.40023 21.0083 9.40023 20.2333C9.40023 17.9497 7.55059 16.1001 5.26695 16.1001C4.02697 16.1001 2.92132 16.6477 2.16699 17.5054V13.0001C2.16699 10.1895 3.86164 8.22616 6.4966 7.89549C6.76526 7.85416 7.04426 7.8335 7.33359 7.8335H17.6668C17.9355 7.8335 18.1938 7.84382 18.4418 7.88515C21.1077 8.19515 22.8334 10.1688 22.8334 13.0001Z" stroke="white" stroke-width="2" stroke-linecap="round" stroke-linejoin="round"/>
<path d="M22.8336 13.5167H19.7336C18.597 13.5167 17.667 14.4467 17.667 15.5834C17.667 16.72 18.597 17.65 19.7336 17.65H22.8336" stroke="white" stroke-width="2" stroke-linecap="round" stroke-linejoin="round"/>
</svg>
