<svg width="26" height="26" viewBox="0 0 26 26" fill="none" xmlns="http://www.w3.org/2000/svg">
<path d="M18.9427 7.6847C18.6947 7.64337 18.4364 7.63305 18.1677 7.63305H7.83455C7.54522 7.63305 7.26622 7.65371 6.99756 7.69504C7.14222 7.40571 7.34889 7.13708 7.59688 6.88909L10.9552 3.52045C12.3708 2.11514 14.6648 2.11514 16.0804 3.52045L17.8887 5.34939C18.5501 6.00038 18.9014 6.82704 18.9427 7.6847Z" stroke="#00AFEF" stroke-width="1.96939" stroke-linecap="round" stroke-linejoin="round"/>
<path d="M9.89986 20.0329C9.89986 20.8079 9.68286 21.5416 9.30053 22.1615C8.58754 23.3602 7.27523 24.1662 5.76658 24.1662C4.25793 24.1662 2.94562 23.3602 2.23263 22.1615C1.8503 21.5416 1.6333 20.8079 1.6333 20.0329C1.6333 17.7493 3.48294 15.8996 5.76658 15.8996C8.05022 15.8996 9.89986 17.7493 9.89986 20.0329Z" stroke="#00AFEF" stroke-width="1.96939" stroke-miterlimit="10" stroke-linecap="round" stroke-linejoin="round"/>
<path d="M7.30781 20.0117H4.22852" stroke="#00AFEF" stroke-width="1.96939" stroke-miterlimit="10" stroke-linecap="round" stroke-linejoin="round"/>
<path d="M5.7666 18.5031V21.5927" stroke="#00AFEF" stroke-width="1.96939" stroke-miterlimit="10" stroke-linecap="round" stroke-linejoin="round"/>
<path d="M23.3329 12.7997V17.9663C23.3329 21.0662 21.2663 23.1329 18.1663 23.1329H8.48409C8.80442 22.8642 9.08342 22.5335 9.30042 22.1615C9.68274 21.5415 9.89974 20.8079 9.89974 20.0329C9.89974 17.7493 8.0501 15.8996 5.76646 15.8996C4.52648 15.8996 3.42083 16.4473 2.6665 17.3049V12.7997C2.6665 9.98903 4.36115 8.02572 6.99611 7.69505C7.26478 7.65372 7.54377 7.63306 7.8331 7.63306H18.1663C18.435 7.63306 18.6933 7.64338 18.9413 7.68471C21.6073 7.99471 23.3329 9.96836 23.3329 12.7997Z" stroke="#00AFEF" stroke-width="1.96939" stroke-linecap="round" stroke-linejoin="round"/>
<path d="M23.3331 13.3163H20.2331C19.0965 13.3163 18.1665 14.2463 18.1665 15.383C18.1665 16.5196 19.0965 17.4496 20.2331 17.4496H23.3331" stroke="#00AFEF" stroke-width="1.96939" stroke-linecap="round" stroke-linejoin="round"/>
</svg>
