<svg width="317" height="141" viewBox="0 0 317 141" fill="none" xmlns="http://www.w3.org/2000/svg">
<g opacity="0.3">
<path d="M53.9898 -61.0535L54.1224 -54.9097C55.1468 -7.42768 121.494 17.1572 185.056 -6.3922L193.554 -9.54083C253.251 -31.6583 315.472 -8.3397 315.932 36.3229L316.057 48.4158C316.397 81.4509 357.701 101.529 403.953 91.1433V91.1433" stroke="url(#paint0_linear_87_7098)" stroke-width="1.66984"/>
<path d="M50.9341 -57.6128L51.0667 -51.469C52.0911 -3.987 118.438 20.5979 182 -2.95153L190.498 -6.10016C250.195 -28.2176 312.416 -4.89902 312.876 39.7635L313.001 51.8565C313.341 84.8916 354.645 104.97 400.898 94.5839V94.5839" stroke="url(#paint1_linear_87_7098)" stroke-width="1.66984"/>
<path d="M47.8792 -54.1719L48.0118 -48.0281C49.0362 -0.546085 115.383 24.0388 178.945 0.489389L187.443 -2.65924C247.14 -24.7767 309.361 -1.4581 309.821 43.2045L309.946 55.2974C310.286 88.3325 351.59 108.411 397.843 98.0249V98.0249" stroke="url(#paint2_linear_87_7098)" stroke-width="1.66984"/>
<path d="M44.8233 -50.731L44.9559 -44.5872C45.9803 2.89483 112.327 27.4797 175.889 3.93031L184.387 0.78168C244.084 -21.3358 306.305 1.98281 306.765 46.6454L306.89 58.7383C307.23 91.7734 348.534 111.852 394.787 101.466V101.466" stroke="url(#paint3_linear_87_7098)" stroke-width="1.66984"/>
<path d="M41.7681 -47.2903L41.9007 -41.1465C42.9251 6.33551 109.272 30.9204 172.834 7.37098L181.332 4.22235C241.029 -17.8951 303.25 5.42349 303.71 50.086L303.835 62.179C304.175 95.2141 345.479 115.292 391.732 104.906V104.906" stroke="url(#paint4_linear_87_7098)" stroke-width="1.66984"/>
<path d="M38.7122 -43.8494L38.8448 -37.7056C39.8692 9.77642 106.216 34.3613 169.778 10.8119L178.276 7.66327C237.973 -14.4542 300.194 8.86441 300.654 53.527L300.779 65.6199C301.119 98.655 342.423 118.733 388.676 108.347V108.347" stroke="url(#paint5_linear_87_7098)" stroke-width="1.66984"/>
<path d="M35.6573 -40.4085L35.7898 -34.2646C36.8142 13.2173 103.161 37.8022 166.723 14.2528L175.221 11.1042C234.918 -11.0133 297.139 12.3053 297.599 56.9679L297.724 69.0608C298.064 102.096 339.368 122.174 385.621 111.788V111.788" stroke="url(#paint6_linear_87_7098)" stroke-width="1.66984"/>
<path d="M32.6019 -36.9678L32.7344 -30.824C33.7588 16.658 100.106 41.2429 163.668 17.6935L172.166 14.5449C231.863 -7.57259 294.084 15.746 294.544 60.4086L294.669 72.5015C295.009 105.537 336.313 125.615 382.565 115.229V115.229" stroke="url(#paint7_linear_87_7098)" stroke-width="1.66984"/>
<path d="M29.5462 -33.5269L29.6788 -27.383C30.7032 20.0989 97.0499 44.6838 160.612 21.1344L169.11 17.9858C228.807 -4.13167 291.028 19.1869 291.488 63.8495L291.613 75.9424C291.953 108.978 333.257 129.056 379.51 118.67V118.67" stroke="url(#paint8_linear_87_7098)" stroke-width="1.66984"/>
<path d="M26.491 -30.0862L26.6236 -23.9424C27.648 23.5396 93.9948 48.1245 157.557 24.5751L166.055 21.4265C225.752 -0.691 287.973 22.6276 288.433 67.2902L288.558 79.3831C288.898 112.418 330.202 132.496 376.455 122.111V122.111" stroke="url(#paint9_linear_87_7098)" stroke-width="1.66984"/>
<path d="M23.4354 -26.6455L23.5679 -20.5017C24.5923 26.9803 90.9391 51.5652 154.501 28.0158L163 24.8671C222.696 2.74967 284.917 26.0683 285.377 70.7308L285.502 82.8238C285.842 115.859 327.146 135.937 373.399 125.551V125.551" stroke="url(#paint10_linear_87_7098)" stroke-width="1.66984"/>
<path d="M20.3802 -23.2046L20.5127 -17.0608C21.5371 30.4212 87.8839 55.0061 151.446 31.4567L159.944 28.308C219.641 6.19059 281.862 29.5092 282.322 74.1717L282.447 86.2647C282.787 119.3 324.091 139.378 370.344 128.992V128.992" stroke="url(#paint11_linear_87_7098)" stroke-width="1.66984"/>
<path d="M17.325 -19.7639L17.4576 -13.6201C18.482 33.8619 84.8288 58.4468 148.391 34.8973L156.889 31.7487C216.586 9.63127 278.807 32.9499 279.267 77.6124L279.392 89.7053C279.732 122.74 321.036 142.819 367.289 132.433V132.433" stroke="url(#paint12_linear_87_7098)" stroke-width="1.66984"/>
<path d="M14.2693 -16.323L14.4019 -10.1792C15.4263 37.3028 81.7731 61.8877 145.335 38.3383L153.833 35.1896C213.53 13.0722 275.751 36.3908 276.211 81.0533L276.336 93.1463C276.676 126.181 317.98 146.26 364.233 135.874V135.874" stroke="url(#paint13_linear_87_7098)" stroke-width="1.66984"/>
<path d="M11.2139 -12.8821L11.3465 -6.73827C12.3709 40.7437 78.7177 65.3286 142.28 41.7792L150.778 38.6306C210.475 16.5131 272.696 39.8317 273.156 84.4943L273.281 96.5872C273.621 129.622 314.925 149.701 361.177 139.315V139.315" stroke="url(#paint14_linear_87_7098)" stroke-width="1.66984"/>
<path d="M8.23077 -9.52271L8.36332 -3.3789C9.38773 44.1031 75.7345 68.688 139.296 45.1386L147.795 41.9899C207.492 19.8725 269.713 43.1911 270.173 87.8536L270.297 99.9466C270.638 132.982 311.942 153.06 358.194 142.674V142.674" stroke="url(#paint15_linear_87_7098)" stroke-width="1.66984"/>
<path d="M5.24786 -6.16334L5.38041 -0.0195235C6.40482 47.4625 72.7516 72.0474 136.314 48.4979L144.812 45.3493C204.509 23.2319 266.73 46.5504 267.19 91.213L267.315 103.306C267.655 136.341 308.959 156.419 355.211 146.033V146.033" stroke="url(#paint16_linear_87_7098)" stroke-width="1.66984"/>
<path d="M2.26471 -2.80396L2.39726 3.33985C3.42167 50.8218 69.7685 75.4067 133.33 51.8573L141.829 48.7087C201.526 26.5912 263.747 49.9098 264.207 94.5724L264.331 106.665C264.672 139.7 305.976 159.779 352.228 149.393V149.393" stroke="url(#paint17_linear_87_7098)" stroke-width="1.66984"/>
<path d="M-0.718444 0.555415L-0.585894 6.69923C0.438512 54.1812 66.7853 78.7661 130.347 55.2167L138.846 52.0681C198.543 29.9506 260.763 53.2692 261.224 97.9318L261.348 110.025C261.689 143.06 302.993 163.138 349.245 152.752V152.752" stroke="url(#paint18_linear_87_7098)" stroke-width="1.66984"/>
<path d="M-3.7016 3.91455L-3.56905 10.0584C-2.54464 57.5403 63.8021 82.1252 127.364 58.5758L135.863 55.4272C195.56 33.3097 257.78 56.6283 258.241 101.291L258.365 113.384C258.706 146.419 300.009 166.497 346.262 156.111V156.111" stroke="url(#paint19_linear_87_7098)" stroke-width="1.66984"/>
<path d="M-6.68475 7.27416L-6.5522 13.418C-5.5278 60.9 60.819 85.4849 124.381 61.9354L132.879 58.7868C192.576 36.6694 254.797 59.9879 255.257 104.651L255.382 116.743C255.722 149.779 297.026 169.857 343.279 159.471V159.471" stroke="url(#paint20_linear_87_7098)" stroke-width="1.66984"/>
<path d="M-9.66766 10.6335L-9.53511 16.7774C-8.51071 64.2593 57.8361 88.8442 121.398 65.2948L129.896 62.1462C189.593 40.0287 251.814 63.3473 252.274 108.01L252.399 120.103C252.739 153.138 294.043 173.216 340.296 162.83V162.83" stroke="url(#paint21_linear_87_7098)" stroke-width="1.66984"/>
<path d="M-12.6508 13.9929L-12.5183 20.1367C-11.4939 67.6187 54.8529 92.2036 118.415 68.6542L126.913 65.5056C186.61 43.3881 248.831 66.7067 249.291 111.369L249.416 123.462C249.756 156.497 291.06 176.576 337.313 166.19V166.19" stroke="url(#paint22_linear_87_7098)" stroke-width="1.66984"/>
<path d="M-15.634 17.352L-15.5014 23.4959C-14.477 70.9778 51.8698 95.5627 115.432 72.0133L123.93 68.8647C183.627 46.7472 245.848 70.0658 246.308 114.728L246.433 126.821C246.773 159.856 288.077 179.935 334.33 169.549V169.549" stroke="url(#paint23_linear_87_7098)" stroke-width="1.66984"/>
<path d="M-18.6171 20.7114L-18.4846 26.8552C-17.4602 74.3372 48.8866 98.9221 112.449 75.3727L120.947 72.2241C180.644 50.1066 242.865 73.4252 243.325 118.088L243.45 130.181C243.79 163.216 285.094 183.294 331.346 172.908V172.908" stroke="url(#paint24_linear_87_7098)" stroke-width="1.66984"/>
<path d="M-21.6 24.0708L-21.4675 30.2146C-20.4431 77.6966 45.9037 102.281 109.466 78.7321L117.964 75.5834C177.661 53.466 239.882 76.7846 240.342 121.447L240.467 133.54C240.807 166.575 282.111 186.653 328.363 176.268V176.268" stroke="url(#paint25_linear_87_7098)" stroke-width="1.66984"/>
<path d="M-24.5832 27.4302L-24.4506 33.574C-23.4262 81.056 42.9206 105.641 106.483 82.0914L114.981 78.9428C174.678 56.8254 236.899 80.1439 237.359 124.807L237.484 136.899C237.824 169.935 279.128 190.013 325.38 179.627V179.627" stroke="url(#paint26_linear_87_7098)" stroke-width="1.66984"/>
<path d="M-27.5663 30.7895L-27.4338 36.9334C-26.4094 84.4153 39.9374 109 103.499 85.4508L111.998 82.3022C171.695 60.1847 233.916 83.5033 234.376 128.166L234.5 140.259C234.841 173.294 276.145 193.372 322.397 182.986V182.986" stroke="url(#paint27_linear_87_7098)" stroke-width="1.66984"/>
<path d="M-30.5495 34.1489L-30.4169 40.2927C-29.3925 87.7747 36.9542 112.36 100.516 88.8102L109.015 85.6616C168.712 63.5441 230.932 86.8627 231.393 131.525L231.517 143.618C231.858 176.653 273.162 196.732 319.414 186.346V186.346" stroke="url(#paint28_linear_87_7098)" stroke-width="1.66984"/>
</g>
<defs>
<linearGradient id="paint0_linear_87_7098" x1="296.817" y1="-61.3583" x2="233.307" y2="107.831" gradientUnits="userSpaceOnUse">
<stop stop-color="white"/>
<stop offset="1" stop-opacity="0.25"/>
</linearGradient>
<linearGradient id="paint1_linear_87_7098" x1="293.762" y1="-57.9176" x2="230.252" y2="111.272" gradientUnits="userSpaceOnUse">
<stop stop-color="white"/>
<stop offset="1" stop-opacity="0.25"/>
</linearGradient>
<linearGradient id="paint2_linear_87_7098" x1="290.707" y1="-54.4767" x2="227.197" y2="114.713" gradientUnits="userSpaceOnUse">
<stop stop-color="white"/>
<stop offset="1" stop-opacity="0.25"/>
</linearGradient>
<linearGradient id="paint3_linear_87_7098" x1="287.651" y1="-51.0358" x2="224.141" y2="118.153" gradientUnits="userSpaceOnUse">
<stop stop-color="white"/>
<stop offset="1" stop-opacity="0.25"/>
</linearGradient>
<linearGradient id="paint4_linear_87_7098" x1="284.596" y1="-47.5951" x2="221.086" y2="121.594" gradientUnits="userSpaceOnUse">
<stop stop-color="white"/>
<stop offset="1" stop-opacity="0.25"/>
</linearGradient>
<linearGradient id="paint5_linear_87_7098" x1="281.54" y1="-44.1542" x2="218.03" y2="125.035" gradientUnits="userSpaceOnUse">
<stop stop-color="white"/>
<stop offset="1" stop-opacity="0.25"/>
</linearGradient>
<linearGradient id="paint6_linear_87_7098" x1="278.485" y1="-40.7132" x2="214.975" y2="128.476" gradientUnits="userSpaceOnUse">
<stop stop-color="white"/>
<stop offset="1" stop-opacity="0.25"/>
</linearGradient>
<linearGradient id="paint7_linear_87_7098" x1="275.429" y1="-37.2726" x2="211.919" y2="131.917" gradientUnits="userSpaceOnUse">
<stop stop-color="white"/>
<stop offset="1" stop-opacity="0.25"/>
</linearGradient>
<linearGradient id="paint8_linear_87_7098" x1="272.374" y1="-33.8317" x2="208.864" y2="135.358" gradientUnits="userSpaceOnUse">
<stop stop-color="white"/>
<stop offset="1" stop-opacity="0.25"/>
</linearGradient>
<linearGradient id="paint9_linear_87_7098" x1="269.318" y1="-30.391" x2="205.809" y2="138.798" gradientUnits="userSpaceOnUse">
<stop stop-color="white"/>
<stop offset="1" stop-opacity="0.25"/>
</linearGradient>
<linearGradient id="paint10_linear_87_7098" x1="266.263" y1="-26.9503" x2="202.753" y2="142.239" gradientUnits="userSpaceOnUse">
<stop stop-color="white"/>
<stop offset="1" stop-opacity="0.25"/>
</linearGradient>
<linearGradient id="paint11_linear_87_7098" x1="263.208" y1="-23.5094" x2="199.698" y2="145.68" gradientUnits="userSpaceOnUse">
<stop stop-color="white"/>
<stop offset="1" stop-opacity="0.25"/>
</linearGradient>
<linearGradient id="paint12_linear_87_7098" x1="260.152" y1="-20.0687" x2="196.643" y2="149.121" gradientUnits="userSpaceOnUse">
<stop stop-color="white"/>
<stop offset="1" stop-opacity="0.25"/>
</linearGradient>
<linearGradient id="paint13_linear_87_7098" x1="257.097" y1="-16.6278" x2="193.587" y2="152.561" gradientUnits="userSpaceOnUse">
<stop stop-color="white"/>
<stop offset="1" stop-opacity="0.25"/>
</linearGradient>
<linearGradient id="paint14_linear_87_7098" x1="254.041" y1="-13.1869" x2="190.532" y2="156.002" gradientUnits="userSpaceOnUse">
<stop stop-color="white"/>
<stop offset="1" stop-opacity="0.25"/>
</linearGradient>
<linearGradient id="paint15_linear_87_7098" x1="251.058" y1="-9.8275" x2="187.548" y2="159.362" gradientUnits="userSpaceOnUse">
<stop stop-color="white"/>
<stop offset="1" stop-opacity="0.25"/>
</linearGradient>
<linearGradient id="paint16_linear_87_7098" x1="248.075" y1="-6.46813" x2="184.565" y2="162.721" gradientUnits="userSpaceOnUse">
<stop stop-color="white"/>
<stop offset="1" stop-opacity="0.25"/>
</linearGradient>
<linearGradient id="paint17_linear_87_7098" x1="245.092" y1="-3.10875" x2="181.582" y2="166.08" gradientUnits="userSpaceOnUse">
<stop stop-color="white"/>
<stop offset="1" stop-opacity="0.25"/>
</linearGradient>
<linearGradient id="paint18_linear_87_7098" x1="242.109" y1="0.250622" x2="178.599" y2="169.44" gradientUnits="userSpaceOnUse">
<stop stop-color="white"/>
<stop offset="1" stop-opacity="0.25"/>
</linearGradient>
<linearGradient id="paint19_linear_87_7098" x1="239.126" y1="3.60975" x2="175.616" y2="172.799" gradientUnits="userSpaceOnUse">
<stop stop-color="white"/>
<stop offset="1" stop-opacity="0.25"/>
</linearGradient>
<linearGradient id="paint20_linear_87_7098" x1="236.143" y1="6.96937" x2="172.633" y2="176.159" gradientUnits="userSpaceOnUse">
<stop stop-color="white"/>
<stop offset="1" stop-opacity="0.25"/>
</linearGradient>
<linearGradient id="paint21_linear_87_7098" x1="233.16" y1="10.3287" x2="169.65" y2="179.518" gradientUnits="userSpaceOnUse">
<stop stop-color="white"/>
<stop offset="1" stop-opacity="0.25"/>
</linearGradient>
<linearGradient id="paint22_linear_87_7098" x1="230.177" y1="13.6881" x2="166.667" y2="182.877" gradientUnits="userSpaceOnUse">
<stop stop-color="white"/>
<stop offset="1" stop-opacity="0.25"/>
</linearGradient>
<linearGradient id="paint23_linear_87_7098" x1="227.193" y1="17.0473" x2="163.684" y2="186.236" gradientUnits="userSpaceOnUse">
<stop stop-color="white"/>
<stop offset="1" stop-opacity="0.25"/>
</linearGradient>
<linearGradient id="paint24_linear_87_7098" x1="224.21" y1="20.4066" x2="160.7" y2="189.596" gradientUnits="userSpaceOnUse">
<stop stop-color="white"/>
<stop offset="1" stop-opacity="0.25"/>
</linearGradient>
<linearGradient id="paint25_linear_87_7098" x1="221.227" y1="23.766" x2="157.718" y2="192.955" gradientUnits="userSpaceOnUse">
<stop stop-color="white"/>
<stop offset="1" stop-opacity="0.25"/>
</linearGradient>
<linearGradient id="paint26_linear_87_7098" x1="218.244" y1="27.1254" x2="154.734" y2="196.315" gradientUnits="userSpaceOnUse">
<stop stop-color="white"/>
<stop offset="1" stop-opacity="0.25"/>
</linearGradient>
<linearGradient id="paint27_linear_87_7098" x1="215.261" y1="30.4848" x2="151.751" y2="199.674" gradientUnits="userSpaceOnUse">
<stop stop-color="white"/>
<stop offset="1" stop-opacity="0.25"/>
</linearGradient>
<linearGradient id="paint28_linear_87_7098" x1="212.278" y1="33.8441" x2="148.768" y2="203.033" gradientUnits="userSpaceOnUse">
<stop stop-color="white"/>
<stop offset="1" stop-opacity="0.25"/>
</linearGradient>
</defs>
</svg>
